<mxfile host="app.diagrams.net" modified="2023-11-05T16:59:54.117Z" agent="Mozilla/5.0 (Windows NT 10.0; Win64; x64) AppleWebKit/537.36 (KHTML, like Gecko) Chrome/119.0.0.0 Safari/537.36" etag="_lCG7jsocfTAVmXl7YVt" version="22.0.8" type="google" pages="9">
  <diagram id="1hNNHXemxZD0ANTrLvL-" name="Security-ORM">
    <mxGraphModel dx="1050" dy="566" grid="1" gridSize="10" guides="1" tooltips="1" connect="1" arrows="1" fold="1" page="1" pageScale="1" pageWidth="850" pageHeight="1100" math="0" shadow="0">
      <root>
        <mxCell id="0" />
        <mxCell id="1" parent="0" />
        <mxCell id="U_WAIAHPmic2r2tjayFJ-10" value="Authority" style="swimlane;fontStyle=0;childLayout=stackLayout;horizontal=1;startSize=26;fillColor=none;horizontalStack=0;resizeParent=1;resizeParentMax=0;resizeLast=0;collapsible=1;marginBottom=0;" parent="1" vertex="1">
          <mxGeometry x="80" y="360" width="300" height="232" as="geometry" />
        </mxCell>
        <mxCell id="U_WAIAHPmic2r2tjayFJ-11" value="private name: String" style="text;strokeColor=none;fillColor=none;align=left;verticalAlign=top;spacingLeft=4;spacingRight=4;overflow=hidden;rotatable=0;points=[[0,0.5],[1,0.5]];portConstraint=eastwest;" parent="U_WAIAHPmic2r2tjayFJ-10" vertex="1">
          <mxGeometry y="26" width="300" height="26" as="geometry" />
        </mxCell>
        <mxCell id="U_WAIAHPmic2r2tjayFJ-24" value="" style="line;strokeWidth=1;fillColor=none;align=left;verticalAlign=middle;spacingTop=-1;spacingLeft=3;spacingRight=3;rotatable=0;labelPosition=right;points=[];portConstraint=eastwest;strokeColor=inherit;" parent="U_WAIAHPmic2r2tjayFJ-10" vertex="1">
          <mxGeometry y="52" width="300" height="8" as="geometry" />
        </mxCell>
        <mxCell id="U_WAIAHPmic2r2tjayFJ-36" value="public  Authority(String name): constructor" style="text;strokeColor=none;fillColor=none;align=left;verticalAlign=top;spacingLeft=4;spacingRight=4;overflow=hidden;rotatable=0;points=[[0,0.5],[1,0.5]];portConstraint=eastwest;" parent="U_WAIAHPmic2r2tjayFJ-10" vertex="1">
          <mxGeometry y="60" width="300" height="26" as="geometry" />
        </mxCell>
        <mxCell id="U_WAIAHPmic2r2tjayFJ-38" value="" style="line;strokeWidth=1;fillColor=none;align=left;verticalAlign=middle;spacingTop=-1;spacingLeft=3;spacingRight=3;rotatable=0;labelPosition=right;points=[];portConstraint=eastwest;strokeColor=inherit;" parent="U_WAIAHPmic2r2tjayFJ-10" vertex="1">
          <mxGeometry y="86" width="300" height="8" as="geometry" />
        </mxCell>
        <mxCell id="U_WAIAHPmic2r2tjayFJ-17" value="public getName: String" style="text;strokeColor=none;fillColor=none;align=left;verticalAlign=top;spacingLeft=4;spacingRight=4;overflow=hidden;rotatable=0;points=[[0,0.5],[1,0.5]];portConstraint=eastwest;" parent="U_WAIAHPmic2r2tjayFJ-10" vertex="1">
          <mxGeometry y="94" width="300" height="26" as="geometry" />
        </mxCell>
        <mxCell id="U_WAIAHPmic2r2tjayFJ-25" value="public  setName(String): void" style="text;strokeColor=none;fillColor=none;align=left;verticalAlign=top;spacingLeft=4;spacingRight=4;overflow=hidden;rotatable=0;points=[[0,0.5],[1,0.5]];portConstraint=eastwest;" parent="U_WAIAHPmic2r2tjayFJ-10" vertex="1">
          <mxGeometry y="120" width="300" height="26" as="geometry" />
        </mxCell>
        <mxCell id="U_WAIAHPmic2r2tjayFJ-33" value="" style="line;strokeWidth=1;fillColor=none;align=left;verticalAlign=middle;spacingTop=-1;spacingLeft=3;spacingRight=3;rotatable=0;labelPosition=right;points=[];portConstraint=eastwest;strokeColor=inherit;" parent="U_WAIAHPmic2r2tjayFJ-10" vertex="1">
          <mxGeometry y="146" width="300" height="8" as="geometry" />
        </mxCell>
        <mxCell id="U_WAIAHPmic2r2tjayFJ-32" value="public  equals: boolean (@Override)" style="text;strokeColor=none;fillColor=none;align=left;verticalAlign=top;spacingLeft=4;spacingRight=4;overflow=hidden;rotatable=0;points=[[0,0.5],[1,0.5]];portConstraint=eastwest;" parent="U_WAIAHPmic2r2tjayFJ-10" vertex="1">
          <mxGeometry y="154" width="300" height="26" as="geometry" />
        </mxCell>
        <mxCell id="U_WAIAHPmic2r2tjayFJ-31" value="public  hashCode: int (@Override)" style="text;strokeColor=none;fillColor=none;align=left;verticalAlign=top;spacingLeft=4;spacingRight=4;overflow=hidden;rotatable=0;points=[[0,0.5],[1,0.5]];portConstraint=eastwest;" parent="U_WAIAHPmic2r2tjayFJ-10" vertex="1">
          <mxGeometry y="180" width="300" height="26" as="geometry" />
        </mxCell>
        <mxCell id="U_WAIAHPmic2r2tjayFJ-13" value="public  toString(): String (@Override)" style="text;strokeColor=none;fillColor=none;align=left;verticalAlign=top;spacingLeft=4;spacingRight=4;overflow=hidden;rotatable=0;points=[[0,0.5],[1,0.5]];portConstraint=eastwest;" parent="U_WAIAHPmic2r2tjayFJ-10" vertex="1">
          <mxGeometry y="206" width="300" height="26" as="geometry" />
        </mxCell>
        <mxCell id="lX5vusj-dG1wEB21UhwQ-1" value="LoginDTO" style="swimlane;fontStyle=0;childLayout=stackLayout;horizontal=1;startSize=26;fillColor=none;horizontalStack=0;resizeParent=1;resizeParentMax=0;resizeLast=0;collapsible=1;marginBottom=0;" parent="1" vertex="1">
          <mxGeometry x="1320" y="360" width="300" height="232" as="geometry" />
        </mxCell>
        <mxCell id="lX5vusj-dG1wEB21UhwQ-2" value="private username: String" style="text;strokeColor=none;fillColor=none;align=left;verticalAlign=top;spacingLeft=4;spacingRight=4;overflow=hidden;rotatable=0;points=[[0,0.5],[1,0.5]];portConstraint=eastwest;" parent="lX5vusj-dG1wEB21UhwQ-1" vertex="1">
          <mxGeometry y="26" width="300" height="26" as="geometry" />
        </mxCell>
        <mxCell id="lX5vusj-dG1wEB21UhwQ-3" value="private  password: String" style="text;strokeColor=none;fillColor=none;align=left;verticalAlign=top;spacingLeft=4;spacingRight=4;overflow=hidden;rotatable=0;points=[[0,0.5],[1,0.5]];portConstraint=eastwest;" parent="lX5vusj-dG1wEB21UhwQ-1" vertex="1">
          <mxGeometry y="52" width="300" height="26" as="geometry" />
        </mxCell>
        <mxCell id="lX5vusj-dG1wEB21UhwQ-5" value="" style="line;strokeWidth=1;fillColor=none;align=left;verticalAlign=middle;spacingTop=-1;spacingLeft=3;spacingRight=3;rotatable=0;labelPosition=right;points=[];portConstraint=eastwest;strokeColor=inherit;" parent="lX5vusj-dG1wEB21UhwQ-1" vertex="1">
          <mxGeometry y="78" width="300" height="8" as="geometry" />
        </mxCell>
        <mxCell id="lX5vusj-dG1wEB21UhwQ-8" value="" style="line;strokeWidth=1;fillColor=none;align=left;verticalAlign=middle;spacingTop=-1;spacingLeft=3;spacingRight=3;rotatable=0;labelPosition=right;points=[];portConstraint=eastwest;strokeColor=inherit;" parent="lX5vusj-dG1wEB21UhwQ-1" vertex="1">
          <mxGeometry y="86" width="300" height="8" as="geometry" />
        </mxCell>
        <mxCell id="lX5vusj-dG1wEB21UhwQ-9" value="public getUserName: String" style="text;strokeColor=none;fillColor=none;align=left;verticalAlign=top;spacingLeft=4;spacingRight=4;overflow=hidden;rotatable=0;points=[[0,0.5],[1,0.5]];portConstraint=eastwest;" parent="lX5vusj-dG1wEB21UhwQ-1" vertex="1">
          <mxGeometry y="94" width="300" height="26" as="geometry" />
        </mxCell>
        <mxCell id="lX5vusj-dG1wEB21UhwQ-10" value="public  setUserName(String): void" style="text;strokeColor=none;fillColor=none;align=left;verticalAlign=top;spacingLeft=4;spacingRight=4;overflow=hidden;rotatable=0;points=[[0,0.5],[1,0.5]];portConstraint=eastwest;" parent="lX5vusj-dG1wEB21UhwQ-1" vertex="1">
          <mxGeometry y="120" width="300" height="26" as="geometry" />
        </mxCell>
        <mxCell id="lX5vusj-dG1wEB21UhwQ-11" value="public  getPassword: String" style="text;strokeColor=none;fillColor=none;align=left;verticalAlign=top;spacingLeft=4;spacingRight=4;overflow=hidden;rotatable=0;points=[[0,0.5],[1,0.5]];portConstraint=eastwest;" parent="lX5vusj-dG1wEB21UhwQ-1" vertex="1">
          <mxGeometry y="146" width="300" height="26" as="geometry" />
        </mxCell>
        <mxCell id="lX5vusj-dG1wEB21UhwQ-12" value="public  setPassword(String): void" style="text;strokeColor=none;fillColor=none;align=left;verticalAlign=top;spacingLeft=4;spacingRight=4;overflow=hidden;rotatable=0;points=[[0,0.5],[1,0.5]];portConstraint=eastwest;" parent="lX5vusj-dG1wEB21UhwQ-1" vertex="1">
          <mxGeometry y="172" width="300" height="26" as="geometry" />
        </mxCell>
        <mxCell id="lX5vusj-dG1wEB21UhwQ-19" value="" style="line;strokeWidth=1;fillColor=none;align=left;verticalAlign=middle;spacingTop=-1;spacingLeft=3;spacingRight=3;rotatable=0;labelPosition=right;points=[];portConstraint=eastwest;strokeColor=inherit;" parent="lX5vusj-dG1wEB21UhwQ-1" vertex="1">
          <mxGeometry y="198" width="300" height="8" as="geometry" />
        </mxCell>
        <mxCell id="lX5vusj-dG1wEB21UhwQ-20" value="public  toString: String  (@Override)" style="text;strokeColor=none;fillColor=none;align=left;verticalAlign=top;spacingLeft=4;spacingRight=4;overflow=hidden;rotatable=0;points=[[0,0.5],[1,0.5]];portConstraint=eastwest;" parent="lX5vusj-dG1wEB21UhwQ-1" vertex="1">
          <mxGeometry y="206" width="300" height="26" as="geometry" />
        </mxCell>
        <mxCell id="lX5vusj-dG1wEB21UhwQ-23" value="User" style="swimlane;fontStyle=0;childLayout=stackLayout;horizontal=1;startSize=26;fillColor=none;horizontalStack=0;resizeParent=1;resizeParentMax=0;resizeLast=0;collapsible=1;marginBottom=0;" parent="1" vertex="1">
          <mxGeometry x="460" y="330" width="300" height="580" as="geometry" />
        </mxCell>
        <mxCell id="lX5vusj-dG1wEB21UhwQ-24" value="private id: int" style="text;strokeColor=none;fillColor=none;align=left;verticalAlign=top;spacingLeft=4;spacingRight=4;overflow=hidden;rotatable=0;points=[[0,0.5],[1,0.5]];portConstraint=eastwest;" parent="lX5vusj-dG1wEB21UhwQ-23" vertex="1">
          <mxGeometry y="26" width="300" height="26" as="geometry" />
        </mxCell>
        <mxCell id="lX5vusj-dG1wEB21UhwQ-58" value="private username: String" style="text;strokeColor=none;fillColor=none;align=left;verticalAlign=top;spacingLeft=4;spacingRight=4;overflow=hidden;rotatable=0;points=[[0,0.5],[1,0.5]];portConstraint=eastwest;" parent="lX5vusj-dG1wEB21UhwQ-23" vertex="1">
          <mxGeometry y="52" width="300" height="26" as="geometry" />
        </mxCell>
        <mxCell id="lX5vusj-dG1wEB21UhwQ-59" value="private password: String" style="text;strokeColor=none;fillColor=none;align=left;verticalAlign=top;spacingLeft=4;spacingRight=4;overflow=hidden;rotatable=0;points=[[0,0.5],[1,0.5]];portConstraint=eastwest;" parent="lX5vusj-dG1wEB21UhwQ-23" vertex="1">
          <mxGeometry y="78" width="300" height="26" as="geometry" />
        </mxCell>
        <mxCell id="lX5vusj-dG1wEB21UhwQ-60" value="private activated: boolean" style="text;strokeColor=none;fillColor=none;align=left;verticalAlign=top;spacingLeft=4;spacingRight=4;overflow=hidden;rotatable=0;points=[[0,0.5],[1,0.5]];portConstraint=eastwest;" parent="lX5vusj-dG1wEB21UhwQ-23" vertex="1">
          <mxGeometry y="104" width="300" height="26" as="geometry" />
        </mxCell>
        <mxCell id="lX5vusj-dG1wEB21UhwQ-61" value="private Authority: Set&lt;Authority&gt;" style="text;strokeColor=none;fillColor=none;align=left;verticalAlign=top;spacingLeft=4;spacingRight=4;overflow=hidden;rotatable=0;points=[[0,0.5],[1,0.5]];portConstraint=eastwest;" parent="lX5vusj-dG1wEB21UhwQ-23" vertex="1">
          <mxGeometry y="130" width="300" height="26" as="geometry" />
        </mxCell>
        <mxCell id="lX5vusj-dG1wEB21UhwQ-25" value="" style="line;strokeWidth=1;fillColor=none;align=left;verticalAlign=middle;spacingTop=-1;spacingLeft=3;spacingRight=3;rotatable=0;labelPosition=right;points=[];portConstraint=eastwest;strokeColor=inherit;" parent="lX5vusj-dG1wEB21UhwQ-23" vertex="1">
          <mxGeometry y="156" width="300" height="8" as="geometry" />
        </mxCell>
        <mxCell id="lX5vusj-dG1wEB21UhwQ-26" value="public  User(int id, String username, &#xa;String password, String Authorities): constructor" style="text;strokeColor=none;fillColor=none;align=left;verticalAlign=top;spacingLeft=4;spacingRight=4;overflow=hidden;rotatable=0;points=[[0,0.5],[1,0.5]];portConstraint=eastwest;" parent="lX5vusj-dG1wEB21UhwQ-23" vertex="1">
          <mxGeometry y="164" width="300" height="36" as="geometry" />
        </mxCell>
        <mxCell id="lX5vusj-dG1wEB21UhwQ-28" value="" style="line;strokeWidth=1;fillColor=none;align=left;verticalAlign=middle;spacingTop=-1;spacingLeft=3;spacingRight=3;rotatable=0;labelPosition=right;points=[];portConstraint=eastwest;strokeColor=inherit;" parent="lX5vusj-dG1wEB21UhwQ-23" vertex="1">
          <mxGeometry y="200" width="300" height="8" as="geometry" />
        </mxCell>
        <mxCell id="lX5vusj-dG1wEB21UhwQ-29" value="public getId: int" style="text;strokeColor=none;fillColor=none;align=left;verticalAlign=top;spacingLeft=4;spacingRight=4;overflow=hidden;rotatable=0;points=[[0,0.5],[1,0.5]];portConstraint=eastwest;" parent="lX5vusj-dG1wEB21UhwQ-23" vertex="1">
          <mxGeometry y="208" width="300" height="26" as="geometry" />
        </mxCell>
        <mxCell id="lX5vusj-dG1wEB21UhwQ-30" value="public  setId(int id): void" style="text;strokeColor=none;fillColor=none;align=left;verticalAlign=top;spacingLeft=4;spacingRight=4;overflow=hidden;rotatable=0;points=[[0,0.5],[1,0.5]];portConstraint=eastwest;" parent="lX5vusj-dG1wEB21UhwQ-23" vertex="1">
          <mxGeometry y="234" width="300" height="26" as="geometry" />
        </mxCell>
        <mxCell id="lX5vusj-dG1wEB21UhwQ-66" value="public getUserName: String" style="text;strokeColor=none;fillColor=none;align=left;verticalAlign=top;spacingLeft=4;spacingRight=4;overflow=hidden;rotatable=0;points=[[0,0.5],[1,0.5]];portConstraint=eastwest;" parent="lX5vusj-dG1wEB21UhwQ-23" vertex="1">
          <mxGeometry y="260" width="300" height="26" as="geometry" />
        </mxCell>
        <mxCell id="lX5vusj-dG1wEB21UhwQ-69" value="public  setUserName(String userName): void" style="text;strokeColor=none;fillColor=none;align=left;verticalAlign=top;spacingLeft=4;spacingRight=4;overflow=hidden;rotatable=0;points=[[0,0.5],[1,0.5]];portConstraint=eastwest;" parent="lX5vusj-dG1wEB21UhwQ-23" vertex="1">
          <mxGeometry y="286" width="300" height="26" as="geometry" />
        </mxCell>
        <mxCell id="lX5vusj-dG1wEB21UhwQ-68" value="public getPassword: String" style="text;strokeColor=none;fillColor=none;align=left;verticalAlign=top;spacingLeft=4;spacingRight=4;overflow=hidden;rotatable=0;points=[[0,0.5],[1,0.5]];portConstraint=eastwest;" parent="lX5vusj-dG1wEB21UhwQ-23" vertex="1">
          <mxGeometry y="312" width="300" height="26" as="geometry" />
        </mxCell>
        <mxCell id="lX5vusj-dG1wEB21UhwQ-67" value="public  setPassword(String password): void" style="text;strokeColor=none;fillColor=none;align=left;verticalAlign=top;spacingLeft=4;spacingRight=4;overflow=hidden;rotatable=0;points=[[0,0.5],[1,0.5]];portConstraint=eastwest;" parent="lX5vusj-dG1wEB21UhwQ-23" vertex="1">
          <mxGeometry y="338" width="300" height="26" as="geometry" />
        </mxCell>
        <mxCell id="lX5vusj-dG1wEB21UhwQ-62" value="public getIsActivated: boolean" style="text;strokeColor=none;fillColor=none;align=left;verticalAlign=top;spacingLeft=4;spacingRight=4;overflow=hidden;rotatable=0;points=[[0,0.5],[1,0.5]];portConstraint=eastwest;" parent="lX5vusj-dG1wEB21UhwQ-23" vertex="1">
          <mxGeometry y="364" width="300" height="26" as="geometry" />
        </mxCell>
        <mxCell id="lX5vusj-dG1wEB21UhwQ-65" value="public  setIsActivated(boolean isActivated): void" style="text;strokeColor=none;fillColor=none;align=left;verticalAlign=top;spacingLeft=4;spacingRight=4;overflow=hidden;rotatable=0;points=[[0,0.5],[1,0.5]];portConstraint=eastwest;" parent="lX5vusj-dG1wEB21UhwQ-23" vertex="1">
          <mxGeometry y="390" width="300" height="26" as="geometry" />
        </mxCell>
        <mxCell id="lX5vusj-dG1wEB21UhwQ-64" value="public getAuthorities: Set&lt;Authority&gt;" style="text;strokeColor=none;fillColor=none;align=left;verticalAlign=top;spacingLeft=4;spacingRight=4;overflow=hidden;rotatable=0;points=[[0,0.5],[1,0.5]];portConstraint=eastwest;" parent="lX5vusj-dG1wEB21UhwQ-23" vertex="1">
          <mxGeometry y="416" width="300" height="26" as="geometry" />
        </mxCell>
        <mxCell id="lX5vusj-dG1wEB21UhwQ-63" value="public  setAuthorities(Set&lt;Authority&gt; authorities): void" style="text;strokeColor=none;fillColor=none;align=left;verticalAlign=top;spacingLeft=4;spacingRight=4;overflow=hidden;rotatable=0;points=[[0,0.5],[1,0.5]];portConstraint=eastwest;" parent="lX5vusj-dG1wEB21UhwQ-23" vertex="1">
          <mxGeometry y="442" width="300" height="26" as="geometry" />
        </mxCell>
        <mxCell id="lX5vusj-dG1wEB21UhwQ-70" value="public  setAuthorities(String authorities): void" style="text;strokeColor=none;fillColor=none;align=left;verticalAlign=top;spacingLeft=4;spacingRight=4;overflow=hidden;rotatable=0;points=[[0,0.5],[1,0.5]];portConstraint=eastwest;" parent="lX5vusj-dG1wEB21UhwQ-23" vertex="1">
          <mxGeometry y="468" width="300" height="26" as="geometry" />
        </mxCell>
        <mxCell id="lX5vusj-dG1wEB21UhwQ-31" value="" style="line;strokeWidth=1;fillColor=none;align=left;verticalAlign=middle;spacingTop=-1;spacingLeft=3;spacingRight=3;rotatable=0;labelPosition=right;points=[];portConstraint=eastwest;strokeColor=inherit;" parent="lX5vusj-dG1wEB21UhwQ-23" vertex="1">
          <mxGeometry y="494" width="300" height="8" as="geometry" />
        </mxCell>
        <mxCell id="lX5vusj-dG1wEB21UhwQ-32" value="public  equals: boolean" style="text;strokeColor=none;fillColor=none;align=left;verticalAlign=top;spacingLeft=4;spacingRight=4;overflow=hidden;rotatable=0;points=[[0,0.5],[1,0.5]];portConstraint=eastwest;" parent="lX5vusj-dG1wEB21UhwQ-23" vertex="1">
          <mxGeometry y="502" width="300" height="26" as="geometry" />
        </mxCell>
        <mxCell id="lX5vusj-dG1wEB21UhwQ-33" value="public  hashCode: int" style="text;strokeColor=none;fillColor=none;align=left;verticalAlign=top;spacingLeft=4;spacingRight=4;overflow=hidden;rotatable=0;points=[[0,0.5],[1,0.5]];portConstraint=eastwest;" parent="lX5vusj-dG1wEB21UhwQ-23" vertex="1">
          <mxGeometry y="528" width="300" height="26" as="geometry" />
        </mxCell>
        <mxCell id="lX5vusj-dG1wEB21UhwQ-34" value="public  toString(): String" style="text;strokeColor=none;fillColor=none;align=left;verticalAlign=top;spacingLeft=4;spacingRight=4;overflow=hidden;rotatable=0;points=[[0,0.5],[1,0.5]];portConstraint=eastwest;" parent="lX5vusj-dG1wEB21UhwQ-23" vertex="1">
          <mxGeometry y="554" width="300" height="26" as="geometry" />
        </mxCell>
        <mxCell id="lX5vusj-dG1wEB21UhwQ-35" value="LoginResponseDTO" style="swimlane;fontStyle=0;childLayout=stackLayout;horizontal=1;startSize=26;fillColor=none;horizontalStack=0;resizeParent=1;resizeParentMax=0;resizeLast=0;collapsible=1;marginBottom=0;" parent="1" vertex="1">
          <mxGeometry x="840" y="500" width="390" height="232" as="geometry" />
        </mxCell>
        <mxCell id="lX5vusj-dG1wEB21UhwQ-36" value="private token: String" style="text;strokeColor=none;fillColor=none;align=left;verticalAlign=top;spacingLeft=4;spacingRight=4;overflow=hidden;rotatable=0;points=[[0,0.5],[1,0.5]];portConstraint=eastwest;" parent="lX5vusj-dG1wEB21UhwQ-35" vertex="1">
          <mxGeometry y="26" width="390" height="26" as="geometry" />
        </mxCell>
        <mxCell id="lX5vusj-dG1wEB21UhwQ-37" value="private user: User" style="text;strokeColor=none;fillColor=none;align=left;verticalAlign=top;spacingLeft=4;spacingRight=4;overflow=hidden;rotatable=0;points=[[0,0.5],[1,0.5]];portConstraint=eastwest;" parent="lX5vusj-dG1wEB21UhwQ-35" vertex="1">
          <mxGeometry y="52" width="390" height="26" as="geometry" />
        </mxCell>
        <mxCell id="lX5vusj-dG1wEB21UhwQ-38" value="" style="line;strokeWidth=1;fillColor=none;align=left;verticalAlign=middle;spacingTop=-1;spacingLeft=3;spacingRight=3;rotatable=0;labelPosition=right;points=[];portConstraint=eastwest;strokeColor=inherit;" parent="lX5vusj-dG1wEB21UhwQ-35" vertex="1">
          <mxGeometry y="78" width="390" height="8" as="geometry" />
        </mxCell>
        <mxCell id="lX5vusj-dG1wEB21UhwQ-45" value="public  LoginResponseDto(String token, User user): Constructor" style="text;strokeColor=none;fillColor=none;align=left;verticalAlign=top;spacingLeft=4;spacingRight=4;overflow=hidden;rotatable=0;points=[[0,0.5],[1,0.5]];portConstraint=eastwest;" parent="lX5vusj-dG1wEB21UhwQ-35" vertex="1">
          <mxGeometry y="86" width="390" height="26" as="geometry" />
        </mxCell>
        <mxCell id="lX5vusj-dG1wEB21UhwQ-39" value="" style="line;strokeWidth=1;fillColor=none;align=left;verticalAlign=middle;spacingTop=-1;spacingLeft=3;spacingRight=3;rotatable=0;labelPosition=right;points=[];portConstraint=eastwest;strokeColor=inherit;" parent="lX5vusj-dG1wEB21UhwQ-35" vertex="1">
          <mxGeometry y="112" width="390" height="8" as="geometry" />
        </mxCell>
        <mxCell id="lX5vusj-dG1wEB21UhwQ-46" value="public getToken(): String" style="text;strokeColor=none;fillColor=none;align=left;verticalAlign=top;spacingLeft=4;spacingRight=4;overflow=hidden;rotatable=0;points=[[0,0.5],[1,0.5]];portConstraint=eastwest;" parent="lX5vusj-dG1wEB21UhwQ-35" vertex="1">
          <mxGeometry y="120" width="390" height="26" as="geometry" />
        </mxCell>
        <mxCell id="lX5vusj-dG1wEB21UhwQ-40" value="public setToken(String token): void" style="text;strokeColor=none;fillColor=none;align=left;verticalAlign=top;spacingLeft=4;spacingRight=4;overflow=hidden;rotatable=0;points=[[0,0.5],[1,0.5]];portConstraint=eastwest;" parent="lX5vusj-dG1wEB21UhwQ-35" vertex="1">
          <mxGeometry y="146" width="390" height="26" as="geometry" />
        </mxCell>
        <mxCell id="lX5vusj-dG1wEB21UhwQ-41" value="public  getUser(): User" style="text;strokeColor=none;fillColor=none;align=left;verticalAlign=top;spacingLeft=4;spacingRight=4;overflow=hidden;rotatable=0;points=[[0,0.5],[1,0.5]];portConstraint=eastwest;" parent="lX5vusj-dG1wEB21UhwQ-35" vertex="1">
          <mxGeometry y="172" width="390" height="26" as="geometry" />
        </mxCell>
        <mxCell id="lX5vusj-dG1wEB21UhwQ-43" value="public  setUser(User): void" style="text;strokeColor=none;fillColor=none;align=left;verticalAlign=top;spacingLeft=4;spacingRight=4;overflow=hidden;rotatable=0;points=[[0,0.5],[1,0.5]];portConstraint=eastwest;" parent="lX5vusj-dG1wEB21UhwQ-35" vertex="1">
          <mxGeometry y="198" width="390" height="26" as="geometry" />
        </mxCell>
        <mxCell id="lX5vusj-dG1wEB21UhwQ-44" value="" style="line;strokeWidth=1;fillColor=none;align=left;verticalAlign=middle;spacingTop=-1;spacingLeft=3;spacingRight=3;rotatable=0;labelPosition=right;points=[];portConstraint=eastwest;strokeColor=inherit;" parent="lX5vusj-dG1wEB21UhwQ-35" vertex="1">
          <mxGeometry y="224" width="390" height="8" as="geometry" />
        </mxCell>
        <mxCell id="lX5vusj-dG1wEB21UhwQ-47" value="RegisterUserDto" style="swimlane;fontStyle=0;childLayout=stackLayout;horizontal=1;startSize=26;fillColor=none;horizontalStack=0;resizeParent=1;resizeParentMax=0;resizeLast=0;collapsible=1;marginBottom=0;" parent="1" vertex="1">
          <mxGeometry x="1290" y="750" width="390" height="206" as="geometry" />
        </mxCell>
        <mxCell id="lX5vusj-dG1wEB21UhwQ-48" value="private username: String (@NotEmpty)" style="text;strokeColor=none;fillColor=none;align=left;verticalAlign=top;spacingLeft=4;spacingRight=4;overflow=hidden;rotatable=0;points=[[0,0.5],[1,0.5]];portConstraint=eastwest;" parent="lX5vusj-dG1wEB21UhwQ-47" vertex="1">
          <mxGeometry y="26" width="390" height="26" as="geometry" />
        </mxCell>
        <mxCell id="lX5vusj-dG1wEB21UhwQ-49" value="private password: String (@NotEmpty)" style="text;strokeColor=none;fillColor=none;align=left;verticalAlign=top;spacingLeft=4;spacingRight=4;overflow=hidden;rotatable=0;points=[[0,0.5],[1,0.5]];portConstraint=eastwest;" parent="lX5vusj-dG1wEB21UhwQ-47" vertex="1">
          <mxGeometry y="52" width="390" height="26" as="geometry" />
        </mxCell>
        <mxCell id="lX5vusj-dG1wEB21UhwQ-50" value="" style="line;strokeWidth=1;fillColor=none;align=left;verticalAlign=middle;spacingTop=-1;spacingLeft=3;spacingRight=3;rotatable=0;labelPosition=right;points=[];portConstraint=eastwest;strokeColor=inherit;" parent="lX5vusj-dG1wEB21UhwQ-47" vertex="1">
          <mxGeometry y="78" width="390" height="8" as="geometry" />
        </mxCell>
        <mxCell id="lX5vusj-dG1wEB21UhwQ-52" value="" style="line;strokeWidth=1;fillColor=none;align=left;verticalAlign=middle;spacingTop=-1;spacingLeft=3;spacingRight=3;rotatable=0;labelPosition=right;points=[];portConstraint=eastwest;strokeColor=inherit;" parent="lX5vusj-dG1wEB21UhwQ-47" vertex="1">
          <mxGeometry y="86" width="390" height="8" as="geometry" />
        </mxCell>
        <mxCell id="lX5vusj-dG1wEB21UhwQ-53" value="public getUserName(): String" style="text;strokeColor=none;fillColor=none;align=left;verticalAlign=top;spacingLeft=4;spacingRight=4;overflow=hidden;rotatable=0;points=[[0,0.5],[1,0.5]];portConstraint=eastwest;" parent="lX5vusj-dG1wEB21UhwQ-47" vertex="1">
          <mxGeometry y="94" width="390" height="26" as="geometry" />
        </mxCell>
        <mxCell id="lX5vusj-dG1wEB21UhwQ-54" value="public setUserName(String token): void" style="text;strokeColor=none;fillColor=none;align=left;verticalAlign=top;spacingLeft=4;spacingRight=4;overflow=hidden;rotatable=0;points=[[0,0.5],[1,0.5]];portConstraint=eastwest;" parent="lX5vusj-dG1wEB21UhwQ-47" vertex="1">
          <mxGeometry y="120" width="390" height="26" as="geometry" />
        </mxCell>
        <mxCell id="lX5vusj-dG1wEB21UhwQ-55" value="public  getPassword(): String" style="text;strokeColor=none;fillColor=none;align=left;verticalAlign=top;spacingLeft=4;spacingRight=4;overflow=hidden;rotatable=0;points=[[0,0.5],[1,0.5]];portConstraint=eastwest;" parent="lX5vusj-dG1wEB21UhwQ-47" vertex="1">
          <mxGeometry y="146" width="390" height="26" as="geometry" />
        </mxCell>
        <mxCell id="lX5vusj-dG1wEB21UhwQ-56" value="public  setPassword(String): void" style="text;strokeColor=none;fillColor=none;align=left;verticalAlign=top;spacingLeft=4;spacingRight=4;overflow=hidden;rotatable=0;points=[[0,0.5],[1,0.5]];portConstraint=eastwest;" parent="lX5vusj-dG1wEB21UhwQ-47" vertex="1">
          <mxGeometry y="172" width="390" height="26" as="geometry" />
        </mxCell>
        <mxCell id="lX5vusj-dG1wEB21UhwQ-57" value="" style="line;strokeWidth=1;fillColor=none;align=left;verticalAlign=middle;spacingTop=-1;spacingLeft=3;spacingRight=3;rotatable=0;labelPosition=right;points=[];portConstraint=eastwest;strokeColor=inherit;" parent="lX5vusj-dG1wEB21UhwQ-47" vertex="1">
          <mxGeometry y="198" width="390" height="8" as="geometry" />
        </mxCell>
        <mxCell id="lX5vusj-dG1wEB21UhwQ-75" value="1" style="text;html=1;strokeColor=none;fillColor=none;align=center;verticalAlign=middle;whiteSpace=wrap;rounded=0;" parent="1" vertex="1">
          <mxGeometry x="420" y="450" width="60" height="30" as="geometry" />
        </mxCell>
        <mxCell id="lX5vusj-dG1wEB21UhwQ-76" value="*" style="text;html=1;strokeColor=none;fillColor=none;align=center;verticalAlign=middle;whiteSpace=wrap;rounded=0;" parent="1" vertex="1">
          <mxGeometry x="360" y="450" width="60" height="30" as="geometry" />
        </mxCell>
        <mxCell id="lX5vusj-dG1wEB21UhwQ-80" value="" style="endArrow=none;dashed=1;html=1;dashPattern=1 3;strokeWidth=2;rounded=0;entryX=0;entryY=-0.115;entryDx=0;entryDy=0;entryPerimeter=0;exitX=1;exitY=0.5;exitDx=0;exitDy=0;" parent="1" source="lX5vusj-dG1wEB21UhwQ-45" target="lX5vusj-dG1wEB21UhwQ-9" edge="1">
          <mxGeometry width="50" height="50" relative="1" as="geometry">
            <mxPoint x="1020" y="680" as="sourcePoint" />
            <mxPoint x="1070" y="630" as="targetPoint" />
          </mxGeometry>
        </mxCell>
        <mxCell id="lX5vusj-dG1wEB21UhwQ-81" value="" style="endArrow=none;dashed=1;html=1;dashPattern=1 3;strokeWidth=2;rounded=0;entryX=0;entryY=0.25;entryDx=0;entryDy=0;entryPerimeter=0;exitX=1;exitY=0.5;exitDx=0;exitDy=0;" parent="1" source="lX5vusj-dG1wEB21UhwQ-45" target="lX5vusj-dG1wEB21UhwQ-50" edge="1">
          <mxGeometry width="50" height="50" relative="1" as="geometry">
            <mxPoint x="1020" y="680" as="sourcePoint" />
            <mxPoint x="1070" y="630" as="targetPoint" />
          </mxGeometry>
        </mxCell>
        <mxCell id="lX5vusj-dG1wEB21UhwQ-84" value="1" style="text;html=1;strokeColor=none;fillColor=none;align=center;verticalAlign=middle;whiteSpace=wrap;rounded=0;" parent="1" vertex="1">
          <mxGeometry x="800" y="480" width="60" height="30" as="geometry" />
        </mxCell>
        <mxCell id="lX5vusj-dG1wEB21UhwQ-85" value="1" style="text;html=1;strokeColor=none;fillColor=none;align=center;verticalAlign=middle;whiteSpace=wrap;rounded=0;" parent="1" vertex="1">
          <mxGeometry x="740" y="480" width="60" height="30" as="geometry" />
        </mxCell>
        <mxCell id="lX5vusj-dG1wEB21UhwQ-87" value="" style="endArrow=classic;html=1;rounded=0;" parent="1" edge="1">
          <mxGeometry width="50" height="50" relative="1" as="geometry">
            <mxPoint x="840" y="520" as="sourcePoint" />
            <mxPoint x="760" y="520" as="targetPoint" />
          </mxGeometry>
        </mxCell>
        <mxCell id="lX5vusj-dG1wEB21UhwQ-88" value="" style="endArrow=classic;html=1;rounded=0;" parent="1" edge="1">
          <mxGeometry width="50" height="50" relative="1" as="geometry">
            <mxPoint x="458" y="475.58" as="sourcePoint" />
            <mxPoint x="378" y="475.58" as="targetPoint" />
          </mxGeometry>
        </mxCell>
        <mxCell id="V-SVZIKTJ_hNDO1ifQT7-1" value="&lt;h1&gt;This is a Class Diagram. 1 Diagram per Domain -&amp;nbsp;&lt;/h1&gt;&lt;div&gt;1 For Security&amp;nbsp; because that should be standardized.&lt;/div&gt;&lt;div&gt;1 For the Tenmo Server Application.&lt;/div&gt;&lt;div&gt;There would be 1 More if we were creating a separate Front End Application.&lt;/div&gt;" style="text;html=1;strokeColor=none;fillColor=none;spacing=5;spacingTop=-20;whiteSpace=wrap;overflow=hidden;rounded=0;" parent="1" vertex="1">
          <mxGeometry x="40" y="10" width="730" height="120" as="geometry" />
        </mxCell>
      </root>
    </mxGraphModel>
  </diagram>
  <diagram id="fQz0CIQPZFFiguFYOBsQ" name="Authentication - Endpoint Design">
    <mxGraphModel grid="1" page="1" gridSize="10" guides="1" tooltips="1" connect="1" arrows="1" fold="1" pageScale="1" pageWidth="850" pageHeight="1100" math="0" shadow="0">
      <root>
        <mxCell id="0" />
        <mxCell id="1" parent="0" />
        <mxCell id="_h8vEUG_jbtf5MWPAPEK-1" value="&lt;h1&gt;This is an Endpoint Hierarchy Diagram. 1 Diagram per Controller.&lt;/h1&gt;" style="text;html=1;strokeColor=none;fillColor=none;spacing=5;spacingTop=-20;whiteSpace=wrap;overflow=hidden;rounded=0;" vertex="1" parent="1">
          <mxGeometry x="40" y="10" width="770" height="120" as="geometry" />
        </mxCell>
        <mxCell id="MUOTZUyUIGGL6IDTMa0I-1" value="/user" style="rounded=1;whiteSpace=wrap;html=1;" vertex="1" parent="1">
          <mxGeometry x="340" y="200" width="120" height="60" as="geometry" />
        </mxCell>
        <mxCell id="MUOTZUyUIGGL6IDTMa0I-2" value="&lt;b style=&quot;font-weight:normal;&quot; id=&quot;docs-internal-guid-a7416cc5-7fff-1fec-84a1-b2f62d0fceee&quot;&gt;&lt;span style=&quot;font-size: 17pt; font-family: Arial; color: rgb(0, 0, 0); background-color: transparent; font-weight: 400; font-style: normal; font-variant: normal; text-decoration: none; vertical-align: baseline;&quot;&gt;http://localhost:8080&lt;/span&gt;&lt;/b&gt;" style="text;whiteSpace=wrap;html=1;" vertex="1" parent="1">
          <mxGeometry x="290" y="160" width="240" height="50" as="geometry" />
        </mxCell>
        <mxCell id="MUOTZUyUIGGL6IDTMa0I-3" value="/login" style="rounded=1;whiteSpace=wrap;html=1;" vertex="1" parent="1">
          <mxGeometry x="180" y="310" width="120" height="60" as="geometry" />
        </mxCell>
        <mxCell id="MUOTZUyUIGGL6IDTMa0I-4" value="/register" style="rounded=1;whiteSpace=wrap;html=1;" vertex="1" parent="1">
          <mxGeometry x="510" y="310" width="120" height="60" as="geometry" />
        </mxCell>
        <mxCell id="MUOTZUyUIGGL6IDTMa0I-5" value="" style="endArrow=none;html=1;rounded=0;entryX=0;entryY=0.5;entryDx=0;entryDy=0;exitX=0.5;exitY=0;exitDx=0;exitDy=0;edgeStyle=orthogonalEdgeStyle;" edge="1" parent="1" source="MUOTZUyUIGGL6IDTMa0I-3" target="MUOTZUyUIGGL6IDTMa0I-1">
          <mxGeometry width="50" height="50" relative="1" as="geometry">
            <mxPoint x="380" y="420" as="sourcePoint" />
            <mxPoint x="430" y="370" as="targetPoint" />
          </mxGeometry>
        </mxCell>
        <mxCell id="MUOTZUyUIGGL6IDTMa0I-6" value="" style="endArrow=none;html=1;rounded=0;entryX=1;entryY=0.5;entryDx=0;entryDy=0;exitX=0.5;exitY=0;exitDx=0;exitDy=0;edgeStyle=orthogonalEdgeStyle;" edge="1" parent="1" source="MUOTZUyUIGGL6IDTMa0I-4" target="MUOTZUyUIGGL6IDTMa0I-1">
          <mxGeometry width="50" height="50" relative="1" as="geometry">
            <mxPoint x="380" y="420" as="sourcePoint" />
            <mxPoint x="430" y="370" as="targetPoint" />
          </mxGeometry>
        </mxCell>
      </root>
    </mxGraphModel>
  </diagram>
  <diagram id="bxJBYAqZWWPVyma3wsWA" name="TEnmo-ERD">
    <mxGraphModel grid="1" page="1" gridSize="10" guides="1" tooltips="1" connect="1" arrows="1" fold="1" pageScale="1" pageWidth="1100" pageHeight="850" math="0" shadow="0">
      <root>
        <mxCell id="0" />
        <mxCell id="1" parent="0" />
        <mxCell id="euz8m919Rt96ty393tWX-1" value="&lt;h1&gt;This is your Database Diagram. 1 Diagram per Project&lt;/h1&gt;" style="text;html=1;strokeColor=none;fillColor=none;spacing=5;spacingTop=-20;whiteSpace=wrap;overflow=hidden;rounded=0;" vertex="1" parent="1">
          <mxGeometry x="40" y="10" width="730" height="120" as="geometry" />
        </mxCell>
        <mxCell id="k0QeidYOlg8g_CY7iUdF-92" value="tenmo_user" style="shape=table;startSize=30;container=1;collapsible=1;childLayout=tableLayout;fixedRows=1;rowLines=0;fontStyle=1;align=center;resizeLast=1;fillColor=#b1ddf0;strokeColor=#10739e;" vertex="1" parent="1">
          <mxGeometry x="20" y="315" width="320" height="270" as="geometry" />
        </mxCell>
        <mxCell id="k0QeidYOlg8g_CY7iUdF-93" value="" style="shape=tableRow;horizontal=0;startSize=0;swimlaneHead=0;swimlaneBody=0;fillColor=none;collapsible=0;dropTarget=0;points=[[0,0.5],[1,0.5]];portConstraint=eastwest;top=0;left=0;right=0;bottom=1;" vertex="1" parent="k0QeidYOlg8g_CY7iUdF-92">
          <mxGeometry y="30" width="320" height="30" as="geometry" />
        </mxCell>
        <mxCell id="k0QeidYOlg8g_CY7iUdF-94" value="PK" style="shape=partialRectangle;connectable=0;fillColor=none;top=0;left=0;bottom=0;right=0;fontStyle=1;overflow=hidden;" vertex="1" parent="k0QeidYOlg8g_CY7iUdF-93">
          <mxGeometry width="30" height="30" as="geometry">
            <mxRectangle width="30" height="30" as="alternateBounds" />
          </mxGeometry>
        </mxCell>
        <mxCell id="k0QeidYOlg8g_CY7iUdF-95" value="user_id - serial - NOT NULL" style="shape=partialRectangle;connectable=0;fillColor=none;top=0;left=0;bottom=0;right=0;align=left;spacingLeft=6;fontStyle=5;overflow=hidden;" vertex="1" parent="k0QeidYOlg8g_CY7iUdF-93">
          <mxGeometry x="30" width="290" height="30" as="geometry">
            <mxRectangle width="290" height="30" as="alternateBounds" />
          </mxGeometry>
        </mxCell>
        <mxCell id="k0QeidYOlg8g_CY7iUdF-96" value="" style="shape=tableRow;horizontal=0;startSize=0;swimlaneHead=0;swimlaneBody=0;fillColor=none;collapsible=0;dropTarget=0;points=[[0,0.5],[1,0.5]];portConstraint=eastwest;top=0;left=0;right=0;bottom=0;" vertex="1" parent="k0QeidYOlg8g_CY7iUdF-92">
          <mxGeometry y="60" width="320" height="30" as="geometry" />
        </mxCell>
        <mxCell id="k0QeidYOlg8g_CY7iUdF-97" value="" style="shape=partialRectangle;connectable=0;fillColor=none;top=0;left=0;bottom=0;right=0;editable=1;overflow=hidden;" vertex="1" parent="k0QeidYOlg8g_CY7iUdF-96">
          <mxGeometry width="30" height="30" as="geometry">
            <mxRectangle width="30" height="30" as="alternateBounds" />
          </mxGeometry>
        </mxCell>
        <mxCell id="k0QeidYOlg8g_CY7iUdF-98" value="username - varchar(50) UNIQUE - NOT NULL" style="shape=partialRectangle;connectable=0;fillColor=none;top=0;left=0;bottom=0;right=0;align=left;spacingLeft=6;overflow=hidden;" vertex="1" parent="k0QeidYOlg8g_CY7iUdF-96">
          <mxGeometry x="30" width="290" height="30" as="geometry">
            <mxRectangle width="290" height="30" as="alternateBounds" />
          </mxGeometry>
        </mxCell>
        <mxCell id="k0QeidYOlg8g_CY7iUdF-99" value="" style="shape=tableRow;horizontal=0;startSize=0;swimlaneHead=0;swimlaneBody=0;fillColor=none;collapsible=0;dropTarget=0;points=[[0,0.5],[1,0.5]];portConstraint=eastwest;top=0;left=0;right=0;bottom=0;" vertex="1" parent="k0QeidYOlg8g_CY7iUdF-92">
          <mxGeometry y="90" width="320" height="30" as="geometry" />
        </mxCell>
        <mxCell id="k0QeidYOlg8g_CY7iUdF-100" value="" style="shape=partialRectangle;connectable=0;fillColor=none;top=0;left=0;bottom=0;right=0;editable=1;overflow=hidden;" vertex="1" parent="k0QeidYOlg8g_CY7iUdF-99">
          <mxGeometry width="30" height="30" as="geometry">
            <mxRectangle width="30" height="30" as="alternateBounds" />
          </mxGeometry>
        </mxCell>
        <mxCell id="k0QeidYOlg8g_CY7iUdF-101" value="password_hash - varchar(200) NOT NULL" style="shape=partialRectangle;connectable=0;fillColor=none;top=0;left=0;bottom=0;right=0;align=left;spacingLeft=6;overflow=hidden;" vertex="1" parent="k0QeidYOlg8g_CY7iUdF-99">
          <mxGeometry x="30" width="290" height="30" as="geometry">
            <mxRectangle width="290" height="30" as="alternateBounds" />
          </mxGeometry>
        </mxCell>
        <mxCell id="k0QeidYOlg8g_CY7iUdF-102" value="" style="shape=tableRow;horizontal=0;startSize=0;swimlaneHead=0;swimlaneBody=0;fillColor=none;collapsible=0;dropTarget=0;points=[[0,0.5],[1,0.5]];portConstraint=eastwest;top=0;left=0;right=0;bottom=0;" vertex="1" parent="k0QeidYOlg8g_CY7iUdF-92">
          <mxGeometry y="120" width="320" height="30" as="geometry" />
        </mxCell>
        <mxCell id="k0QeidYOlg8g_CY7iUdF-103" value="" style="shape=partialRectangle;connectable=0;fillColor=none;top=0;left=0;bottom=0;right=0;editable=1;overflow=hidden;" vertex="1" parent="k0QeidYOlg8g_CY7iUdF-102">
          <mxGeometry width="30" height="30" as="geometry">
            <mxRectangle width="30" height="30" as="alternateBounds" />
          </mxGeometry>
        </mxCell>
        <mxCell id="k0QeidYOlg8g_CY7iUdF-104" value="role - varchar(20)" style="shape=partialRectangle;connectable=0;fillColor=none;top=0;left=0;bottom=0;right=0;align=left;spacingLeft=6;overflow=hidden;" vertex="1" parent="k0QeidYOlg8g_CY7iUdF-102">
          <mxGeometry x="30" width="290" height="30" as="geometry">
            <mxRectangle width="290" height="30" as="alternateBounds" />
          </mxGeometry>
        </mxCell>
        <mxCell id="k0QeidYOlg8g_CY7iUdF-105" value="" style="shape=tableRow;horizontal=0;startSize=0;swimlaneHead=0;swimlaneBody=0;fillColor=none;collapsible=0;dropTarget=0;points=[[0,0.5],[1,0.5]];portConstraint=eastwest;top=0;left=0;right=0;bottom=0;" vertex="1" parent="k0QeidYOlg8g_CY7iUdF-92">
          <mxGeometry y="150" width="320" height="30" as="geometry" />
        </mxCell>
        <mxCell id="k0QeidYOlg8g_CY7iUdF-106" value="" style="shape=partialRectangle;connectable=0;fillColor=none;top=0;left=0;bottom=0;right=0;editable=1;overflow=hidden;" vertex="1" parent="k0QeidYOlg8g_CY7iUdF-105">
          <mxGeometry width="30" height="30" as="geometry">
            <mxRectangle width="30" height="30" as="alternateBounds" />
          </mxGeometry>
        </mxCell>
        <mxCell id="k0QeidYOlg8g_CY7iUdF-107" value="" style="shape=partialRectangle;connectable=0;fillColor=none;top=0;left=0;bottom=0;right=0;align=left;spacingLeft=6;overflow=hidden;" vertex="1" parent="k0QeidYOlg8g_CY7iUdF-105">
          <mxGeometry x="30" width="290" height="30" as="geometry">
            <mxRectangle width="290" height="30" as="alternateBounds" />
          </mxGeometry>
        </mxCell>
        <mxCell id="k0QeidYOlg8g_CY7iUdF-108" value="" style="shape=tableRow;horizontal=0;startSize=0;swimlaneHead=0;swimlaneBody=0;fillColor=none;collapsible=0;dropTarget=0;points=[[0,0.5],[1,0.5]];portConstraint=eastwest;top=0;left=0;right=0;bottom=0;" vertex="1" parent="k0QeidYOlg8g_CY7iUdF-92">
          <mxGeometry y="180" width="320" height="30" as="geometry" />
        </mxCell>
        <mxCell id="k0QeidYOlg8g_CY7iUdF-109" value="" style="shape=partialRectangle;connectable=0;fillColor=none;top=0;left=0;bottom=0;right=0;editable=1;overflow=hidden;" vertex="1" parent="k0QeidYOlg8g_CY7iUdF-108">
          <mxGeometry width="30" height="30" as="geometry">
            <mxRectangle width="30" height="30" as="alternateBounds" />
          </mxGeometry>
        </mxCell>
        <mxCell id="k0QeidYOlg8g_CY7iUdF-110" value="" style="shape=partialRectangle;connectable=0;fillColor=none;top=0;left=0;bottom=0;right=0;align=left;spacingLeft=6;overflow=hidden;" vertex="1" parent="k0QeidYOlg8g_CY7iUdF-108">
          <mxGeometry x="30" width="290" height="30" as="geometry">
            <mxRectangle width="290" height="30" as="alternateBounds" />
          </mxGeometry>
        </mxCell>
        <mxCell id="k0QeidYOlg8g_CY7iUdF-111" value="" style="shape=tableRow;horizontal=0;startSize=0;swimlaneHead=0;swimlaneBody=0;fillColor=none;collapsible=0;dropTarget=0;points=[[0,0.5],[1,0.5]];portConstraint=eastwest;top=0;left=0;right=0;bottom=0;" vertex="1" parent="k0QeidYOlg8g_CY7iUdF-92">
          <mxGeometry y="210" width="320" height="30" as="geometry" />
        </mxCell>
        <mxCell id="k0QeidYOlg8g_CY7iUdF-112" value="" style="shape=partialRectangle;connectable=0;fillColor=none;top=0;left=0;bottom=0;right=0;editable=1;overflow=hidden;" vertex="1" parent="k0QeidYOlg8g_CY7iUdF-111">
          <mxGeometry width="30" height="30" as="geometry">
            <mxRectangle width="30" height="30" as="alternateBounds" />
          </mxGeometry>
        </mxCell>
        <mxCell id="k0QeidYOlg8g_CY7iUdF-113" value="" style="shape=partialRectangle;connectable=0;fillColor=none;top=0;left=0;bottom=0;right=0;align=left;spacingLeft=6;overflow=hidden;" vertex="1" parent="k0QeidYOlg8g_CY7iUdF-111">
          <mxGeometry x="30" width="290" height="30" as="geometry">
            <mxRectangle width="290" height="30" as="alternateBounds" />
          </mxGeometry>
        </mxCell>
        <mxCell id="k0QeidYOlg8g_CY7iUdF-114" value="" style="shape=tableRow;horizontal=0;startSize=0;swimlaneHead=0;swimlaneBody=0;fillColor=none;collapsible=0;dropTarget=0;points=[[0,0.5],[1,0.5]];portConstraint=eastwest;top=0;left=0;right=0;bottom=0;" vertex="1" parent="k0QeidYOlg8g_CY7iUdF-92">
          <mxGeometry y="240" width="320" height="30" as="geometry" />
        </mxCell>
        <mxCell id="k0QeidYOlg8g_CY7iUdF-115" value="" style="shape=partialRectangle;connectable=0;fillColor=none;top=0;left=0;bottom=0;right=0;editable=1;overflow=hidden;" vertex="1" parent="k0QeidYOlg8g_CY7iUdF-114">
          <mxGeometry width="30" height="30" as="geometry">
            <mxRectangle width="30" height="30" as="alternateBounds" />
          </mxGeometry>
        </mxCell>
        <mxCell id="k0QeidYOlg8g_CY7iUdF-116" value="" style="shape=partialRectangle;connectable=0;fillColor=none;top=0;left=0;bottom=0;right=0;align=left;spacingLeft=6;overflow=hidden;" vertex="1" parent="k0QeidYOlg8g_CY7iUdF-114">
          <mxGeometry x="30" width="290" height="30" as="geometry">
            <mxRectangle width="290" height="30" as="alternateBounds" />
          </mxGeometry>
        </mxCell>
        <mxCell id="k0QeidYOlg8g_CY7iUdF-117" value="transfer_details" style="shape=table;startSize=20;container=1;collapsible=1;childLayout=tableLayout;fixedRows=1;rowLines=0;fontStyle=1;align=center;resizeLast=1;html=1;fillColor=#bac8d3;strokeColor=#23445d;" vertex="1" parent="1">
          <mxGeometry x="880" y="490" width="320" height="240" as="geometry" />
        </mxCell>
        <mxCell id="k0QeidYOlg8g_CY7iUdF-118" value="" style="shape=tableRow;horizontal=0;startSize=0;swimlaneHead=0;swimlaneBody=0;fillColor=none;collapsible=0;dropTarget=0;points=[[0,0.5],[1,0.5]];portConstraint=eastwest;top=0;left=0;right=0;bottom=1;" vertex="1" parent="k0QeidYOlg8g_CY7iUdF-117">
          <mxGeometry y="20" width="320" height="40" as="geometry" />
        </mxCell>
        <mxCell id="k0QeidYOlg8g_CY7iUdF-119" value="PK" style="shape=partialRectangle;connectable=0;fillColor=none;top=0;left=0;bottom=0;right=0;fontStyle=1;overflow=hidden;whiteSpace=wrap;html=1;" vertex="1" parent="k0QeidYOlg8g_CY7iUdF-118">
          <mxGeometry width="30" height="40" as="geometry">
            <mxRectangle width="30" height="40" as="alternateBounds" />
          </mxGeometry>
        </mxCell>
        <mxCell id="k0QeidYOlg8g_CY7iUdF-120" value="transfer_details_id - serial, NOT NULL" style="shape=partialRectangle;connectable=0;fillColor=none;top=0;left=0;bottom=0;right=0;align=left;spacingLeft=6;fontStyle=5;overflow=hidden;whiteSpace=wrap;html=1;" vertex="1" parent="k0QeidYOlg8g_CY7iUdF-118">
          <mxGeometry x="30" width="290" height="40" as="geometry">
            <mxRectangle width="290" height="40" as="alternateBounds" />
          </mxGeometry>
        </mxCell>
        <mxCell id="k0QeidYOlg8g_CY7iUdF-121" value="" style="shape=tableRow;horizontal=0;startSize=0;swimlaneHead=0;swimlaneBody=0;fillColor=none;collapsible=0;dropTarget=0;points=[[0,0.5],[1,0.5]];portConstraint=eastwest;top=0;left=0;right=0;bottom=0;" vertex="1" parent="k0QeidYOlg8g_CY7iUdF-117">
          <mxGeometry y="60" width="320" height="30" as="geometry" />
        </mxCell>
        <mxCell id="k0QeidYOlg8g_CY7iUdF-122" value="FK1" style="shape=partialRectangle;connectable=0;fillColor=none;top=0;left=0;bottom=0;right=0;editable=1;overflow=hidden;whiteSpace=wrap;html=1;" vertex="1" parent="k0QeidYOlg8g_CY7iUdF-121">
          <mxGeometry width="30" height="30" as="geometry">
            <mxRectangle width="30" height="30" as="alternateBounds" />
          </mxGeometry>
        </mxCell>
        <mxCell id="k0QeidYOlg8g_CY7iUdF-123" value="account_id_from_account" style="shape=partialRectangle;connectable=0;fillColor=none;top=0;left=0;bottom=0;right=0;align=left;spacingLeft=6;overflow=hidden;whiteSpace=wrap;html=1;" vertex="1" parent="k0QeidYOlg8g_CY7iUdF-121">
          <mxGeometry x="30" width="290" height="30" as="geometry">
            <mxRectangle width="290" height="30" as="alternateBounds" />
          </mxGeometry>
        </mxCell>
        <mxCell id="k0QeidYOlg8g_CY7iUdF-124" value="" style="shape=tableRow;horizontal=0;startSize=0;swimlaneHead=0;swimlaneBody=0;fillColor=none;collapsible=0;dropTarget=0;points=[[0,0.5],[1,0.5]];portConstraint=eastwest;top=0;left=0;right=0;bottom=0;" vertex="1" parent="k0QeidYOlg8g_CY7iUdF-117">
          <mxGeometry y="90" width="320" height="30" as="geometry" />
        </mxCell>
        <mxCell id="k0QeidYOlg8g_CY7iUdF-125" value="FK2" style="shape=partialRectangle;connectable=0;fillColor=none;top=0;left=0;bottom=0;right=0;editable=1;overflow=hidden;whiteSpace=wrap;html=1;" vertex="1" parent="k0QeidYOlg8g_CY7iUdF-124">
          <mxGeometry width="30" height="30" as="geometry">
            <mxRectangle width="30" height="30" as="alternateBounds" />
          </mxGeometry>
        </mxCell>
        <mxCell id="k0QeidYOlg8g_CY7iUdF-126" value="account_id_to_account" style="shape=partialRectangle;connectable=0;fillColor=none;top=0;left=0;bottom=0;right=0;align=left;spacingLeft=6;overflow=hidden;whiteSpace=wrap;html=1;" vertex="1" parent="k0QeidYOlg8g_CY7iUdF-124">
          <mxGeometry x="30" width="290" height="30" as="geometry">
            <mxRectangle width="290" height="30" as="alternateBounds" />
          </mxGeometry>
        </mxCell>
        <mxCell id="k0QeidYOlg8g_CY7iUdF-127" value="" style="shape=tableRow;horizontal=0;startSize=0;swimlaneHead=0;swimlaneBody=0;fillColor=none;collapsible=0;dropTarget=0;points=[[0,0.5],[1,0.5]];portConstraint=eastwest;top=0;left=0;right=0;bottom=0;" vertex="1" parent="k0QeidYOlg8g_CY7iUdF-117">
          <mxGeometry y="120" width="320" height="30" as="geometry" />
        </mxCell>
        <mxCell id="k0QeidYOlg8g_CY7iUdF-128" value="FK3" style="shape=partialRectangle;connectable=0;fillColor=none;top=0;left=0;bottom=0;right=0;editable=1;overflow=hidden;whiteSpace=wrap;html=1;" vertex="1" parent="k0QeidYOlg8g_CY7iUdF-127">
          <mxGeometry width="30" height="30" as="geometry">
            <mxRectangle width="30" height="30" as="alternateBounds" />
          </mxGeometry>
        </mxCell>
        <mxCell id="k0QeidYOlg8g_CY7iUdF-129" value="transfer_status_id" style="shape=partialRectangle;connectable=0;fillColor=none;top=0;left=0;bottom=0;right=0;align=left;spacingLeft=6;overflow=hidden;whiteSpace=wrap;html=1;" vertex="1" parent="k0QeidYOlg8g_CY7iUdF-127">
          <mxGeometry x="30" width="290" height="30" as="geometry">
            <mxRectangle width="290" height="30" as="alternateBounds" />
          </mxGeometry>
        </mxCell>
        <mxCell id="k0QeidYOlg8g_CY7iUdF-130" value="" style="shape=tableRow;horizontal=0;startSize=0;swimlaneHead=0;swimlaneBody=0;fillColor=none;collapsible=0;dropTarget=0;points=[[0,0.5],[1,0.5]];portConstraint=eastwest;top=0;left=0;right=0;bottom=0;" vertex="1" parent="k0QeidYOlg8g_CY7iUdF-117">
          <mxGeometry y="150" width="320" height="30" as="geometry" />
        </mxCell>
        <mxCell id="k0QeidYOlg8g_CY7iUdF-131" value="FK4" style="shape=partialRectangle;connectable=0;fillColor=none;top=0;left=0;bottom=0;right=0;editable=1;overflow=hidden;whiteSpace=wrap;html=1;" vertex="1" parent="k0QeidYOlg8g_CY7iUdF-130">
          <mxGeometry width="30" height="30" as="geometry">
            <mxRectangle width="30" height="30" as="alternateBounds" />
          </mxGeometry>
        </mxCell>
        <mxCell id="k0QeidYOlg8g_CY7iUdF-132" value="transfer_type_id&amp;nbsp;" style="shape=partialRectangle;connectable=0;fillColor=none;top=0;left=0;bottom=0;right=0;align=left;spacingLeft=6;overflow=hidden;whiteSpace=wrap;html=1;" vertex="1" parent="k0QeidYOlg8g_CY7iUdF-130">
          <mxGeometry x="30" width="290" height="30" as="geometry">
            <mxRectangle width="290" height="30" as="alternateBounds" />
          </mxGeometry>
        </mxCell>
        <mxCell id="k0QeidYOlg8g_CY7iUdF-133" value="" style="shape=tableRow;horizontal=0;startSize=0;swimlaneHead=0;swimlaneBody=0;fillColor=none;collapsible=0;dropTarget=0;points=[[0,0.5],[1,0.5]];portConstraint=eastwest;top=0;left=0;right=0;bottom=0;" vertex="1" parent="k0QeidYOlg8g_CY7iUdF-117">
          <mxGeometry y="180" width="320" height="30" as="geometry" />
        </mxCell>
        <mxCell id="k0QeidYOlg8g_CY7iUdF-134" value="" style="shape=partialRectangle;connectable=0;fillColor=none;top=0;left=0;bottom=0;right=0;editable=1;overflow=hidden;whiteSpace=wrap;html=1;" vertex="1" parent="k0QeidYOlg8g_CY7iUdF-133">
          <mxGeometry width="30" height="30" as="geometry">
            <mxRectangle width="30" height="30" as="alternateBounds" />
          </mxGeometry>
        </mxCell>
        <mxCell id="k0QeidYOlg8g_CY7iUdF-135" value="amount" style="shape=partialRectangle;connectable=0;fillColor=none;top=0;left=0;bottom=0;right=0;align=left;spacingLeft=6;overflow=hidden;whiteSpace=wrap;html=1;" vertex="1" parent="k0QeidYOlg8g_CY7iUdF-133">
          <mxGeometry x="30" width="290" height="30" as="geometry">
            <mxRectangle width="290" height="30" as="alternateBounds" />
          </mxGeometry>
        </mxCell>
        <mxCell id="k0QeidYOlg8g_CY7iUdF-136" value="" style="shape=tableRow;horizontal=0;startSize=0;swimlaneHead=0;swimlaneBody=0;fillColor=none;collapsible=0;dropTarget=0;points=[[0,0.5],[1,0.5]];portConstraint=eastwest;top=0;left=0;right=0;bottom=0;" vertex="1" parent="k0QeidYOlg8g_CY7iUdF-117">
          <mxGeometry y="210" width="320" height="30" as="geometry" />
        </mxCell>
        <mxCell id="k0QeidYOlg8g_CY7iUdF-137" value="" style="shape=partialRectangle;connectable=0;fillColor=none;top=0;left=0;bottom=0;right=0;editable=1;overflow=hidden;whiteSpace=wrap;html=1;" vertex="1" parent="k0QeidYOlg8g_CY7iUdF-136">
          <mxGeometry width="30" height="30" as="geometry">
            <mxRectangle width="30" height="30" as="alternateBounds" />
          </mxGeometry>
        </mxCell>
        <mxCell id="k0QeidYOlg8g_CY7iUdF-138" value="" style="shape=partialRectangle;connectable=0;fillColor=none;top=0;left=0;bottom=0;right=0;align=left;spacingLeft=6;overflow=hidden;whiteSpace=wrap;html=1;" vertex="1" parent="k0QeidYOlg8g_CY7iUdF-136">
          <mxGeometry x="30" width="290" height="30" as="geometry">
            <mxRectangle width="290" height="30" as="alternateBounds" />
          </mxGeometry>
        </mxCell>
        <mxCell id="k0QeidYOlg8g_CY7iUdF-140" value="" style="edgeStyle=entityRelationEdgeStyle;fontSize=12;html=1;endArrow=ERmandOne;startArrow=ERmandOne;rounded=0;entryX=-0.013;entryY=-0.059;entryDx=0;entryDy=0;entryPerimeter=0;exitX=1;exitY=0.5;exitDx=0;exitDy=0;" edge="1" parent="1" source="k0QeidYOlg8g_CY7iUdF-102" target="k0QeidYOlg8g_CY7iUdF-171">
          <mxGeometry width="100" height="100" relative="1" as="geometry">
            <mxPoint x="190" y="480" as="sourcePoint" />
            <mxPoint x="360" y="265" as="targetPoint" />
          </mxGeometry>
        </mxCell>
        <mxCell id="k0QeidYOlg8g_CY7iUdF-141" value="1:1" style="edgeLabel;html=1;align=center;verticalAlign=middle;resizable=0;points=[];" connectable="0" vertex="1" parent="k0QeidYOlg8g_CY7iUdF-140">
          <mxGeometry x="-0.0081" y="-6" relative="1" as="geometry">
            <mxPoint x="12" as="offset" />
          </mxGeometry>
        </mxCell>
        <mxCell id="k0QeidYOlg8g_CY7iUdF-145" value="" style="shape=tableRow;horizontal=0;startSize=0;swimlaneHead=0;swimlaneBody=0;fillColor=none;collapsible=0;dropTarget=0;points=[[0,0.5],[1,0.5]];portConstraint=eastwest;top=0;left=0;right=0;bottom=0;" vertex="1" parent="1">
          <mxGeometry x="1480" y="785" width="319.4285714285714" height="30" as="geometry" />
        </mxCell>
        <mxCell id="k0QeidYOlg8g_CY7iUdF-146" value="" style="shape=partialRectangle;connectable=0;fillColor=none;top=0;left=0;bottom=0;right=0;editable=1;overflow=hidden;whiteSpace=wrap;html=1;" vertex="1" parent="k0QeidYOlg8g_CY7iUdF-145">
          <mxGeometry width="30" height="30" as="geometry">
            <mxRectangle width="30" height="30" as="alternateBounds" />
          </mxGeometry>
        </mxCell>
        <mxCell id="k0QeidYOlg8g_CY7iUdF-148" value="" style="shape=tableRow;horizontal=0;startSize=0;swimlaneHead=0;swimlaneBody=0;fillColor=none;collapsible=0;dropTarget=0;points=[[0,0.5],[1,0.5]];portConstraint=eastwest;top=0;left=0;right=0;bottom=0;" vertex="1" parent="1">
          <mxGeometry x="1480" y="815" width="319.4285714285714" height="30" as="geometry" />
        </mxCell>
        <mxCell id="k0QeidYOlg8g_CY7iUdF-149" value="" style="shape=partialRectangle;connectable=0;fillColor=none;top=0;left=0;bottom=0;right=0;editable=1;overflow=hidden;whiteSpace=wrap;html=1;" vertex="1" parent="k0QeidYOlg8g_CY7iUdF-148">
          <mxGeometry width="30" height="30" as="geometry">
            <mxRectangle width="30" height="30" as="alternateBounds" />
          </mxGeometry>
        </mxCell>
        <mxCell id="k0QeidYOlg8g_CY7iUdF-150" value="" style="shape=partialRectangle;connectable=0;fillColor=none;top=0;left=0;bottom=0;right=0;align=left;spacingLeft=6;overflow=hidden;whiteSpace=wrap;html=1;" vertex="1" parent="k0QeidYOlg8g_CY7iUdF-148">
          <mxGeometry x="30" width="289.4285714285714" height="30" as="geometry">
            <mxRectangle width="289.4285714285714" height="30" as="alternateBounds" />
          </mxGeometry>
        </mxCell>
        <mxCell id="k0QeidYOlg8g_CY7iUdF-151" value="Description:&lt;br&gt;1. Approved&lt;br&gt;&lt;div style=&quot;&quot;&gt;&lt;span style=&quot;background-color: initial;&quot;&gt;2. Pending&lt;/span&gt;&lt;/div&gt;&lt;div style=&quot;&quot;&gt;&lt;span style=&quot;background-color: initial;&quot;&gt;3. Rejected&lt;/span&gt;&lt;/div&gt;" style="text;html=1;align=left;verticalAlign=middle;resizable=0;points=[];autosize=1;strokeColor=#ae4132;fillColor=#fad9d5;" vertex="1" parent="1">
          <mxGeometry x="1770.0042857142857" y="445" width="90" height="70" as="geometry" />
        </mxCell>
        <mxCell id="k0QeidYOlg8g_CY7iUdF-152" value="transfer_status" style="shape=table;startSize=20;container=1;collapsible=1;childLayout=tableLayout;fixedRows=1;rowLines=0;fontStyle=1;align=center;resizeLast=1;html=1;fillColor=#fad9d5;strokeColor=#ae4132;" vertex="1" parent="1">
          <mxGeometry x="1480" y="445" width="289.7142857142857" height="150" as="geometry" />
        </mxCell>
        <mxCell id="k0QeidYOlg8g_CY7iUdF-153" value="" style="shape=tableRow;horizontal=0;startSize=0;swimlaneHead=0;swimlaneBody=0;fillColor=none;collapsible=0;dropTarget=0;points=[[0,0.5],[1,0.5]];portConstraint=eastwest;top=0;left=0;right=0;bottom=1;" vertex="1" parent="k0QeidYOlg8g_CY7iUdF-152">
          <mxGeometry y="20" width="289.7142857142857" height="40" as="geometry" />
        </mxCell>
        <mxCell id="k0QeidYOlg8g_CY7iUdF-154" value="PK" style="shape=partialRectangle;connectable=0;fillColor=none;top=0;left=0;bottom=0;right=0;fontStyle=1;overflow=hidden;whiteSpace=wrap;html=1;" vertex="1" parent="k0QeidYOlg8g_CY7iUdF-153">
          <mxGeometry width="30" height="40" as="geometry">
            <mxRectangle width="30" height="40" as="alternateBounds" />
          </mxGeometry>
        </mxCell>
        <mxCell id="k0QeidYOlg8g_CY7iUdF-155" value="transfer_status_id - int, NOT NULL" style="shape=partialRectangle;connectable=0;fillColor=none;top=0;left=0;bottom=0;right=0;align=left;spacingLeft=6;fontStyle=5;overflow=hidden;whiteSpace=wrap;html=1;" vertex="1" parent="k0QeidYOlg8g_CY7iUdF-153">
          <mxGeometry x="30" width="259.7142857142857" height="40" as="geometry">
            <mxRectangle width="259.7142857142857" height="40" as="alternateBounds" />
          </mxGeometry>
        </mxCell>
        <mxCell id="k0QeidYOlg8g_CY7iUdF-156" value="" style="shape=tableRow;horizontal=0;startSize=0;swimlaneHead=0;swimlaneBody=0;fillColor=none;collapsible=0;dropTarget=0;points=[[0,0.5],[1,0.5]];portConstraint=eastwest;top=0;left=0;right=0;bottom=0;" vertex="1" parent="k0QeidYOlg8g_CY7iUdF-152">
          <mxGeometry y="60" width="289.7142857142857" height="30" as="geometry" />
        </mxCell>
        <mxCell id="k0QeidYOlg8g_CY7iUdF-157" value="" style="shape=partialRectangle;connectable=0;fillColor=none;top=0;left=0;bottom=0;right=0;editable=1;overflow=hidden;whiteSpace=wrap;html=1;" vertex="1" parent="k0QeidYOlg8g_CY7iUdF-156">
          <mxGeometry width="30" height="30" as="geometry">
            <mxRectangle width="30" height="30" as="alternateBounds" />
          </mxGeometry>
        </mxCell>
        <mxCell id="k0QeidYOlg8g_CY7iUdF-158" value="transfer_description - varchar(20), NOT NULL" style="shape=partialRectangle;connectable=0;fillColor=none;top=0;left=0;bottom=0;right=0;align=left;spacingLeft=6;overflow=hidden;whiteSpace=wrap;html=1;" vertex="1" parent="k0QeidYOlg8g_CY7iUdF-156">
          <mxGeometry x="30" width="259.7142857142857" height="30" as="geometry">
            <mxRectangle width="259.7142857142857" height="30" as="alternateBounds" />
          </mxGeometry>
        </mxCell>
        <mxCell id="k0QeidYOlg8g_CY7iUdF-159" value="" style="shape=tableRow;horizontal=0;startSize=0;swimlaneHead=0;swimlaneBody=0;fillColor=none;collapsible=0;dropTarget=0;points=[[0,0.5],[1,0.5]];portConstraint=eastwest;top=0;left=0;right=0;bottom=0;" vertex="1" parent="k0QeidYOlg8g_CY7iUdF-152">
          <mxGeometry y="90" width="289.7142857142857" height="30" as="geometry" />
        </mxCell>
        <mxCell id="k0QeidYOlg8g_CY7iUdF-160" value="" style="shape=partialRectangle;connectable=0;fillColor=none;top=0;left=0;bottom=0;right=0;editable=1;overflow=hidden;whiteSpace=wrap;html=1;" vertex="1" parent="k0QeidYOlg8g_CY7iUdF-159">
          <mxGeometry width="30" height="30" as="geometry">
            <mxRectangle width="30" height="30" as="alternateBounds" />
          </mxGeometry>
        </mxCell>
        <mxCell id="k0QeidYOlg8g_CY7iUdF-161" value="" style="shape=partialRectangle;connectable=0;fillColor=none;top=0;left=0;bottom=0;right=0;align=left;spacingLeft=6;overflow=hidden;whiteSpace=wrap;html=1;" vertex="1" parent="k0QeidYOlg8g_CY7iUdF-159">
          <mxGeometry x="30" width="259.7142857142857" height="30" as="geometry">
            <mxRectangle width="259.7142857142857" height="30" as="alternateBounds" />
          </mxGeometry>
        </mxCell>
        <mxCell id="k0QeidYOlg8g_CY7iUdF-162" value="" style="shape=tableRow;horizontal=0;startSize=0;swimlaneHead=0;swimlaneBody=0;fillColor=none;collapsible=0;dropTarget=0;points=[[0,0.5],[1,0.5]];portConstraint=eastwest;top=0;left=0;right=0;bottom=0;" vertex="1" parent="k0QeidYOlg8g_CY7iUdF-152">
          <mxGeometry y="120" width="289.7142857142857" height="30" as="geometry" />
        </mxCell>
        <mxCell id="k0QeidYOlg8g_CY7iUdF-163" value="" style="shape=partialRectangle;connectable=0;fillColor=none;top=0;left=0;bottom=0;right=0;editable=1;overflow=hidden;whiteSpace=wrap;html=1;" vertex="1" parent="k0QeidYOlg8g_CY7iUdF-162">
          <mxGeometry width="30" height="30" as="geometry">
            <mxRectangle width="30" height="30" as="alternateBounds" />
          </mxGeometry>
        </mxCell>
        <mxCell id="k0QeidYOlg8g_CY7iUdF-164" value="" style="shape=partialRectangle;connectable=0;fillColor=none;top=0;left=0;bottom=0;right=0;align=left;spacingLeft=6;overflow=hidden;whiteSpace=wrap;html=1;" vertex="1" parent="k0QeidYOlg8g_CY7iUdF-162">
          <mxGeometry x="30" width="259.7142857142857" height="30" as="geometry">
            <mxRectangle width="259.7142857142857" height="30" as="alternateBounds" />
          </mxGeometry>
        </mxCell>
        <mxCell id="k0QeidYOlg8g_CY7iUdF-166" value="" style="edgeStyle=entityRelationEdgeStyle;fontSize=12;html=1;endArrow=ERmany;startArrow=ERmany;rounded=0;entryX=0;entryY=0.5;entryDx=0;entryDy=0;exitX=1;exitY=0.5;exitDx=0;exitDy=0;" edge="1" parent="1" source="k0QeidYOlg8g_CY7iUdF-171" target="k0QeidYOlg8g_CY7iUdF-121">
          <mxGeometry width="100" height="100" relative="1" as="geometry">
            <mxPoint x="780" y="295" as="sourcePoint" />
            <mxPoint x="880" y="195" as="targetPoint" />
          </mxGeometry>
        </mxCell>
        <mxCell id="k0QeidYOlg8g_CY7iUdF-167" value="account" style="shape=table;startSize=15;container=1;collapsible=1;childLayout=tableLayout;fixedRows=1;rowLines=0;fontStyle=1;align=center;resizeLast=1;html=1;fillColor=#d0cee2;strokeColor=#56517e;" vertex="1" parent="1">
          <mxGeometry x="500" y="145" width="260" height="145" as="geometry" />
        </mxCell>
        <mxCell id="k0QeidYOlg8g_CY7iUdF-168" value="" style="shape=tableRow;horizontal=0;startSize=0;swimlaneHead=0;swimlaneBody=0;fillColor=none;collapsible=0;dropTarget=0;points=[[0,0.5],[1,0.5]];portConstraint=eastwest;top=0;left=0;right=0;bottom=1;" vertex="1" parent="k0QeidYOlg8g_CY7iUdF-167">
          <mxGeometry y="15" width="260" height="40" as="geometry" />
        </mxCell>
        <mxCell id="k0QeidYOlg8g_CY7iUdF-169" value="PK" style="shape=partialRectangle;connectable=0;fillColor=none;top=0;left=0;bottom=0;right=0;fontStyle=1;overflow=hidden;whiteSpace=wrap;html=1;" vertex="1" parent="k0QeidYOlg8g_CY7iUdF-168">
          <mxGeometry width="30" height="40" as="geometry">
            <mxRectangle width="30" height="40" as="alternateBounds" />
          </mxGeometry>
        </mxCell>
        <mxCell id="k0QeidYOlg8g_CY7iUdF-170" value="account_id - serial, NOT NULL" style="shape=partialRectangle;connectable=0;fillColor=none;top=0;left=0;bottom=0;right=0;align=left;spacingLeft=6;fontStyle=5;overflow=hidden;whiteSpace=wrap;html=1;" vertex="1" parent="k0QeidYOlg8g_CY7iUdF-168">
          <mxGeometry x="30" width="230" height="40" as="geometry">
            <mxRectangle width="230" height="40" as="alternateBounds" />
          </mxGeometry>
        </mxCell>
        <mxCell id="k0QeidYOlg8g_CY7iUdF-171" value="" style="shape=tableRow;horizontal=0;startSize=0;swimlaneHead=0;swimlaneBody=0;fillColor=none;collapsible=0;dropTarget=0;points=[[0,0.5],[1,0.5]];portConstraint=eastwest;top=0;left=0;right=0;bottom=0;" vertex="1" parent="k0QeidYOlg8g_CY7iUdF-167">
          <mxGeometry y="55" width="260" height="30" as="geometry" />
        </mxCell>
        <mxCell id="k0QeidYOlg8g_CY7iUdF-172" value="FK" style="shape=partialRectangle;connectable=0;fillColor=none;top=0;left=0;bottom=0;right=0;editable=1;overflow=hidden;whiteSpace=wrap;html=1;" vertex="1" parent="k0QeidYOlg8g_CY7iUdF-171">
          <mxGeometry width="30" height="30" as="geometry">
            <mxRectangle width="30" height="30" as="alternateBounds" />
          </mxGeometry>
        </mxCell>
        <mxCell id="k0QeidYOlg8g_CY7iUdF-173" value="user_id - serial, NOT NULL" style="shape=partialRectangle;connectable=0;fillColor=none;top=0;left=0;bottom=0;right=0;align=left;spacingLeft=6;overflow=hidden;whiteSpace=wrap;html=1;" vertex="1" parent="k0QeidYOlg8g_CY7iUdF-171">
          <mxGeometry x="30" width="230" height="30" as="geometry">
            <mxRectangle width="230" height="30" as="alternateBounds" />
          </mxGeometry>
        </mxCell>
        <mxCell id="k0QeidYOlg8g_CY7iUdF-174" value="" style="shape=tableRow;horizontal=0;startSize=0;swimlaneHead=0;swimlaneBody=0;fillColor=none;collapsible=0;dropTarget=0;points=[[0,0.5],[1,0.5]];portConstraint=eastwest;top=0;left=0;right=0;bottom=0;" vertex="1" parent="k0QeidYOlg8g_CY7iUdF-167">
          <mxGeometry y="85" width="260" height="30" as="geometry" />
        </mxCell>
        <mxCell id="k0QeidYOlg8g_CY7iUdF-175" value="" style="shape=partialRectangle;connectable=0;fillColor=none;top=0;left=0;bottom=0;right=0;editable=1;overflow=hidden;whiteSpace=wrap;html=1;" vertex="1" parent="k0QeidYOlg8g_CY7iUdF-174">
          <mxGeometry width="30" height="30" as="geometry">
            <mxRectangle width="30" height="30" as="alternateBounds" />
          </mxGeometry>
        </mxCell>
        <mxCell id="k0QeidYOlg8g_CY7iUdF-176" value="account_balance - double?, NOT NULL" style="shape=partialRectangle;connectable=0;fillColor=none;top=0;left=0;bottom=0;right=0;align=left;spacingLeft=6;overflow=hidden;whiteSpace=wrap;html=1;" vertex="1" parent="k0QeidYOlg8g_CY7iUdF-174">
          <mxGeometry x="30" width="230" height="30" as="geometry">
            <mxRectangle width="230" height="30" as="alternateBounds" />
          </mxGeometry>
        </mxCell>
        <mxCell id="k0QeidYOlg8g_CY7iUdF-177" value="" style="shape=tableRow;horizontal=0;startSize=0;swimlaneHead=0;swimlaneBody=0;fillColor=none;collapsible=0;dropTarget=0;points=[[0,0.5],[1,0.5]];portConstraint=eastwest;top=0;left=0;right=0;bottom=0;" vertex="1" parent="k0QeidYOlg8g_CY7iUdF-167">
          <mxGeometry y="115" width="260" height="30" as="geometry" />
        </mxCell>
        <mxCell id="k0QeidYOlg8g_CY7iUdF-178" value="" style="shape=partialRectangle;connectable=0;fillColor=none;top=0;left=0;bottom=0;right=0;editable=1;overflow=hidden;whiteSpace=wrap;html=1;" vertex="1" parent="k0QeidYOlg8g_CY7iUdF-177">
          <mxGeometry width="30" height="30" as="geometry">
            <mxRectangle width="30" height="30" as="alternateBounds" />
          </mxGeometry>
        </mxCell>
        <mxCell id="k0QeidYOlg8g_CY7iUdF-179" value="" style="shape=partialRectangle;connectable=0;fillColor=none;top=0;left=0;bottom=0;right=0;align=left;spacingLeft=6;overflow=hidden;whiteSpace=wrap;html=1;" vertex="1" parent="k0QeidYOlg8g_CY7iUdF-177">
          <mxGeometry x="30" width="230" height="30" as="geometry">
            <mxRectangle width="230" height="30" as="alternateBounds" />
          </mxGeometry>
        </mxCell>
        <mxCell id="k0QeidYOlg8g_CY7iUdF-181" value="1:N" style="text;html=1;align=center;verticalAlign=middle;resizable=0;points=[];autosize=1;strokeColor=none;fillColor=none;" vertex="1" parent="1">
          <mxGeometry x="815" y="345" width="40" height="30" as="geometry" />
        </mxCell>
        <mxCell id="Qhj3JCYW49lwOlL5EV6h-1" value="" style="group" connectable="0" vertex="1" parent="1">
          <mxGeometry x="1480" y="720" width="430" height="150" as="geometry" />
        </mxCell>
        <mxCell id="Qhj3JCYW49lwOlL5EV6h-2" value="" style="group" connectable="0" vertex="1" parent="Qhj3JCYW49lwOlL5EV6h-1">
          <mxGeometry width="430" height="150" as="geometry" />
        </mxCell>
        <mxCell id="Qhj3JCYW49lwOlL5EV6h-3" value="Description:&lt;br&gt;1. Send&lt;br&gt;&lt;div style=&quot;&quot;&gt;&lt;span style=&quot;background-color: initial;&quot;&gt;2. Request&lt;/span&gt;&lt;/div&gt;" style="text;html=1;align=left;verticalAlign=middle;resizable=0;points=[];autosize=1;strokeColor=#b46504;fillColor=#fad7ac;" vertex="1" parent="Qhj3JCYW49lwOlL5EV6h-2">
          <mxGeometry x="319.4285714285714" width="90" height="60" as="geometry" />
        </mxCell>
        <mxCell id="Qhj3JCYW49lwOlL5EV6h-4" value="transfer_type" style="shape=table;startSize=20;container=1;collapsible=1;childLayout=tableLayout;fixedRows=1;rowLines=0;fontStyle=1;align=center;resizeLast=1;html=1;fillColor=#fad7ac;strokeColor=#b46504;" vertex="1" parent="Qhj3JCYW49lwOlL5EV6h-1">
          <mxGeometry width="319.4285714285714" height="150" as="geometry" />
        </mxCell>
        <mxCell id="Qhj3JCYW49lwOlL5EV6h-5" value="" style="shape=tableRow;horizontal=0;startSize=0;swimlaneHead=0;swimlaneBody=0;fillColor=none;collapsible=0;dropTarget=0;points=[[0,0.5],[1,0.5]];portConstraint=eastwest;top=0;left=0;right=0;bottom=1;" vertex="1" parent="Qhj3JCYW49lwOlL5EV6h-4">
          <mxGeometry y="20" width="319.4285714285714" height="40" as="geometry" />
        </mxCell>
        <mxCell id="Qhj3JCYW49lwOlL5EV6h-6" value="PK" style="shape=partialRectangle;connectable=0;fillColor=none;top=0;left=0;bottom=0;right=0;fontStyle=1;overflow=hidden;whiteSpace=wrap;html=1;" vertex="1" parent="Qhj3JCYW49lwOlL5EV6h-5">
          <mxGeometry width="30" height="40" as="geometry">
            <mxRectangle width="30" height="40" as="alternateBounds" />
          </mxGeometry>
        </mxCell>
        <mxCell id="Qhj3JCYW49lwOlL5EV6h-7" value="transfer_type_id - int, NOT NULL" style="shape=partialRectangle;connectable=0;fillColor=none;top=0;left=0;bottom=0;right=0;align=left;spacingLeft=6;fontStyle=5;overflow=hidden;whiteSpace=wrap;html=1;" vertex="1" parent="Qhj3JCYW49lwOlL5EV6h-5">
          <mxGeometry x="30" width="289.4285714285714" height="40" as="geometry">
            <mxRectangle width="289.4285714285714" height="40" as="alternateBounds" />
          </mxGeometry>
        </mxCell>
        <mxCell id="Qhj3JCYW49lwOlL5EV6h-8" value="" style="shape=tableRow;horizontal=0;startSize=0;swimlaneHead=0;swimlaneBody=0;fillColor=none;collapsible=0;dropTarget=0;points=[[0,0.5],[1,0.5]];portConstraint=eastwest;top=0;left=0;right=0;bottom=0;" vertex="1" parent="Qhj3JCYW49lwOlL5EV6h-4">
          <mxGeometry y="60" width="319.4285714285714" height="30" as="geometry" />
        </mxCell>
        <mxCell id="Qhj3JCYW49lwOlL5EV6h-9" value="" style="shape=partialRectangle;connectable=0;fillColor=none;top=0;left=0;bottom=0;right=0;editable=1;overflow=hidden;whiteSpace=wrap;html=1;" vertex="1" parent="Qhj3JCYW49lwOlL5EV6h-8">
          <mxGeometry width="30" height="30" as="geometry">
            <mxRectangle width="30" height="30" as="alternateBounds" />
          </mxGeometry>
        </mxCell>
        <mxCell id="Qhj3JCYW49lwOlL5EV6h-10" value="transfer_type_description - varchar(20), NOT NULL" style="shape=partialRectangle;connectable=0;fillColor=none;top=0;left=0;bottom=0;right=0;align=left;spacingLeft=6;overflow=hidden;whiteSpace=wrap;html=1;" vertex="1" parent="Qhj3JCYW49lwOlL5EV6h-8">
          <mxGeometry x="30" width="289.4285714285714" height="30" as="geometry">
            <mxRectangle width="289.4285714285714" height="30" as="alternateBounds" />
          </mxGeometry>
        </mxCell>
        <mxCell id="Qhj3JCYW49lwOlL5EV6h-11" value="" style="shape=tableRow;horizontal=0;startSize=0;swimlaneHead=0;swimlaneBody=0;fillColor=none;collapsible=0;dropTarget=0;points=[[0,0.5],[1,0.5]];portConstraint=eastwest;top=0;left=0;right=0;bottom=0;" vertex="1" parent="Qhj3JCYW49lwOlL5EV6h-4">
          <mxGeometry y="90" width="319.4285714285714" height="30" as="geometry" />
        </mxCell>
        <mxCell id="Qhj3JCYW49lwOlL5EV6h-12" value="" style="shape=partialRectangle;connectable=0;fillColor=none;top=0;left=0;bottom=0;right=0;editable=1;overflow=hidden;whiteSpace=wrap;html=1;" vertex="1" parent="Qhj3JCYW49lwOlL5EV6h-11">
          <mxGeometry width="30" height="30" as="geometry">
            <mxRectangle width="30" height="30" as="alternateBounds" />
          </mxGeometry>
        </mxCell>
        <mxCell id="Qhj3JCYW49lwOlL5EV6h-13" value="" style="shape=partialRectangle;connectable=0;fillColor=none;top=0;left=0;bottom=0;right=0;align=left;spacingLeft=6;overflow=hidden;whiteSpace=wrap;html=1;" vertex="1" parent="Qhj3JCYW49lwOlL5EV6h-11">
          <mxGeometry x="30" width="289.4285714285714" height="30" as="geometry">
            <mxRectangle width="289.4285714285714" height="30" as="alternateBounds" />
          </mxGeometry>
        </mxCell>
        <mxCell id="Qhj3JCYW49lwOlL5EV6h-14" value="" style="shape=tableRow;horizontal=0;startSize=0;swimlaneHead=0;swimlaneBody=0;fillColor=none;collapsible=0;dropTarget=0;points=[[0,0.5],[1,0.5]];portConstraint=eastwest;top=0;left=0;right=0;bottom=0;" vertex="1" parent="Qhj3JCYW49lwOlL5EV6h-4">
          <mxGeometry y="120" width="319.4285714285714" height="30" as="geometry" />
        </mxCell>
        <mxCell id="Qhj3JCYW49lwOlL5EV6h-15" value="" style="shape=partialRectangle;connectable=0;fillColor=none;top=0;left=0;bottom=0;right=0;editable=1;overflow=hidden;whiteSpace=wrap;html=1;" vertex="1" parent="Qhj3JCYW49lwOlL5EV6h-14">
          <mxGeometry width="30" height="30" as="geometry">
            <mxRectangle width="30" height="30" as="alternateBounds" />
          </mxGeometry>
        </mxCell>
        <mxCell id="Qhj3JCYW49lwOlL5EV6h-16" value="" style="shape=partialRectangle;connectable=0;fillColor=none;top=0;left=0;bottom=0;right=0;align=left;spacingLeft=6;overflow=hidden;whiteSpace=wrap;html=1;" vertex="1" parent="Qhj3JCYW49lwOlL5EV6h-14">
          <mxGeometry x="30" width="289.4285714285714" height="30" as="geometry">
            <mxRectangle width="289.4285714285714" height="30" as="alternateBounds" />
          </mxGeometry>
        </mxCell>
        <mxCell id="Qhj3JCYW49lwOlL5EV6h-17" value="" style="edgeStyle=entityRelationEdgeStyle;fontSize=12;html=1;endArrow=ERoneToMany;rounded=0;entryX=0;entryY=0.5;entryDx=0;entryDy=0;" edge="1" parent="1" target="k0QeidYOlg8g_CY7iUdF-153">
          <mxGeometry width="100" height="100" relative="1" as="geometry">
            <mxPoint x="1200" y="560" as="sourcePoint" />
            <mxPoint x="1300" y="460" as="targetPoint" />
          </mxGeometry>
        </mxCell>
        <mxCell id="Qhj3JCYW49lwOlL5EV6h-18" value="1:N" style="text;html=1;align=center;verticalAlign=middle;resizable=0;points=[];autosize=1;strokeColor=none;fillColor=none;" vertex="1" parent="1">
          <mxGeometry x="1280" y="500" width="40" height="30" as="geometry" />
        </mxCell>
        <mxCell id="Qhj3JCYW49lwOlL5EV6h-19" value="" style="edgeStyle=entityRelationEdgeStyle;fontSize=12;html=1;endArrow=ERoneToMany;rounded=0;entryX=0;entryY=0;entryDx=0;entryDy=0;entryPerimeter=0;" edge="1" parent="1" target="Qhj3JCYW49lwOlL5EV6h-11">
          <mxGeometry width="100" height="100" relative="1" as="geometry">
            <mxPoint x="1200" y="685" as="sourcePoint" />
            <mxPoint x="1480" y="610" as="targetPoint" />
          </mxGeometry>
        </mxCell>
        <mxCell id="Qhj3JCYW49lwOlL5EV6h-20" value="1:N" style="text;html=1;align=center;verticalAlign=middle;resizable=0;points=[];autosize=1;strokeColor=none;fillColor=none;" vertex="1" parent="1">
          <mxGeometry x="1300" y="708" width="40" height="30" as="geometry" />
        </mxCell>
      </root>
    </mxGraphModel>
  </diagram>
  <diagram id="s_kndhqBwDmR71O0RNEN" name="TEnmo-ORM">
    <mxGraphModel grid="1" page="1" gridSize="10" guides="1" tooltips="1" connect="1" arrows="1" fold="1" pageScale="1" pageWidth="850" pageHeight="1100" math="0" shadow="0">
      <root>
        <mxCell id="0" />
        <mxCell id="1" parent="0" />
        <mxCell id="-32E9s2LY_kPtceigcGK-1" value="&lt;h1&gt;This is a Class Diagram. 1 Diagram per Domain -&amp;nbsp;&lt;/h1&gt;&lt;div&gt;1 For Security&amp;nbsp; because that should be standardized.&lt;/div&gt;&lt;div&gt;1 For the Tenmo Server Application.&lt;/div&gt;&lt;div&gt;There would be 1 More if we were creating a separate Front End Application.&lt;/div&gt;" style="text;html=1;strokeColor=none;fillColor=none;spacing=5;spacingTop=-20;whiteSpace=wrap;overflow=hidden;rounded=0;" vertex="1" parent="1">
          <mxGeometry x="40" y="10" width="730" height="120" as="geometry" />
        </mxCell>
        <mxCell id="EyLWrHdkN75MTbtM0SGs-1" value="Account" style="swimlane;fontStyle=1;align=center;verticalAlign=top;childLayout=stackLayout;horizontal=1;startSize=26;horizontalStack=0;resizeParent=1;resizeLast=0;collapsible=1;marginBottom=0;rounded=0;shadow=0;strokeWidth=1;fillColor=#FFFF00;" vertex="1" parent="1">
          <mxGeometry x="160" y="120" width="240" height="268" as="geometry">
            <mxRectangle x="230" y="140" width="160" height="26" as="alternateBounds" />
          </mxGeometry>
        </mxCell>
        <mxCell id="EyLWrHdkN75MTbtM0SGs-2" value="private int accountId" style="text;align=left;verticalAlign=top;spacingLeft=4;spacingRight=4;overflow=hidden;rotatable=0;points=[[0,0.5],[1,0.5]];portConstraint=eastwest;fillColor=#FFCC99;" vertex="1" parent="EyLWrHdkN75MTbtM0SGs-1">
          <mxGeometry y="26" width="240" height="26" as="geometry" />
        </mxCell>
        <mxCell id="EyLWrHdkN75MTbtM0SGs-3" value="private int userId" style="text;align=left;verticalAlign=top;spacingLeft=4;spacingRight=4;overflow=hidden;rotatable=0;points=[[0,0.5],[1,0.5]];portConstraint=eastwest;rounded=0;shadow=0;html=0;fillColor=#FFCC99;" vertex="1" parent="EyLWrHdkN75MTbtM0SGs-1">
          <mxGeometry y="52" width="240" height="26" as="geometry" />
        </mxCell>
        <mxCell id="EyLWrHdkN75MTbtM0SGs-4" value="private BigDeciamal accountBalance" style="text;align=left;verticalAlign=top;spacingLeft=4;spacingRight=4;overflow=hidden;rotatable=0;points=[[0,0.5],[1,0.5]];portConstraint=eastwest;rounded=0;shadow=0;html=0;fillColor=#FFCC99;" vertex="1" parent="EyLWrHdkN75MTbtM0SGs-1">
          <mxGeometry y="78" width="240" height="26" as="geometry" />
        </mxCell>
        <mxCell id="EyLWrHdkN75MTbtM0SGs-5" value="" style="line;html=1;strokeWidth=1;align=left;verticalAlign=middle;spacingTop=-1;spacingLeft=3;spacingRight=3;rotatable=0;labelPosition=right;points=[];portConstraint=eastwest;" vertex="1" parent="EyLWrHdkN75MTbtM0SGs-1">
          <mxGeometry y="104" width="240" height="8" as="geometry" />
        </mxCell>
        <mxCell id="EyLWrHdkN75MTbtM0SGs-6" value="protected void setAccountId&#xa;" style="text;align=left;verticalAlign=top;spacingLeft=4;spacingRight=4;overflow=hidden;rotatable=0;points=[[0,0.5],[1,0.5]];portConstraint=eastwest;fillColor=#9999FF;" vertex="1" parent="EyLWrHdkN75MTbtM0SGs-1">
          <mxGeometry y="112" width="240" height="26" as="geometry" />
        </mxCell>
        <mxCell id="EyLWrHdkN75MTbtM0SGs-7" value="protected void setUserId" style="text;align=left;verticalAlign=top;spacingLeft=4;spacingRight=4;overflow=hidden;rotatable=0;points=[[0,0.5],[1,0.5]];portConstraint=eastwest;fillColor=#9999FF;" vertex="1" parent="EyLWrHdkN75MTbtM0SGs-1">
          <mxGeometry y="138" width="240" height="26" as="geometry" />
        </mxCell>
        <mxCell id="EyLWrHdkN75MTbtM0SGs-8" value="protected void setAccountBalance" style="text;align=left;verticalAlign=top;spacingLeft=4;spacingRight=4;overflow=hidden;rotatable=0;points=[[0,0.5],[1,0.5]];portConstraint=eastwest;fillColor=#9999FF;" vertex="1" parent="EyLWrHdkN75MTbtM0SGs-1">
          <mxGeometry y="164" width="240" height="26" as="geometry" />
        </mxCell>
        <mxCell id="EyLWrHdkN75MTbtM0SGs-9" value="protected int getAccountId" style="text;align=left;verticalAlign=top;spacingLeft=4;spacingRight=4;overflow=hidden;rotatable=0;points=[[0,0.5],[1,0.5]];portConstraint=eastwest;fillColor=#9999FF;" vertex="1" parent="EyLWrHdkN75MTbtM0SGs-1">
          <mxGeometry y="190" width="240" height="26" as="geometry" />
        </mxCell>
        <mxCell id="EyLWrHdkN75MTbtM0SGs-10" value="protected int getUserId" style="text;align=left;verticalAlign=top;spacingLeft=4;spacingRight=4;overflow=hidden;rotatable=0;points=[[0,0.5],[1,0.5]];portConstraint=eastwest;fillColor=#9999FF;" vertex="1" parent="EyLWrHdkN75MTbtM0SGs-1">
          <mxGeometry y="216" width="240" height="26" as="geometry" />
        </mxCell>
        <mxCell id="EyLWrHdkN75MTbtM0SGs-11" value="protected int getAccountBalance" style="text;align=left;verticalAlign=top;spacingLeft=4;spacingRight=4;overflow=hidden;rotatable=0;points=[[0,0.5],[1,0.5]];portConstraint=eastwest;fillColor=#9999FF;" vertex="1" parent="EyLWrHdkN75MTbtM0SGs-1">
          <mxGeometry y="242" width="240" height="26" as="geometry" />
        </mxCell>
        <mxCell id="EyLWrHdkN75MTbtM0SGs-12" value="Transfer" style="swimlane;fontStyle=1;align=center;verticalAlign=top;childLayout=stackLayout;horizontal=1;startSize=26;horizontalStack=0;resizeParent=1;resizeLast=0;collapsible=1;marginBottom=0;rounded=0;shadow=0;strokeWidth=1;fillColor=#FFFF00;" vertex="1" parent="1">
          <mxGeometry x="440" y="120" width="290" height="666" as="geometry">
            <mxRectangle x="130" y="380" width="160" height="26" as="alternateBounds" />
          </mxGeometry>
        </mxCell>
        <mxCell id="EyLWrHdkN75MTbtM0SGs-13" value="private int transferID" style="text;align=left;verticalAlign=top;spacingLeft=4;spacingRight=4;overflow=hidden;rotatable=0;points=[[0,0.5],[1,0.5]];portConstraint=eastwest;fillColor=#FFCC99;" vertex="1" parent="EyLWrHdkN75MTbtM0SGs-12">
          <mxGeometry y="26" width="290" height="26" as="geometry" />
        </mxCell>
        <mxCell id="EyLWrHdkN75MTbtM0SGs-14" value="private int senderAccountId" style="text;align=left;verticalAlign=top;spacingLeft=4;spacingRight=4;overflow=hidden;rotatable=0;points=[[0,0.5],[1,0.5]];portConstraint=eastwest;rounded=0;shadow=0;html=0;fillColor=#FFCC99;" vertex="1" parent="EyLWrHdkN75MTbtM0SGs-12">
          <mxGeometry y="52" width="290" height="26" as="geometry" />
        </mxCell>
        <mxCell id="EyLWrHdkN75MTbtM0SGs-15" value="private int receiverAccountId" style="text;align=left;verticalAlign=top;spacingLeft=4;spacingRight=4;overflow=hidden;rotatable=0;points=[[0,0.5],[1,0.5]];portConstraint=eastwest;rounded=0;shadow=0;html=0;fillColor=#FFCC99;" vertex="1" parent="EyLWrHdkN75MTbtM0SGs-12">
          <mxGeometry y="78" width="290" height="26" as="geometry" />
        </mxCell>
        <mxCell id="EyLWrHdkN75MTbtM0SGs-16" value="private int statusId" style="text;align=left;verticalAlign=top;spacingLeft=4;spacingRight=4;overflow=hidden;rotatable=0;points=[[0,0.5],[1,0.5]];portConstraint=eastwest;rounded=0;shadow=0;html=0;fillColor=#FFCC99;" vertex="1" parent="EyLWrHdkN75MTbtM0SGs-12">
          <mxGeometry y="104" width="290" height="26" as="geometry" />
        </mxCell>
        <mxCell id="EyLWrHdkN75MTbtM0SGs-17" value="private int typeId" style="text;align=left;verticalAlign=top;spacingLeft=4;spacingRight=4;overflow=hidden;rotatable=0;points=[[0,0.5],[1,0.5]];portConstraint=eastwest;rounded=0;shadow=0;html=0;fillColor=#FFCC99;" vertex="1" parent="EyLWrHdkN75MTbtM0SGs-12">
          <mxGeometry y="130" width="290" height="26" as="geometry" />
        </mxCell>
        <mxCell id="EyLWrHdkN75MTbtM0SGs-34" value="private String transferStatusDescription" style="text;align=left;verticalAlign=top;spacingLeft=4;spacingRight=4;overflow=hidden;rotatable=0;points=[[0,0.5],[1,0.5]];portConstraint=eastwest;fillColor=#FFCC99;" vertex="1" parent="EyLWrHdkN75MTbtM0SGs-12">
          <mxGeometry y="156" width="290" height="26" as="geometry" />
        </mxCell>
        <mxCell id="EyLWrHdkN75MTbtM0SGs-42" value="private String transferTypeDescription" style="text;align=left;verticalAlign=top;spacingLeft=4;spacingRight=4;overflow=hidden;rotatable=0;points=[[0,0.5],[1,0.5]];portConstraint=eastwest;fillColor=#FFCC99;" vertex="1" parent="EyLWrHdkN75MTbtM0SGs-12">
          <mxGeometry y="182" width="290" height="26" as="geometry" />
        </mxCell>
        <mxCell id="EyLWrHdkN75MTbtM0SGs-18" value="private BigDecimal transferAmount" style="text;align=left;verticalAlign=top;spacingLeft=4;spacingRight=4;overflow=hidden;rotatable=0;points=[[0,0.5],[1,0.5]];portConstraint=eastwest;rounded=0;shadow=0;html=0;fillColor=#FFCC99;" vertex="1" parent="EyLWrHdkN75MTbtM0SGs-12">
          <mxGeometry y="208" width="290" height="26" as="geometry" />
        </mxCell>
        <mxCell id="EyLWrHdkN75MTbtM0SGs-35" value="" style="line;html=1;strokeWidth=1;align=left;verticalAlign=middle;spacingTop=-1;spacingLeft=3;spacingRight=3;rotatable=0;labelPosition=right;points=[];portConstraint=eastwest;fillColor=#FFCC99;" vertex="1" parent="EyLWrHdkN75MTbtM0SGs-12">
          <mxGeometry y="234" width="290" height="8" as="geometry" />
        </mxCell>
        <mxCell id="EyLWrHdkN75MTbtM0SGs-19" value="" style="line;html=1;strokeWidth=1;align=left;verticalAlign=middle;spacingTop=-1;spacingLeft=3;spacingRight=3;rotatable=0;labelPosition=right;points=[];portConstraint=eastwest;fillColor=#9999FF;" vertex="1" parent="EyLWrHdkN75MTbtM0SGs-12">
          <mxGeometry y="242" width="290" height="8" as="geometry" />
        </mxCell>
        <mxCell id="EyLWrHdkN75MTbtM0SGs-20" value="protected void setTransferId" style="text;align=left;verticalAlign=top;spacingLeft=4;spacingRight=4;overflow=hidden;rotatable=0;points=[[0,0.5],[1,0.5]];portConstraint=eastwest;fontStyle=0;fillColor=#9999FF;" vertex="1" parent="EyLWrHdkN75MTbtM0SGs-12">
          <mxGeometry y="250" width="290" height="26" as="geometry" />
        </mxCell>
        <mxCell id="EyLWrHdkN75MTbtM0SGs-21" value="protected void setSenderAccountId" style="text;align=left;verticalAlign=top;spacingLeft=4;spacingRight=4;overflow=hidden;rotatable=0;points=[[0,0.5],[1,0.5]];portConstraint=eastwest;fillColor=#9999FF;" vertex="1" parent="EyLWrHdkN75MTbtM0SGs-12">
          <mxGeometry y="276" width="290" height="26" as="geometry" />
        </mxCell>
        <mxCell id="EyLWrHdkN75MTbtM0SGs-37" value="protected void setTransferStatusDescription" style="text;align=left;verticalAlign=top;spacingLeft=4;spacingRight=4;overflow=hidden;rotatable=0;points=[[0,0.5],[1,0.5]];portConstraint=eastwest;fillColor=#9999FF;" vertex="1" parent="EyLWrHdkN75MTbtM0SGs-12">
          <mxGeometry y="302" width="290" height="26" as="geometry" />
        </mxCell>
        <mxCell id="EyLWrHdkN75MTbtM0SGs-39" value="protected String getTransferStatusDescription" style="text;align=left;verticalAlign=top;spacingLeft=4;spacingRight=4;overflow=hidden;rotatable=0;points=[[0,0.5],[1,0.5]];portConstraint=eastwest;fillColor=#9999FF;" vertex="1" parent="EyLWrHdkN75MTbtM0SGs-12">
          <mxGeometry y="328" width="290" height="26" as="geometry" />
        </mxCell>
        <mxCell id="EyLWrHdkN75MTbtM0SGs-45" value="protected void setTransferTypeDescription" style="text;align=left;verticalAlign=top;spacingLeft=4;spacingRight=4;overflow=hidden;rotatable=0;points=[[0,0.5],[1,0.5]];portConstraint=eastwest;fillColor=#9999FF;" vertex="1" parent="EyLWrHdkN75MTbtM0SGs-12">
          <mxGeometry y="354" width="290" height="26" as="geometry" />
        </mxCell>
        <mxCell id="EyLWrHdkN75MTbtM0SGs-47" value="protected String getTransferTypeDescription" style="text;align=left;verticalAlign=top;spacingLeft=4;spacingRight=4;overflow=hidden;rotatable=0;points=[[0,0.5],[1,0.5]];portConstraint=eastwest;fillColor=#9999FF;" vertex="1" parent="EyLWrHdkN75MTbtM0SGs-12">
          <mxGeometry y="380" width="290" height="26" as="geometry" />
        </mxCell>
        <mxCell id="EyLWrHdkN75MTbtM0SGs-22" value="protected void setRecieverAccountId" style="text;align=left;verticalAlign=top;spacingLeft=4;spacingRight=4;overflow=hidden;rotatable=0;points=[[0,0.5],[1,0.5]];portConstraint=eastwest;rounded=0;shadow=0;html=0;fillColor=#9999FF;" vertex="1" parent="EyLWrHdkN75MTbtM0SGs-12">
          <mxGeometry y="406" width="290" height="26" as="geometry" />
        </mxCell>
        <mxCell id="EyLWrHdkN75MTbtM0SGs-23" value="protected void setStatusId" style="text;align=left;verticalAlign=top;spacingLeft=4;spacingRight=4;overflow=hidden;rotatable=0;points=[[0,0.5],[1,0.5]];portConstraint=eastwest;rounded=0;shadow=0;html=0;fillColor=#9999FF;" vertex="1" parent="EyLWrHdkN75MTbtM0SGs-12">
          <mxGeometry y="432" width="290" height="26" as="geometry" />
        </mxCell>
        <mxCell id="EyLWrHdkN75MTbtM0SGs-24" value="protected void setTypeId" style="text;align=left;verticalAlign=top;spacingLeft=4;spacingRight=4;overflow=hidden;rotatable=0;points=[[0,0.5],[1,0.5]];portConstraint=eastwest;rounded=0;shadow=0;html=0;fillColor=#9999FF;" vertex="1" parent="EyLWrHdkN75MTbtM0SGs-12">
          <mxGeometry y="458" width="290" height="26" as="geometry" />
        </mxCell>
        <mxCell id="EyLWrHdkN75MTbtM0SGs-25" value="protected void setTransferAmount" style="text;align=left;verticalAlign=top;spacingLeft=4;spacingRight=4;overflow=hidden;rotatable=0;points=[[0,0.5],[1,0.5]];portConstraint=eastwest;rounded=0;shadow=0;html=0;fillColor=#9999FF;" vertex="1" parent="EyLWrHdkN75MTbtM0SGs-12">
          <mxGeometry y="484" width="290" height="26" as="geometry" />
        </mxCell>
        <mxCell id="EyLWrHdkN75MTbtM0SGs-26" value="protected int getTransferId" style="text;align=left;verticalAlign=top;spacingLeft=4;spacingRight=4;overflow=hidden;rotatable=0;points=[[0,0.5],[1,0.5]];portConstraint=eastwest;rounded=0;shadow=0;html=0;fillColor=#9999FF;" vertex="1" parent="EyLWrHdkN75MTbtM0SGs-12">
          <mxGeometry y="510" width="290" height="26" as="geometry" />
        </mxCell>
        <mxCell id="EyLWrHdkN75MTbtM0SGs-27" value="protected int getSenderAccountId" style="text;align=left;verticalAlign=top;spacingLeft=4;spacingRight=4;overflow=hidden;rotatable=0;points=[[0,0.5],[1,0.5]];portConstraint=eastwest;rounded=0;shadow=0;html=0;fillColor=#9999FF;" vertex="1" parent="EyLWrHdkN75MTbtM0SGs-12">
          <mxGeometry y="536" width="290" height="26" as="geometry" />
        </mxCell>
        <mxCell id="EyLWrHdkN75MTbtM0SGs-28" value="protected int getReceiverAccountId" style="text;align=left;verticalAlign=top;spacingLeft=4;spacingRight=4;overflow=hidden;rotatable=0;points=[[0,0.5],[1,0.5]];portConstraint=eastwest;rounded=0;shadow=0;html=0;fillColor=#9999FF;" vertex="1" parent="EyLWrHdkN75MTbtM0SGs-12">
          <mxGeometry y="562" width="290" height="26" as="geometry" />
        </mxCell>
        <mxCell id="EyLWrHdkN75MTbtM0SGs-29" value="protected int getStatusId" style="text;align=left;verticalAlign=top;spacingLeft=4;spacingRight=4;overflow=hidden;rotatable=0;points=[[0,0.5],[1,0.5]];portConstraint=eastwest;rounded=0;shadow=0;html=0;fillColor=#9999FF;" vertex="1" parent="EyLWrHdkN75MTbtM0SGs-12">
          <mxGeometry y="588" width="290" height="26" as="geometry" />
        </mxCell>
        <mxCell id="EyLWrHdkN75MTbtM0SGs-30" value="protected int getTypeId" style="text;align=left;verticalAlign=top;spacingLeft=4;spacingRight=4;overflow=hidden;rotatable=0;points=[[0,0.5],[1,0.5]];portConstraint=eastwest;rounded=0;shadow=0;html=0;fillColor=#9999FF;" vertex="1" parent="EyLWrHdkN75MTbtM0SGs-12">
          <mxGeometry y="614" width="290" height="26" as="geometry" />
        </mxCell>
        <mxCell id="EyLWrHdkN75MTbtM0SGs-31" value="protected int getTransferAmount" style="text;align=left;verticalAlign=top;spacingLeft=4;spacingRight=4;overflow=hidden;rotatable=0;points=[[0,0.5],[1,0.5]];portConstraint=eastwest;rounded=0;shadow=0;html=0;fillColor=#9999FF;" vertex="1" parent="EyLWrHdkN75MTbtM0SGs-12">
          <mxGeometry y="640" width="290" height="26" as="geometry" />
        </mxCell>
      </root>
    </mxGraphModel>
  </diagram>
  <diagram id="NBn0TfiwziGV2tYdnieh" name="TEnmo - Endpoint Details">
    <mxGraphModel grid="1" page="1" gridSize="10" guides="1" tooltips="1" connect="1" arrows="1" fold="1" pageScale="1" pageWidth="850" pageHeight="1100" math="0" shadow="0">
      <root>
        <mxCell id="0" />
        <mxCell id="1" parent="0" />
        <mxCell id="oFUuiq7L6QRVvx62lv0i-1" value="&lt;h1&gt;This is an Endpoint Design Document. 1 Diagram per project.&lt;/h1&gt;&lt;div&gt;&lt;br&gt;&lt;/div&gt;" style="text;html=1;strokeColor=none;fillColor=none;spacing=5;spacingTop=-20;whiteSpace=wrap;overflow=hidden;rounded=0;" vertex="1" parent="1">
          <mxGeometry x="40" y="10" width="730" height="120" as="geometry" />
        </mxCell>
        <mxCell id="awLVpeMQ1lUSbqIpcGtv-1" value="Endpoint Design For TEnmo" style="shape=table;startSize=30;container=1;collapsible=0;childLayout=tableLayout;strokeColor=default;fontSize=19;fontStyle=1;fillColor=#FFCCCC;" vertex="1" parent="1">
          <mxGeometry x="80" y="170" width="1390" height="660" as="geometry" />
        </mxCell>
        <mxCell id="awLVpeMQ1lUSbqIpcGtv-2" value="" style="shape=tableRow;horizontal=0;startSize=0;swimlaneHead=0;swimlaneBody=0;strokeColor=inherit;top=0;left=0;bottom=0;right=0;collapsible=0;dropTarget=0;fillColor=none;points=[[0,0.5],[1,0.5]];portConstraint=eastwest;fontSize=16;" vertex="1" parent="awLVpeMQ1lUSbqIpcGtv-1">
          <mxGeometry y="30" width="1390" height="30" as="geometry" />
        </mxCell>
        <mxCell id="awLVpeMQ1lUSbqIpcGtv-3" value="Endpoint" style="shape=partialRectangle;html=1;whiteSpace=wrap;connectable=0;strokeColor=#666666;overflow=hidden;fillColor=#f5f5f5;top=0;left=0;bottom=0;right=0;pointerEvents=1;fontSize=18;fontColor=#333333;fontStyle=1" vertex="1" parent="awLVpeMQ1lUSbqIpcGtv-2">
          <mxGeometry width="279" height="30" as="geometry">
            <mxRectangle width="279" height="30" as="alternateBounds" />
          </mxGeometry>
        </mxCell>
        <mxCell id="awLVpeMQ1lUSbqIpcGtv-4" value="Method" style="shape=partialRectangle;html=1;whiteSpace=wrap;connectable=0;strokeColor=#666666;overflow=hidden;fillColor=#f5f5f5;top=0;left=0;bottom=0;right=0;pointerEvents=1;fontSize=18;fontColor=#333333;fontStyle=1" vertex="1" parent="awLVpeMQ1lUSbqIpcGtv-2">
          <mxGeometry x="279" width="277" height="30" as="geometry">
            <mxRectangle width="277" height="30" as="alternateBounds" />
          </mxGeometry>
        </mxCell>
        <mxCell id="awLVpeMQ1lUSbqIpcGtv-5" value="Description" style="shape=partialRectangle;html=1;whiteSpace=wrap;connectable=0;strokeColor=#666666;overflow=hidden;fillColor=#f5f5f5;top=0;left=0;bottom=0;right=0;pointerEvents=1;fontSize=18;fontColor=#333333;fontStyle=1" vertex="1" parent="awLVpeMQ1lUSbqIpcGtv-2">
          <mxGeometry x="556" width="278" height="30" as="geometry">
            <mxRectangle width="278" height="30" as="alternateBounds" />
          </mxGeometry>
        </mxCell>
        <mxCell id="awLVpeMQ1lUSbqIpcGtv-6" value="Success" style="shape=partialRectangle;html=1;whiteSpace=wrap;connectable=0;strokeColor=#666666;overflow=hidden;fillColor=#f5f5f5;top=0;left=0;bottom=0;right=0;pointerEvents=1;fontSize=18;fontColor=#333333;fontStyle=1" vertex="1" parent="awLVpeMQ1lUSbqIpcGtv-2">
          <mxGeometry x="834" width="277" height="30" as="geometry">
            <mxRectangle width="277" height="30" as="alternateBounds" />
          </mxGeometry>
        </mxCell>
        <mxCell id="awLVpeMQ1lUSbqIpcGtv-7" value="Error" style="shape=partialRectangle;html=1;whiteSpace=wrap;connectable=0;strokeColor=#666666;overflow=hidden;fillColor=#f5f5f5;top=0;left=0;bottom=0;right=0;pointerEvents=1;fontSize=18;fontColor=#333333;fontStyle=1" vertex="1" parent="awLVpeMQ1lUSbqIpcGtv-2">
          <mxGeometry x="1111" width="279" height="30" as="geometry">
            <mxRectangle width="279" height="30" as="alternateBounds" />
          </mxGeometry>
        </mxCell>
        <mxCell id="awLVpeMQ1lUSbqIpcGtv-8" value="" style="shape=tableRow;horizontal=0;startSize=0;swimlaneHead=0;swimlaneBody=0;strokeColor=inherit;top=0;left=0;bottom=0;right=0;collapsible=0;dropTarget=0;fillColor=none;points=[[0,0.5],[1,0.5]];portConstraint=eastwest;fontSize=16;" vertex="1" parent="awLVpeMQ1lUSbqIpcGtv-1">
          <mxGeometry y="60" width="1390" height="40" as="geometry" />
        </mxCell>
        <mxCell id="awLVpeMQ1lUSbqIpcGtv-9" value="/register" style="shape=partialRectangle;html=1;whiteSpace=wrap;connectable=0;strokeColor=inherit;overflow=hidden;fillColor=none;top=0;left=0;bottom=0;right=0;pointerEvents=1;fontSize=16;" vertex="1" parent="awLVpeMQ1lUSbqIpcGtv-8">
          <mxGeometry width="279" height="40" as="geometry">
            <mxRectangle width="279" height="40" as="alternateBounds" />
          </mxGeometry>
        </mxCell>
        <mxCell id="awLVpeMQ1lUSbqIpcGtv-10" value="POST" style="shape=partialRectangle;html=1;whiteSpace=wrap;connectable=0;strokeColor=inherit;overflow=hidden;fillColor=none;top=0;left=0;bottom=0;right=0;pointerEvents=1;fontSize=16;" vertex="1" parent="awLVpeMQ1lUSbqIpcGtv-8">
          <mxGeometry x="279" width="277" height="40" as="geometry">
            <mxRectangle width="277" height="40" as="alternateBounds" />
          </mxGeometry>
        </mxCell>
        <mxCell id="awLVpeMQ1lUSbqIpcGtv-11" value="Creates a new User Account." style="shape=partialRectangle;html=1;whiteSpace=wrap;connectable=0;strokeColor=inherit;overflow=hidden;fillColor=none;top=0;left=0;bottom=0;right=0;pointerEvents=1;fontSize=16;" vertex="1" parent="awLVpeMQ1lUSbqIpcGtv-8">
          <mxGeometry x="556" width="278" height="40" as="geometry">
            <mxRectangle width="278" height="40" as="alternateBounds" />
          </mxGeometry>
        </mxCell>
        <mxCell id="awLVpeMQ1lUSbqIpcGtv-12" value="201 - Created" style="shape=partialRectangle;html=1;whiteSpace=wrap;connectable=0;strokeColor=inherit;overflow=hidden;fillColor=none;top=0;left=0;bottom=0;right=0;pointerEvents=1;fontSize=16;" vertex="1" parent="awLVpeMQ1lUSbqIpcGtv-8">
          <mxGeometry x="834" width="277" height="40" as="geometry">
            <mxRectangle width="277" height="40" as="alternateBounds" />
          </mxGeometry>
        </mxCell>
        <mxCell id="awLVpeMQ1lUSbqIpcGtv-13" value="400 - Bad Request" style="shape=partialRectangle;html=1;whiteSpace=wrap;connectable=0;strokeColor=inherit;overflow=hidden;fillColor=none;top=0;left=0;bottom=0;right=0;pointerEvents=1;fontSize=16;" vertex="1" parent="awLVpeMQ1lUSbqIpcGtv-8">
          <mxGeometry x="1111" width="279" height="40" as="geometry">
            <mxRectangle width="279" height="40" as="alternateBounds" />
          </mxGeometry>
        </mxCell>
        <mxCell id="awLVpeMQ1lUSbqIpcGtv-14" value="" style="shape=tableRow;horizontal=0;startSize=0;swimlaneHead=0;swimlaneBody=0;strokeColor=inherit;top=0;left=0;bottom=0;right=0;collapsible=0;dropTarget=0;fillColor=none;points=[[0,0.5],[1,0.5]];portConstraint=eastwest;fontSize=16;" vertex="1" parent="awLVpeMQ1lUSbqIpcGtv-1">
          <mxGeometry y="100" width="1390" height="40" as="geometry" />
        </mxCell>
        <mxCell id="awLVpeMQ1lUSbqIpcGtv-15" value="/login" style="shape=partialRectangle;html=1;whiteSpace=wrap;connectable=0;strokeColor=inherit;overflow=hidden;fillColor=none;top=0;left=0;bottom=0;right=0;pointerEvents=1;fontSize=16;" vertex="1" parent="awLVpeMQ1lUSbqIpcGtv-14">
          <mxGeometry width="279" height="40" as="geometry">
            <mxRectangle width="279" height="40" as="alternateBounds" />
          </mxGeometry>
        </mxCell>
        <mxCell id="awLVpeMQ1lUSbqIpcGtv-16" value="POST" style="shape=partialRectangle;html=1;whiteSpace=wrap;connectable=0;strokeColor=inherit;overflow=hidden;fillColor=none;top=0;left=0;bottom=0;right=0;pointerEvents=1;fontSize=16;" vertex="1" parent="awLVpeMQ1lUSbqIpcGtv-14">
          <mxGeometry x="279" width="277" height="40" as="geometry">
            <mxRectangle width="277" height="40" as="alternateBounds" />
          </mxGeometry>
        </mxCell>
        <mxCell id="awLVpeMQ1lUSbqIpcGtv-17" value="Retrieves JWT Token" style="shape=partialRectangle;html=1;whiteSpace=wrap;connectable=0;strokeColor=inherit;overflow=hidden;fillColor=none;top=0;left=0;bottom=0;right=0;pointerEvents=1;fontSize=16;" vertex="1" parent="awLVpeMQ1lUSbqIpcGtv-14">
          <mxGeometry x="556" width="278" height="40" as="geometry">
            <mxRectangle width="278" height="40" as="alternateBounds" />
          </mxGeometry>
        </mxCell>
        <mxCell id="awLVpeMQ1lUSbqIpcGtv-18" value="200 -&amp;nbsp; OK" style="shape=partialRectangle;html=1;whiteSpace=wrap;connectable=0;strokeColor=inherit;overflow=hidden;fillColor=none;top=0;left=0;bottom=0;right=0;pointerEvents=1;fontSize=16;" vertex="1" parent="awLVpeMQ1lUSbqIpcGtv-14">
          <mxGeometry x="834" width="277" height="40" as="geometry">
            <mxRectangle width="277" height="40" as="alternateBounds" />
          </mxGeometry>
        </mxCell>
        <mxCell id="awLVpeMQ1lUSbqIpcGtv-19" value="401 - Not Authorized" style="shape=partialRectangle;html=1;whiteSpace=wrap;connectable=0;strokeColor=inherit;overflow=hidden;fillColor=none;top=0;left=0;bottom=0;right=0;pointerEvents=1;fontSize=16;" vertex="1" parent="awLVpeMQ1lUSbqIpcGtv-14">
          <mxGeometry x="1111" width="279" height="40" as="geometry">
            <mxRectangle width="279" height="40" as="alternateBounds" />
          </mxGeometry>
        </mxCell>
        <mxCell id="awLVpeMQ1lUSbqIpcGtv-20" style="shape=tableRow;horizontal=0;startSize=0;swimlaneHead=0;swimlaneBody=0;strokeColor=inherit;top=0;left=0;bottom=0;right=0;collapsible=0;dropTarget=0;fillColor=none;points=[[0,0.5],[1,0.5]];portConstraint=eastwest;fontSize=16;" vertex="1" parent="awLVpeMQ1lUSbqIpcGtv-1">
          <mxGeometry y="140" width="1390" height="40" as="geometry" />
        </mxCell>
        <mxCell id="awLVpeMQ1lUSbqIpcGtv-21" value="" style="shape=partialRectangle;html=1;whiteSpace=wrap;connectable=0;strokeColor=inherit;overflow=hidden;fillColor=none;top=0;left=0;bottom=0;right=0;pointerEvents=1;fontSize=16;" vertex="1" parent="awLVpeMQ1lUSbqIpcGtv-20">
          <mxGeometry width="279" height="40" as="geometry">
            <mxRectangle width="279" height="40" as="alternateBounds" />
          </mxGeometry>
        </mxCell>
        <mxCell id="awLVpeMQ1lUSbqIpcGtv-22" value="" style="shape=partialRectangle;html=1;whiteSpace=wrap;connectable=0;strokeColor=inherit;overflow=hidden;fillColor=none;top=0;left=0;bottom=0;right=0;pointerEvents=1;fontSize=16;" vertex="1" parent="awLVpeMQ1lUSbqIpcGtv-20">
          <mxGeometry x="279" width="277" height="40" as="geometry">
            <mxRectangle width="277" height="40" as="alternateBounds" />
          </mxGeometry>
        </mxCell>
        <mxCell id="awLVpeMQ1lUSbqIpcGtv-23" value="" style="shape=partialRectangle;html=1;whiteSpace=wrap;connectable=0;strokeColor=inherit;overflow=hidden;fillColor=none;top=0;left=0;bottom=0;right=0;pointerEvents=1;fontSize=16;" vertex="1" parent="awLVpeMQ1lUSbqIpcGtv-20">
          <mxGeometry x="556" width="278" height="40" as="geometry">
            <mxRectangle width="278" height="40" as="alternateBounds" />
          </mxGeometry>
        </mxCell>
        <mxCell id="awLVpeMQ1lUSbqIpcGtv-24" value="" style="shape=partialRectangle;html=1;whiteSpace=wrap;connectable=0;strokeColor=inherit;overflow=hidden;fillColor=none;top=0;left=0;bottom=0;right=0;pointerEvents=1;fontSize=16;" vertex="1" parent="awLVpeMQ1lUSbqIpcGtv-20">
          <mxGeometry x="834" width="277" height="40" as="geometry">
            <mxRectangle width="277" height="40" as="alternateBounds" />
          </mxGeometry>
        </mxCell>
        <mxCell id="awLVpeMQ1lUSbqIpcGtv-25" value="" style="shape=partialRectangle;html=1;whiteSpace=wrap;connectable=0;strokeColor=inherit;overflow=hidden;fillColor=none;top=0;left=0;bottom=0;right=0;pointerEvents=1;fontSize=16;" vertex="1" parent="awLVpeMQ1lUSbqIpcGtv-20">
          <mxGeometry x="1111" width="279" height="40" as="geometry">
            <mxRectangle width="279" height="40" as="alternateBounds" />
          </mxGeometry>
        </mxCell>
        <mxCell id="awLVpeMQ1lUSbqIpcGtv-26" style="shape=tableRow;horizontal=0;startSize=0;swimlaneHead=0;swimlaneBody=0;strokeColor=inherit;top=0;left=0;bottom=0;right=0;collapsible=0;dropTarget=0;fillColor=none;points=[[0,0.5],[1,0.5]];portConstraint=eastwest;fontSize=16;" vertex="1" parent="awLVpeMQ1lUSbqIpcGtv-1">
          <mxGeometry y="180" width="1390" height="40" as="geometry" />
        </mxCell>
        <mxCell id="awLVpeMQ1lUSbqIpcGtv-27" value="/transfers/{transferId}" style="shape=partialRectangle;html=1;whiteSpace=wrap;connectable=0;strokeColor=inherit;overflow=hidden;fillColor=#FFCCCC;top=0;left=0;bottom=0;right=0;pointerEvents=1;fontSize=16;" vertex="1" parent="awLVpeMQ1lUSbqIpcGtv-26">
          <mxGeometry width="279" height="40" as="geometry">
            <mxRectangle width="279" height="40" as="alternateBounds" />
          </mxGeometry>
        </mxCell>
        <mxCell id="awLVpeMQ1lUSbqIpcGtv-28" value="GET&lt;span style=&quot;white-space: pre;&quot;&gt;&#x9;&lt;/span&gt;" style="shape=partialRectangle;html=1;whiteSpace=wrap;connectable=0;strokeColor=inherit;overflow=hidden;fillColor=none;top=0;left=0;bottom=0;right=0;pointerEvents=1;fontSize=16;" vertex="1" parent="awLVpeMQ1lUSbqIpcGtv-26">
          <mxGeometry x="279" width="277" height="40" as="geometry">
            <mxRectangle width="277" height="40" as="alternateBounds" />
          </mxGeometry>
        </mxCell>
        <mxCell id="awLVpeMQ1lUSbqIpcGtv-29" value="Retrieves transfer by ID" style="shape=partialRectangle;html=1;whiteSpace=wrap;connectable=0;strokeColor=inherit;overflow=hidden;fillColor=none;top=0;left=0;bottom=0;right=0;pointerEvents=1;fontSize=16;" vertex="1" parent="awLVpeMQ1lUSbqIpcGtv-26">
          <mxGeometry x="556" width="278" height="40" as="geometry">
            <mxRectangle width="278" height="40" as="alternateBounds" />
          </mxGeometry>
        </mxCell>
        <mxCell id="awLVpeMQ1lUSbqIpcGtv-30" value="200 - OK&amp;nbsp;" style="shape=partialRectangle;html=1;whiteSpace=wrap;connectable=0;strokeColor=inherit;overflow=hidden;fillColor=none;top=0;left=0;bottom=0;right=0;pointerEvents=1;fontSize=16;" vertex="1" parent="awLVpeMQ1lUSbqIpcGtv-26">
          <mxGeometry x="834" width="277" height="40" as="geometry">
            <mxRectangle width="277" height="40" as="alternateBounds" />
          </mxGeometry>
        </mxCell>
        <mxCell id="awLVpeMQ1lUSbqIpcGtv-31" value="401 - Not Authorized" style="shape=partialRectangle;html=1;whiteSpace=wrap;connectable=0;strokeColor=inherit;overflow=hidden;fillColor=none;top=0;left=0;bottom=0;right=0;pointerEvents=1;fontSize=16;" vertex="1" parent="awLVpeMQ1lUSbqIpcGtv-26">
          <mxGeometry x="1111" width="279" height="40" as="geometry">
            <mxRectangle width="279" height="40" as="alternateBounds" />
          </mxGeometry>
        </mxCell>
        <mxCell id="awLVpeMQ1lUSbqIpcGtv-32" style="shape=tableRow;horizontal=0;startSize=0;swimlaneHead=0;swimlaneBody=0;strokeColor=inherit;top=0;left=0;bottom=0;right=0;collapsible=0;dropTarget=0;fillColor=none;points=[[0,0.5],[1,0.5]];portConstraint=eastwest;fontSize=16;" vertex="1" parent="awLVpeMQ1lUSbqIpcGtv-1">
          <mxGeometry y="220" width="1390" height="40" as="geometry" />
        </mxCell>
        <mxCell id="awLVpeMQ1lUSbqIpcGtv-33" value="/accounts/transfers" style="shape=partialRectangle;html=1;whiteSpace=wrap;connectable=0;strokeColor=inherit;overflow=hidden;fillColor=#FFCCCC;top=0;left=0;bottom=0;right=0;pointerEvents=1;fontSize=16;" vertex="1" parent="awLVpeMQ1lUSbqIpcGtv-32">
          <mxGeometry width="279" height="40" as="geometry">
            <mxRectangle width="279" height="40" as="alternateBounds" />
          </mxGeometry>
        </mxCell>
        <mxCell id="awLVpeMQ1lUSbqIpcGtv-34" value="GET" style="shape=partialRectangle;html=1;whiteSpace=wrap;connectable=0;strokeColor=inherit;overflow=hidden;fillColor=none;top=0;left=0;bottom=0;right=0;pointerEvents=1;fontSize=16;" vertex="1" parent="awLVpeMQ1lUSbqIpcGtv-32">
          <mxGeometry x="279" width="277" height="40" as="geometry">
            <mxRectangle width="277" height="40" as="alternateBounds" />
          </mxGeometry>
        </mxCell>
        <mxCell id="awLVpeMQ1lUSbqIpcGtv-35" value="Retrieves list of all transfers" style="shape=partialRectangle;html=1;whiteSpace=wrap;connectable=0;strokeColor=inherit;overflow=hidden;fillColor=none;top=0;left=0;bottom=0;right=0;pointerEvents=1;fontSize=16;" vertex="1" parent="awLVpeMQ1lUSbqIpcGtv-32">
          <mxGeometry x="556" width="278" height="40" as="geometry">
            <mxRectangle width="278" height="40" as="alternateBounds" />
          </mxGeometry>
        </mxCell>
        <mxCell id="awLVpeMQ1lUSbqIpcGtv-36" value="200 - OK" style="shape=partialRectangle;html=1;whiteSpace=wrap;connectable=0;strokeColor=inherit;overflow=hidden;fillColor=none;top=0;left=0;bottom=0;right=0;pointerEvents=1;fontSize=16;" vertex="1" parent="awLVpeMQ1lUSbqIpcGtv-32">
          <mxGeometry x="834" width="277" height="40" as="geometry">
            <mxRectangle width="277" height="40" as="alternateBounds" />
          </mxGeometry>
        </mxCell>
        <mxCell id="awLVpeMQ1lUSbqIpcGtv-37" value="401 - Not Authorized" style="shape=partialRectangle;html=1;whiteSpace=wrap;connectable=0;strokeColor=inherit;overflow=hidden;fillColor=none;top=0;left=0;bottom=0;right=0;pointerEvents=1;fontSize=16;" vertex="1" parent="awLVpeMQ1lUSbqIpcGtv-32">
          <mxGeometry x="1111" width="279" height="40" as="geometry">
            <mxRectangle width="279" height="40" as="alternateBounds" />
          </mxGeometry>
        </mxCell>
        <mxCell id="awLVpeMQ1lUSbqIpcGtv-38" style="shape=tableRow;horizontal=0;startSize=0;swimlaneHead=0;swimlaneBody=0;strokeColor=inherit;top=0;left=0;bottom=0;right=0;collapsible=0;dropTarget=0;fillColor=none;points=[[0,0.5],[1,0.5]];portConstraint=eastwest;fontSize=16;" vertex="1" parent="awLVpeMQ1lUSbqIpcGtv-1">
          <mxGeometry y="260" width="1390" height="40" as="geometry" />
        </mxCell>
        <mxCell id="awLVpeMQ1lUSbqIpcGtv-39" value="/transfers" style="shape=partialRectangle;html=1;whiteSpace=wrap;connectable=0;strokeColor=inherit;overflow=hidden;fillColor=#FFCCCC;top=0;left=0;bottom=0;right=0;pointerEvents=1;fontSize=16;" vertex="1" parent="awLVpeMQ1lUSbqIpcGtv-38">
          <mxGeometry width="279" height="40" as="geometry">
            <mxRectangle width="279" height="40" as="alternateBounds" />
          </mxGeometry>
        </mxCell>
        <mxCell id="awLVpeMQ1lUSbqIpcGtv-40" value="POST" style="shape=partialRectangle;html=1;whiteSpace=wrap;connectable=0;strokeColor=inherit;overflow=hidden;fillColor=none;top=0;left=0;bottom=0;right=0;pointerEvents=1;fontSize=16;" vertex="1" parent="awLVpeMQ1lUSbqIpcGtv-38">
          <mxGeometry x="279" width="277" height="40" as="geometry">
            <mxRectangle width="277" height="40" as="alternateBounds" />
          </mxGeometry>
        </mxCell>
        <mxCell id="awLVpeMQ1lUSbqIpcGtv-41" value="Creates new transfer" style="shape=partialRectangle;html=1;whiteSpace=wrap;connectable=0;strokeColor=inherit;overflow=hidden;fillColor=none;top=0;left=0;bottom=0;right=0;pointerEvents=1;fontSize=16;" vertex="1" parent="awLVpeMQ1lUSbqIpcGtv-38">
          <mxGeometry x="556" width="278" height="40" as="geometry">
            <mxRectangle width="278" height="40" as="alternateBounds" />
          </mxGeometry>
        </mxCell>
        <mxCell id="awLVpeMQ1lUSbqIpcGtv-42" value="201 -&amp;nbsp; Created" style="shape=partialRectangle;html=1;whiteSpace=wrap;connectable=0;strokeColor=inherit;overflow=hidden;fillColor=none;top=0;left=0;bottom=0;right=0;pointerEvents=1;fontSize=16;" vertex="1" parent="awLVpeMQ1lUSbqIpcGtv-38">
          <mxGeometry x="834" width="277" height="40" as="geometry">
            <mxRectangle width="277" height="40" as="alternateBounds" />
          </mxGeometry>
        </mxCell>
        <mxCell id="awLVpeMQ1lUSbqIpcGtv-43" value="400 - Bad Request" style="shape=partialRectangle;html=1;whiteSpace=wrap;connectable=0;strokeColor=inherit;overflow=hidden;fillColor=none;top=0;left=0;bottom=0;right=0;pointerEvents=1;fontSize=16;" vertex="1" parent="awLVpeMQ1lUSbqIpcGtv-38">
          <mxGeometry x="1111" width="279" height="40" as="geometry">
            <mxRectangle width="279" height="40" as="alternateBounds" />
          </mxGeometry>
        </mxCell>
        <mxCell id="awLVpeMQ1lUSbqIpcGtv-44" style="shape=tableRow;horizontal=0;startSize=0;swimlaneHead=0;swimlaneBody=0;strokeColor=inherit;top=0;left=0;bottom=0;right=0;collapsible=0;dropTarget=0;fillColor=none;points=[[0,0.5],[1,0.5]];portConstraint=eastwest;fontSize=16;" vertex="1" parent="awLVpeMQ1lUSbqIpcGtv-1">
          <mxGeometry y="300" width="1390" height="40" as="geometry" />
        </mxCell>
        <mxCell id="awLVpeMQ1lUSbqIpcGtv-45" value="/transfers/{transferId}" style="shape=partialRectangle;html=1;whiteSpace=wrap;connectable=0;strokeColor=inherit;overflow=hidden;fillColor=#FFCCCC;top=0;left=0;bottom=0;right=0;pointerEvents=1;fontSize=16;" vertex="1" parent="awLVpeMQ1lUSbqIpcGtv-44">
          <mxGeometry width="279" height="40" as="geometry">
            <mxRectangle width="279" height="40" as="alternateBounds" />
          </mxGeometry>
        </mxCell>
        <mxCell id="awLVpeMQ1lUSbqIpcGtv-46" value="PUT" style="shape=partialRectangle;html=1;whiteSpace=wrap;connectable=0;strokeColor=inherit;overflow=hidden;fillColor=none;top=0;left=0;bottom=0;right=0;pointerEvents=1;fontSize=16;" vertex="1" parent="awLVpeMQ1lUSbqIpcGtv-44">
          <mxGeometry x="279" width="277" height="40" as="geometry">
            <mxRectangle width="277" height="40" as="alternateBounds" />
          </mxGeometry>
        </mxCell>
        <mxCell id="awLVpeMQ1lUSbqIpcGtv-47" value="Update transfer status by transfer ID" style="shape=partialRectangle;html=1;whiteSpace=wrap;connectable=0;strokeColor=inherit;overflow=hidden;fillColor=none;top=0;left=0;bottom=0;right=0;pointerEvents=1;fontSize=16;" vertex="1" parent="awLVpeMQ1lUSbqIpcGtv-44">
          <mxGeometry x="556" width="278" height="40" as="geometry">
            <mxRectangle width="278" height="40" as="alternateBounds" />
          </mxGeometry>
        </mxCell>
        <mxCell id="awLVpeMQ1lUSbqIpcGtv-48" value="200 - OK" style="shape=partialRectangle;html=1;whiteSpace=wrap;connectable=0;strokeColor=inherit;overflow=hidden;fillColor=none;top=0;left=0;bottom=0;right=0;pointerEvents=1;fontSize=16;" vertex="1" parent="awLVpeMQ1lUSbqIpcGtv-44">
          <mxGeometry x="834" width="277" height="40" as="geometry">
            <mxRectangle width="277" height="40" as="alternateBounds" />
          </mxGeometry>
        </mxCell>
        <mxCell id="awLVpeMQ1lUSbqIpcGtv-49" value="401 - Not Authorized" style="shape=partialRectangle;html=1;whiteSpace=wrap;connectable=0;strokeColor=inherit;overflow=hidden;fillColor=none;top=0;left=0;bottom=0;right=0;pointerEvents=1;fontSize=16;" vertex="1" parent="awLVpeMQ1lUSbqIpcGtv-44">
          <mxGeometry x="1111" width="279" height="40" as="geometry">
            <mxRectangle width="279" height="40" as="alternateBounds" />
          </mxGeometry>
        </mxCell>
        <mxCell id="awLVpeMQ1lUSbqIpcGtv-50" style="shape=tableRow;horizontal=0;startSize=0;swimlaneHead=0;swimlaneBody=0;strokeColor=inherit;top=0;left=0;bottom=0;right=0;collapsible=0;dropTarget=0;fillColor=none;points=[[0,0.5],[1,0.5]];portConstraint=eastwest;fontSize=16;" vertex="1" parent="awLVpeMQ1lUSbqIpcGtv-1">
          <mxGeometry y="340" width="1390" height="40" as="geometry" />
        </mxCell>
        <mxCell id="awLVpeMQ1lUSbqIpcGtv-51" value="/accounts/balance&lt;span style=&quot;white-space: pre;&quot;&gt;&#x9;&lt;/span&gt;" style="shape=partialRectangle;html=1;whiteSpace=wrap;connectable=0;strokeColor=inherit;overflow=hidden;fillColor=#FFCCCC;top=0;left=0;bottom=0;right=0;pointerEvents=1;fontSize=16;" vertex="1" parent="awLVpeMQ1lUSbqIpcGtv-50">
          <mxGeometry width="279" height="40" as="geometry">
            <mxRectangle width="279" height="40" as="alternateBounds" />
          </mxGeometry>
        </mxCell>
        <mxCell id="awLVpeMQ1lUSbqIpcGtv-52" value="GET" style="shape=partialRectangle;html=1;whiteSpace=wrap;connectable=0;strokeColor=inherit;overflow=hidden;fillColor=none;top=0;left=0;bottom=0;right=0;pointerEvents=1;fontSize=16;" vertex="1" parent="awLVpeMQ1lUSbqIpcGtv-50">
          <mxGeometry x="279" width="277" height="40" as="geometry">
            <mxRectangle width="277" height="40" as="alternateBounds" />
          </mxGeometry>
        </mxCell>
        <mxCell id="awLVpeMQ1lUSbqIpcGtv-53" value="Retrieves balance for an account" style="shape=partialRectangle;html=1;whiteSpace=wrap;connectable=0;strokeColor=inherit;overflow=hidden;fillColor=none;top=0;left=0;bottom=0;right=0;pointerEvents=1;fontSize=16;" vertex="1" parent="awLVpeMQ1lUSbqIpcGtv-50">
          <mxGeometry x="556" width="278" height="40" as="geometry">
            <mxRectangle width="278" height="40" as="alternateBounds" />
          </mxGeometry>
        </mxCell>
        <mxCell id="awLVpeMQ1lUSbqIpcGtv-54" value="200 - OK" style="shape=partialRectangle;html=1;whiteSpace=wrap;connectable=0;strokeColor=inherit;overflow=hidden;fillColor=none;top=0;left=0;bottom=0;right=0;pointerEvents=1;fontSize=16;" vertex="1" parent="awLVpeMQ1lUSbqIpcGtv-50">
          <mxGeometry x="834" width="277" height="40" as="geometry">
            <mxRectangle width="277" height="40" as="alternateBounds" />
          </mxGeometry>
        </mxCell>
        <mxCell id="awLVpeMQ1lUSbqIpcGtv-55" value="401 - Not Authroized" style="shape=partialRectangle;html=1;whiteSpace=wrap;connectable=0;strokeColor=inherit;overflow=hidden;fillColor=none;top=0;left=0;bottom=0;right=0;pointerEvents=1;fontSize=16;" vertex="1" parent="awLVpeMQ1lUSbqIpcGtv-50">
          <mxGeometry x="1111" width="279" height="40" as="geometry">
            <mxRectangle width="279" height="40" as="alternateBounds" />
          </mxGeometry>
        </mxCell>
        <mxCell id="awLVpeMQ1lUSbqIpcGtv-56" style="shape=tableRow;horizontal=0;startSize=0;swimlaneHead=0;swimlaneBody=0;strokeColor=inherit;top=0;left=0;bottom=0;right=0;collapsible=0;dropTarget=0;fillColor=none;points=[[0,0.5],[1,0.5]];portConstraint=eastwest;fontSize=16;" vertex="1" parent="awLVpeMQ1lUSbqIpcGtv-1">
          <mxGeometry y="380" width="1390" height="40" as="geometry" />
        </mxCell>
        <mxCell id="awLVpeMQ1lUSbqIpcGtv-57" value="" style="shape=partialRectangle;html=1;whiteSpace=wrap;connectable=0;strokeColor=inherit;overflow=hidden;fillColor=#FFCCCC;top=0;left=0;bottom=0;right=0;pointerEvents=1;fontSize=16;" vertex="1" parent="awLVpeMQ1lUSbqIpcGtv-56">
          <mxGeometry width="279" height="40" as="geometry">
            <mxRectangle width="279" height="40" as="alternateBounds" />
          </mxGeometry>
        </mxCell>
        <mxCell id="awLVpeMQ1lUSbqIpcGtv-58" value="" style="shape=partialRectangle;html=1;whiteSpace=wrap;connectable=0;strokeColor=inherit;overflow=hidden;fillColor=none;top=0;left=0;bottom=0;right=0;pointerEvents=1;fontSize=16;" vertex="1" parent="awLVpeMQ1lUSbqIpcGtv-56">
          <mxGeometry x="279" width="277" height="40" as="geometry">
            <mxRectangle width="277" height="40" as="alternateBounds" />
          </mxGeometry>
        </mxCell>
        <mxCell id="awLVpeMQ1lUSbqIpcGtv-59" value="" style="shape=partialRectangle;html=1;whiteSpace=wrap;connectable=0;strokeColor=inherit;overflow=hidden;fillColor=none;top=0;left=0;bottom=0;right=0;pointerEvents=1;fontSize=16;" vertex="1" parent="awLVpeMQ1lUSbqIpcGtv-56">
          <mxGeometry x="556" width="278" height="40" as="geometry">
            <mxRectangle width="278" height="40" as="alternateBounds" />
          </mxGeometry>
        </mxCell>
        <mxCell id="awLVpeMQ1lUSbqIpcGtv-60" value="" style="shape=partialRectangle;html=1;whiteSpace=wrap;connectable=0;strokeColor=inherit;overflow=hidden;fillColor=none;top=0;left=0;bottom=0;right=0;pointerEvents=1;fontSize=16;" vertex="1" parent="awLVpeMQ1lUSbqIpcGtv-56">
          <mxGeometry x="834" width="277" height="40" as="geometry">
            <mxRectangle width="277" height="40" as="alternateBounds" />
          </mxGeometry>
        </mxCell>
        <mxCell id="awLVpeMQ1lUSbqIpcGtv-61" value="" style="shape=partialRectangle;html=1;whiteSpace=wrap;connectable=0;strokeColor=inherit;overflow=hidden;fillColor=none;top=0;left=0;bottom=0;right=0;pointerEvents=1;fontSize=16;" vertex="1" parent="awLVpeMQ1lUSbqIpcGtv-56">
          <mxGeometry x="1111" width="279" height="40" as="geometry">
            <mxRectangle width="279" height="40" as="alternateBounds" />
          </mxGeometry>
        </mxCell>
        <mxCell id="awLVpeMQ1lUSbqIpcGtv-62" style="shape=tableRow;horizontal=0;startSize=0;swimlaneHead=0;swimlaneBody=0;strokeColor=inherit;top=0;left=0;bottom=0;right=0;collapsible=0;dropTarget=0;fillColor=none;points=[[0,0.5],[1,0.5]];portConstraint=eastwest;fontSize=16;" vertex="1" parent="awLVpeMQ1lUSbqIpcGtv-1">
          <mxGeometry y="420" width="1390" height="40" as="geometry" />
        </mxCell>
        <mxCell id="awLVpeMQ1lUSbqIpcGtv-63" value="/users" style="shape=partialRectangle;html=1;whiteSpace=wrap;connectable=0;strokeColor=inherit;overflow=hidden;fillColor=#FFCCCC;top=0;left=0;bottom=0;right=0;pointerEvents=1;fontSize=16;" vertex="1" parent="awLVpeMQ1lUSbqIpcGtv-62">
          <mxGeometry width="279" height="40" as="geometry">
            <mxRectangle width="279" height="40" as="alternateBounds" />
          </mxGeometry>
        </mxCell>
        <mxCell id="awLVpeMQ1lUSbqIpcGtv-64" value="GET" style="shape=partialRectangle;html=1;whiteSpace=wrap;connectable=0;strokeColor=inherit;overflow=hidden;fillColor=none;top=0;left=0;bottom=0;right=0;pointerEvents=1;fontSize=16;" vertex="1" parent="awLVpeMQ1lUSbqIpcGtv-62">
          <mxGeometry x="279" width="277" height="40" as="geometry">
            <mxRectangle width="277" height="40" as="alternateBounds" />
          </mxGeometry>
        </mxCell>
        <mxCell id="awLVpeMQ1lUSbqIpcGtv-65" value="Retrieves a list of all users" style="shape=partialRectangle;html=1;whiteSpace=wrap;connectable=0;strokeColor=inherit;overflow=hidden;fillColor=none;top=0;left=0;bottom=0;right=0;pointerEvents=1;fontSize=16;" vertex="1" parent="awLVpeMQ1lUSbqIpcGtv-62">
          <mxGeometry x="556" width="278" height="40" as="geometry">
            <mxRectangle width="278" height="40" as="alternateBounds" />
          </mxGeometry>
        </mxCell>
        <mxCell id="awLVpeMQ1lUSbqIpcGtv-66" value="200 - OK" style="shape=partialRectangle;html=1;whiteSpace=wrap;connectable=0;strokeColor=inherit;overflow=hidden;fillColor=none;top=0;left=0;bottom=0;right=0;pointerEvents=1;fontSize=16;" vertex="1" parent="awLVpeMQ1lUSbqIpcGtv-62">
          <mxGeometry x="834" width="277" height="40" as="geometry">
            <mxRectangle width="277" height="40" as="alternateBounds" />
          </mxGeometry>
        </mxCell>
        <mxCell id="awLVpeMQ1lUSbqIpcGtv-67" value="401 - Not Authorized" style="shape=partialRectangle;html=1;whiteSpace=wrap;connectable=0;strokeColor=inherit;overflow=hidden;fillColor=none;top=0;left=0;bottom=0;right=0;pointerEvents=1;fontSize=16;" vertex="1" parent="awLVpeMQ1lUSbqIpcGtv-62">
          <mxGeometry x="1111" width="279" height="40" as="geometry">
            <mxRectangle width="279" height="40" as="alternateBounds" />
          </mxGeometry>
        </mxCell>
        <mxCell id="awLVpeMQ1lUSbqIpcGtv-68" style="shape=tableRow;horizontal=0;startSize=0;swimlaneHead=0;swimlaneBody=0;strokeColor=inherit;top=0;left=0;bottom=0;right=0;collapsible=0;dropTarget=0;fillColor=none;points=[[0,0.5],[1,0.5]];portConstraint=eastwest;fontSize=16;" vertex="1" parent="awLVpeMQ1lUSbqIpcGtv-1">
          <mxGeometry y="460" width="1390" height="40" as="geometry" />
        </mxCell>
        <mxCell id="awLVpeMQ1lUSbqIpcGtv-69" style="shape=partialRectangle;html=1;whiteSpace=wrap;connectable=0;strokeColor=inherit;overflow=hidden;fillColor=none;top=0;left=0;bottom=0;right=0;pointerEvents=1;fontSize=16;" vertex="1" parent="awLVpeMQ1lUSbqIpcGtv-68">
          <mxGeometry width="279" height="40" as="geometry">
            <mxRectangle width="279" height="40" as="alternateBounds" />
          </mxGeometry>
        </mxCell>
        <mxCell id="awLVpeMQ1lUSbqIpcGtv-70" style="shape=partialRectangle;html=1;whiteSpace=wrap;connectable=0;strokeColor=inherit;overflow=hidden;fillColor=none;top=0;left=0;bottom=0;right=0;pointerEvents=1;fontSize=16;" vertex="1" parent="awLVpeMQ1lUSbqIpcGtv-68">
          <mxGeometry x="279" width="277" height="40" as="geometry">
            <mxRectangle width="277" height="40" as="alternateBounds" />
          </mxGeometry>
        </mxCell>
        <mxCell id="awLVpeMQ1lUSbqIpcGtv-71" style="shape=partialRectangle;html=1;whiteSpace=wrap;connectable=0;strokeColor=inherit;overflow=hidden;fillColor=none;top=0;left=0;bottom=0;right=0;pointerEvents=1;fontSize=16;" vertex="1" parent="awLVpeMQ1lUSbqIpcGtv-68">
          <mxGeometry x="556" width="278" height="40" as="geometry">
            <mxRectangle width="278" height="40" as="alternateBounds" />
          </mxGeometry>
        </mxCell>
        <mxCell id="awLVpeMQ1lUSbqIpcGtv-72" style="shape=partialRectangle;html=1;whiteSpace=wrap;connectable=0;strokeColor=inherit;overflow=hidden;fillColor=none;top=0;left=0;bottom=0;right=0;pointerEvents=1;fontSize=16;" vertex="1" parent="awLVpeMQ1lUSbqIpcGtv-68">
          <mxGeometry x="834" width="277" height="40" as="geometry">
            <mxRectangle width="277" height="40" as="alternateBounds" />
          </mxGeometry>
        </mxCell>
        <mxCell id="awLVpeMQ1lUSbqIpcGtv-73" style="shape=partialRectangle;html=1;whiteSpace=wrap;connectable=0;strokeColor=inherit;overflow=hidden;fillColor=none;top=0;left=0;bottom=0;right=0;pointerEvents=1;fontSize=16;" vertex="1" parent="awLVpeMQ1lUSbqIpcGtv-68">
          <mxGeometry x="1111" width="279" height="40" as="geometry">
            <mxRectangle width="279" height="40" as="alternateBounds" />
          </mxGeometry>
        </mxCell>
        <mxCell id="awLVpeMQ1lUSbqIpcGtv-74" style="shape=tableRow;horizontal=0;startSize=0;swimlaneHead=0;swimlaneBody=0;strokeColor=inherit;top=0;left=0;bottom=0;right=0;collapsible=0;dropTarget=0;fillColor=none;points=[[0,0.5],[1,0.5]];portConstraint=eastwest;fontSize=16;" vertex="1" parent="awLVpeMQ1lUSbqIpcGtv-1">
          <mxGeometry y="500" width="1390" height="40" as="geometry" />
        </mxCell>
        <mxCell id="awLVpeMQ1lUSbqIpcGtv-75" style="shape=partialRectangle;html=1;whiteSpace=wrap;connectable=0;strokeColor=inherit;overflow=hidden;fillColor=none;top=0;left=0;bottom=0;right=0;pointerEvents=1;fontSize=16;" vertex="1" parent="awLVpeMQ1lUSbqIpcGtv-74">
          <mxGeometry width="279" height="40" as="geometry">
            <mxRectangle width="279" height="40" as="alternateBounds" />
          </mxGeometry>
        </mxCell>
        <mxCell id="awLVpeMQ1lUSbqIpcGtv-76" style="shape=partialRectangle;html=1;whiteSpace=wrap;connectable=0;strokeColor=inherit;overflow=hidden;fillColor=none;top=0;left=0;bottom=0;right=0;pointerEvents=1;fontSize=16;" vertex="1" parent="awLVpeMQ1lUSbqIpcGtv-74">
          <mxGeometry x="279" width="277" height="40" as="geometry">
            <mxRectangle width="277" height="40" as="alternateBounds" />
          </mxGeometry>
        </mxCell>
        <mxCell id="awLVpeMQ1lUSbqIpcGtv-77" style="shape=partialRectangle;html=1;whiteSpace=wrap;connectable=0;strokeColor=inherit;overflow=hidden;fillColor=none;top=0;left=0;bottom=0;right=0;pointerEvents=1;fontSize=16;" vertex="1" parent="awLVpeMQ1lUSbqIpcGtv-74">
          <mxGeometry x="556" width="278" height="40" as="geometry">
            <mxRectangle width="278" height="40" as="alternateBounds" />
          </mxGeometry>
        </mxCell>
        <mxCell id="awLVpeMQ1lUSbqIpcGtv-78" style="shape=partialRectangle;html=1;whiteSpace=wrap;connectable=0;strokeColor=inherit;overflow=hidden;fillColor=none;top=0;left=0;bottom=0;right=0;pointerEvents=1;fontSize=16;" vertex="1" parent="awLVpeMQ1lUSbqIpcGtv-74">
          <mxGeometry x="834" width="277" height="40" as="geometry">
            <mxRectangle width="277" height="40" as="alternateBounds" />
          </mxGeometry>
        </mxCell>
        <mxCell id="awLVpeMQ1lUSbqIpcGtv-79" style="shape=partialRectangle;html=1;whiteSpace=wrap;connectable=0;strokeColor=inherit;overflow=hidden;fillColor=none;top=0;left=0;bottom=0;right=0;pointerEvents=1;fontSize=16;" vertex="1" parent="awLVpeMQ1lUSbqIpcGtv-74">
          <mxGeometry x="1111" width="279" height="40" as="geometry">
            <mxRectangle width="279" height="40" as="alternateBounds" />
          </mxGeometry>
        </mxCell>
        <mxCell id="awLVpeMQ1lUSbqIpcGtv-80" style="shape=tableRow;horizontal=0;startSize=0;swimlaneHead=0;swimlaneBody=0;strokeColor=inherit;top=0;left=0;bottom=0;right=0;collapsible=0;dropTarget=0;fillColor=none;points=[[0,0.5],[1,0.5]];portConstraint=eastwest;fontSize=16;" vertex="1" parent="awLVpeMQ1lUSbqIpcGtv-1">
          <mxGeometry y="540" width="1390" height="40" as="geometry" />
        </mxCell>
        <mxCell id="awLVpeMQ1lUSbqIpcGtv-81" style="shape=partialRectangle;html=1;whiteSpace=wrap;connectable=0;strokeColor=inherit;overflow=hidden;fillColor=none;top=0;left=0;bottom=0;right=0;pointerEvents=1;fontSize=16;" vertex="1" parent="awLVpeMQ1lUSbqIpcGtv-80">
          <mxGeometry width="279" height="40" as="geometry">
            <mxRectangle width="279" height="40" as="alternateBounds" />
          </mxGeometry>
        </mxCell>
        <mxCell id="awLVpeMQ1lUSbqIpcGtv-82" style="shape=partialRectangle;html=1;whiteSpace=wrap;connectable=0;strokeColor=inherit;overflow=hidden;fillColor=none;top=0;left=0;bottom=0;right=0;pointerEvents=1;fontSize=16;" vertex="1" parent="awLVpeMQ1lUSbqIpcGtv-80">
          <mxGeometry x="279" width="277" height="40" as="geometry">
            <mxRectangle width="277" height="40" as="alternateBounds" />
          </mxGeometry>
        </mxCell>
        <mxCell id="awLVpeMQ1lUSbqIpcGtv-83" style="shape=partialRectangle;html=1;whiteSpace=wrap;connectable=0;strokeColor=inherit;overflow=hidden;fillColor=none;top=0;left=0;bottom=0;right=0;pointerEvents=1;fontSize=16;" vertex="1" parent="awLVpeMQ1lUSbqIpcGtv-80">
          <mxGeometry x="556" width="278" height="40" as="geometry">
            <mxRectangle width="278" height="40" as="alternateBounds" />
          </mxGeometry>
        </mxCell>
        <mxCell id="awLVpeMQ1lUSbqIpcGtv-84" style="shape=partialRectangle;html=1;whiteSpace=wrap;connectable=0;strokeColor=inherit;overflow=hidden;fillColor=none;top=0;left=0;bottom=0;right=0;pointerEvents=1;fontSize=16;" vertex="1" parent="awLVpeMQ1lUSbqIpcGtv-80">
          <mxGeometry x="834" width="277" height="40" as="geometry">
            <mxRectangle width="277" height="40" as="alternateBounds" />
          </mxGeometry>
        </mxCell>
        <mxCell id="awLVpeMQ1lUSbqIpcGtv-85" style="shape=partialRectangle;html=1;whiteSpace=wrap;connectable=0;strokeColor=inherit;overflow=hidden;fillColor=none;top=0;left=0;bottom=0;right=0;pointerEvents=1;fontSize=16;" vertex="1" parent="awLVpeMQ1lUSbqIpcGtv-80">
          <mxGeometry x="1111" width="279" height="40" as="geometry">
            <mxRectangle width="279" height="40" as="alternateBounds" />
          </mxGeometry>
        </mxCell>
        <mxCell id="awLVpeMQ1lUSbqIpcGtv-86" style="shape=tableRow;horizontal=0;startSize=0;swimlaneHead=0;swimlaneBody=0;strokeColor=inherit;top=0;left=0;bottom=0;right=0;collapsible=0;dropTarget=0;fillColor=none;points=[[0,0.5],[1,0.5]];portConstraint=eastwest;fontSize=16;" vertex="1" parent="awLVpeMQ1lUSbqIpcGtv-1">
          <mxGeometry y="580" width="1390" height="40" as="geometry" />
        </mxCell>
        <mxCell id="awLVpeMQ1lUSbqIpcGtv-87" style="shape=partialRectangle;html=1;whiteSpace=wrap;connectable=0;strokeColor=inherit;overflow=hidden;fillColor=none;top=0;left=0;bottom=0;right=0;pointerEvents=1;fontSize=16;" vertex="1" parent="awLVpeMQ1lUSbqIpcGtv-86">
          <mxGeometry width="279" height="40" as="geometry">
            <mxRectangle width="279" height="40" as="alternateBounds" />
          </mxGeometry>
        </mxCell>
        <mxCell id="awLVpeMQ1lUSbqIpcGtv-88" style="shape=partialRectangle;html=1;whiteSpace=wrap;connectable=0;strokeColor=inherit;overflow=hidden;fillColor=none;top=0;left=0;bottom=0;right=0;pointerEvents=1;fontSize=16;" vertex="1" parent="awLVpeMQ1lUSbqIpcGtv-86">
          <mxGeometry x="279" width="277" height="40" as="geometry">
            <mxRectangle width="277" height="40" as="alternateBounds" />
          </mxGeometry>
        </mxCell>
        <mxCell id="awLVpeMQ1lUSbqIpcGtv-89" style="shape=partialRectangle;html=1;whiteSpace=wrap;connectable=0;strokeColor=inherit;overflow=hidden;fillColor=none;top=0;left=0;bottom=0;right=0;pointerEvents=1;fontSize=16;" vertex="1" parent="awLVpeMQ1lUSbqIpcGtv-86">
          <mxGeometry x="556" width="278" height="40" as="geometry">
            <mxRectangle width="278" height="40" as="alternateBounds" />
          </mxGeometry>
        </mxCell>
        <mxCell id="awLVpeMQ1lUSbqIpcGtv-90" style="shape=partialRectangle;html=1;whiteSpace=wrap;connectable=0;strokeColor=inherit;overflow=hidden;fillColor=none;top=0;left=0;bottom=0;right=0;pointerEvents=1;fontSize=16;" vertex="1" parent="awLVpeMQ1lUSbqIpcGtv-86">
          <mxGeometry x="834" width="277" height="40" as="geometry">
            <mxRectangle width="277" height="40" as="alternateBounds" />
          </mxGeometry>
        </mxCell>
        <mxCell id="awLVpeMQ1lUSbqIpcGtv-91" style="shape=partialRectangle;html=1;whiteSpace=wrap;connectable=0;strokeColor=inherit;overflow=hidden;fillColor=none;top=0;left=0;bottom=0;right=0;pointerEvents=1;fontSize=16;" vertex="1" parent="awLVpeMQ1lUSbqIpcGtv-86">
          <mxGeometry x="1111" width="279" height="40" as="geometry">
            <mxRectangle width="279" height="40" as="alternateBounds" />
          </mxGeometry>
        </mxCell>
        <mxCell id="awLVpeMQ1lUSbqIpcGtv-92" style="shape=tableRow;horizontal=0;startSize=0;swimlaneHead=0;swimlaneBody=0;strokeColor=inherit;top=0;left=0;bottom=0;right=0;collapsible=0;dropTarget=0;fillColor=none;points=[[0,0.5],[1,0.5]];portConstraint=eastwest;fontSize=16;" vertex="1" parent="awLVpeMQ1lUSbqIpcGtv-1">
          <mxGeometry y="620" width="1390" height="40" as="geometry" />
        </mxCell>
        <mxCell id="awLVpeMQ1lUSbqIpcGtv-93" style="shape=partialRectangle;html=1;whiteSpace=wrap;connectable=0;strokeColor=inherit;overflow=hidden;fillColor=none;top=0;left=0;bottom=0;right=0;pointerEvents=1;fontSize=16;" vertex="1" parent="awLVpeMQ1lUSbqIpcGtv-92">
          <mxGeometry width="279" height="40" as="geometry">
            <mxRectangle width="279" height="40" as="alternateBounds" />
          </mxGeometry>
        </mxCell>
        <mxCell id="awLVpeMQ1lUSbqIpcGtv-94" style="shape=partialRectangle;html=1;whiteSpace=wrap;connectable=0;strokeColor=inherit;overflow=hidden;fillColor=none;top=0;left=0;bottom=0;right=0;pointerEvents=1;fontSize=16;" vertex="1" parent="awLVpeMQ1lUSbqIpcGtv-92">
          <mxGeometry x="279" width="277" height="40" as="geometry">
            <mxRectangle width="277" height="40" as="alternateBounds" />
          </mxGeometry>
        </mxCell>
        <mxCell id="awLVpeMQ1lUSbqIpcGtv-95" style="shape=partialRectangle;html=1;whiteSpace=wrap;connectable=0;strokeColor=inherit;overflow=hidden;fillColor=none;top=0;left=0;bottom=0;right=0;pointerEvents=1;fontSize=16;" vertex="1" parent="awLVpeMQ1lUSbqIpcGtv-92">
          <mxGeometry x="556" width="278" height="40" as="geometry">
            <mxRectangle width="278" height="40" as="alternateBounds" />
          </mxGeometry>
        </mxCell>
        <mxCell id="awLVpeMQ1lUSbqIpcGtv-96" style="shape=partialRectangle;html=1;whiteSpace=wrap;connectable=0;strokeColor=inherit;overflow=hidden;fillColor=none;top=0;left=0;bottom=0;right=0;pointerEvents=1;fontSize=16;" vertex="1" parent="awLVpeMQ1lUSbqIpcGtv-92">
          <mxGeometry x="834" width="277" height="40" as="geometry">
            <mxRectangle width="277" height="40" as="alternateBounds" />
          </mxGeometry>
        </mxCell>
        <mxCell id="awLVpeMQ1lUSbqIpcGtv-97" style="shape=partialRectangle;html=1;whiteSpace=wrap;connectable=0;strokeColor=inherit;overflow=hidden;fillColor=none;top=0;left=0;bottom=0;right=0;pointerEvents=1;fontSize=16;" vertex="1" parent="awLVpeMQ1lUSbqIpcGtv-92">
          <mxGeometry x="1111" width="279" height="40" as="geometry">
            <mxRectangle width="279" height="40" as="alternateBounds" />
          </mxGeometry>
        </mxCell>
      </root>
    </mxGraphModel>
  </diagram>
  <diagram name="TEnmo - Endpoint Design" id="YPRNTb6CSVa1ABUxN-kt">
    <mxGraphModel grid="1" page="1" gridSize="10" guides="1" tooltips="1" connect="1" arrows="1" fold="1" pageScale="1" pageWidth="850" pageHeight="1100" math="0" shadow="0">
      <root>
        <mxCell id="M34Np425uzmjwPf0PUc6-0" />
        <mxCell id="M34Np425uzmjwPf0PUc6-1" parent="M34Np425uzmjwPf0PUc6-0" />
        <mxCell id="M34Np425uzmjwPf0PUc6-8" value="&lt;h1&gt;This is an Endpoint Hierarchy Diagram. 1 Diagram per Controller.&lt;/h1&gt;" style="text;html=1;strokeColor=none;fillColor=none;spacing=5;spacingTop=-20;whiteSpace=wrap;overflow=hidden;rounded=0;" vertex="1" parent="M34Np425uzmjwPf0PUc6-1">
          <mxGeometry x="40" y="10" width="770" height="120" as="geometry" />
        </mxCell>
        <mxCell id="iFNShPbVlFPcItMiJMVz-0" style="edgeStyle=orthogonalEdgeStyle;rounded=0;orthogonalLoop=1;jettySize=auto;html=1;entryX=0.5;entryY=0;entryDx=0;entryDy=0;" edge="1" parent="M34Np425uzmjwPf0PUc6-1" source="aJ4N7g98BgxiyLwedBBA-0" target="jPwbvPYPyxSaQZMUhKcR-0">
          <mxGeometry relative="1" as="geometry" />
        </mxCell>
        <mxCell id="aJ4N7g98BgxiyLwedBBA-0" value="/" style="rounded=1;whiteSpace=wrap;html=1;" vertex="1" parent="M34Np425uzmjwPf0PUc6-1">
          <mxGeometry x="340" y="200" width="120" height="60" as="geometry" />
        </mxCell>
        <mxCell id="aJ4N7g98BgxiyLwedBBA-1" value="&lt;b style=&quot;font-weight:normal;&quot; id=&quot;docs-internal-guid-a7416cc5-7fff-1fec-84a1-b2f62d0fceee&quot;&gt;&lt;span style=&quot;font-size: 17pt; font-family: Arial; color: rgb(0, 0, 0); background-color: transparent; font-weight: 400; font-style: normal; font-variant: normal; text-decoration: none; vertical-align: baseline;&quot;&gt;http://localhost:8080&lt;/span&gt;&lt;/b&gt;" style="text;whiteSpace=wrap;html=1;" vertex="1" parent="M34Np425uzmjwPf0PUc6-1">
          <mxGeometry x="290" y="160" width="240" height="50" as="geometry" />
        </mxCell>
        <mxCell id="0TxZAJPQh6wJS3XeBTOq-0" style="edgeStyle=orthogonalEdgeStyle;rounded=0;orthogonalLoop=1;jettySize=auto;html=1;entryX=0.5;entryY=0;entryDx=0;entryDy=0;" edge="1" parent="M34Np425uzmjwPf0PUc6-1" source="aJ4N7g98BgxiyLwedBBA-4" target="0TxZAJPQh6wJS3XeBTOq-2">
          <mxGeometry relative="1" as="geometry">
            <mxPoint x="80" y="400" as="targetPoint" />
            <Array as="points">
              <mxPoint x="40" y="340" />
            </Array>
          </mxGeometry>
        </mxCell>
        <mxCell id="0TxZAJPQh6wJS3XeBTOq-4" style="edgeStyle=orthogonalEdgeStyle;rounded=0;orthogonalLoop=1;jettySize=auto;html=1;exitX=1;exitY=0.5;exitDx=0;exitDy=0;" edge="1" parent="M34Np425uzmjwPf0PUc6-1" source="aJ4N7g98BgxiyLwedBBA-4" target="0TxZAJPQh6wJS3XeBTOq-3">
          <mxGeometry relative="1" as="geometry" />
        </mxCell>
        <mxCell id="aJ4N7g98BgxiyLwedBBA-4" value="/accounts" style="rounded=1;whiteSpace=wrap;html=1;" vertex="1" parent="M34Np425uzmjwPf0PUc6-1">
          <mxGeometry x="100" y="310" width="120" height="60" as="geometry" />
        </mxCell>
        <mxCell id="aJ4N7g98BgxiyLwedBBA-6" style="edgeStyle=orthogonalEdgeStyle;rounded=0;orthogonalLoop=1;jettySize=auto;html=1;entryX=0.5;entryY=0;entryDx=0;entryDy=0;exitX=1;exitY=0.5;exitDx=0;exitDy=0;" edge="1" parent="M34Np425uzmjwPf0PUc6-1" source="aJ4N7g98BgxiyLwedBBA-7" target="aJ4N7g98BgxiyLwedBBA-12">
          <mxGeometry relative="1" as="geometry" />
        </mxCell>
        <mxCell id="aJ4N7g98BgxiyLwedBBA-7" value="/transfers" style="rounded=1;whiteSpace=wrap;html=1;" vertex="1" parent="M34Np425uzmjwPf0PUc6-1">
          <mxGeometry x="580" y="310" width="120" height="60" as="geometry" />
        </mxCell>
        <mxCell id="aJ4N7g98BgxiyLwedBBA-8" value="" style="endArrow=none;html=1;rounded=0;entryX=0;entryY=0.5;entryDx=0;entryDy=0;exitX=0.5;exitY=0;exitDx=0;exitDy=0;edgeStyle=orthogonalEdgeStyle;" edge="1" parent="M34Np425uzmjwPf0PUc6-1" source="aJ4N7g98BgxiyLwedBBA-4" target="aJ4N7g98BgxiyLwedBBA-0">
          <mxGeometry width="50" height="50" relative="1" as="geometry">
            <mxPoint x="380" y="420" as="sourcePoint" />
            <mxPoint x="430" y="370" as="targetPoint" />
          </mxGeometry>
        </mxCell>
        <mxCell id="aJ4N7g98BgxiyLwedBBA-9" value="" style="endArrow=none;html=1;rounded=0;entryX=1;entryY=0.5;entryDx=0;entryDy=0;exitX=0.5;exitY=0;exitDx=0;exitDy=0;edgeStyle=orthogonalEdgeStyle;" edge="1" parent="M34Np425uzmjwPf0PUc6-1" source="aJ4N7g98BgxiyLwedBBA-7" target="aJ4N7g98BgxiyLwedBBA-0">
          <mxGeometry width="50" height="50" relative="1" as="geometry">
            <mxPoint x="380" y="420" as="sourcePoint" />
            <mxPoint x="430" y="370" as="targetPoint" />
          </mxGeometry>
        </mxCell>
        <mxCell id="aJ4N7g98BgxiyLwedBBA-12" value="/{transferId}" style="rounded=1;whiteSpace=wrap;html=1;" vertex="1" parent="M34Np425uzmjwPf0PUc6-1">
          <mxGeometry x="700" y="410" width="120" height="60" as="geometry" />
        </mxCell>
        <mxCell id="jPwbvPYPyxSaQZMUhKcR-0" value="/users" style="rounded=1;whiteSpace=wrap;html=1;" vertex="1" parent="M34Np425uzmjwPf0PUc6-1">
          <mxGeometry x="340" y="310" width="120" height="60" as="geometry" />
        </mxCell>
        <mxCell id="0TxZAJPQh6wJS3XeBTOq-2" value="/balance" style="rounded=1;whiteSpace=wrap;html=1;" vertex="1" parent="M34Np425uzmjwPf0PUc6-1">
          <mxGeometry x="-20" y="400" width="120" height="60" as="geometry" />
        </mxCell>
        <mxCell id="0TxZAJPQh6wJS3XeBTOq-3" value="/transfers" style="rounded=1;whiteSpace=wrap;html=1;" vertex="1" parent="M34Np425uzmjwPf0PUc6-1">
          <mxGeometry x="220" y="400" width="120" height="60" as="geometry" />
        </mxCell>
      </root>
    </mxGraphModel>
  </diagram>
  <diagram id="6PUdO4dv_WW5D6zEc7E2" name="TEnmo-DAO">
    <mxGraphModel grid="1" page="1" gridSize="10" guides="1" tooltips="1" connect="1" arrows="1" fold="1" pageScale="1" pageWidth="1200" pageHeight="1920" math="0" shadow="0">
      <root>
        <mxCell id="0" />
        <mxCell id="1" parent="0" />
        <mxCell id="lOSojBh-e1L2Uc3c-3aQ-1" value="&lt;font style=&quot;font-size: 12px;&quot;&gt;User Dao Model: The User Dao model is responsible for accessing user-related data in the database&lt;/font&gt;" style="text;html=1;align=center;verticalAlign=middle;resizable=0;points=[];autosize=1;strokeColor=none;fillColor=none;" vertex="1" parent="1">
          <mxGeometry x="10" y="10" width="560" height="30" as="geometry" />
        </mxCell>
        <mxCell id="lOSojBh-e1L2Uc3c-3aQ-2" value="Account Dao Model: The Account Dao model is responsible for accessing and managing user account balances" style="text;html=1;align=center;verticalAlign=middle;resizable=0;points=[];autosize=1;strokeColor=none;fillColor=none;" vertex="1" parent="1">
          <mxGeometry x="10" y="40" width="620" height="30" as="geometry" />
        </mxCell>
        <mxCell id="lOSojBh-e1L2Uc3c-3aQ-3" value="Transfer Dao Model: The Transfer Dao model is responsible for managing the transferring of TE Bucks" style="text;html=1;align=center;verticalAlign=middle;resizable=0;points=[];autosize=1;strokeColor=none;fillColor=none;" vertex="1" parent="1">
          <mxGeometry x="10" y="70" width="570" height="30" as="geometry" />
        </mxCell>
        <mxCell id="NqyBXdRlUHz25hvmNqq1-51" value="User Dao" style="swimlane;whiteSpace=wrap;html=1;" vertex="1" parent="1">
          <mxGeometry x="400" y="170" width="340" height="250" as="geometry" />
        </mxCell>
        <mxCell id="NqyBXdRlUHz25hvmNqq1-52" value="+ createUser : String, String" style="text;html=1;align=center;verticalAlign=middle;resizable=0;points=[];autosize=1;strokeColor=none;fillColor=none;" vertex="1" parent="NqyBXdRlUHz25hvmNqq1-51">
          <mxGeometry x="-5" y="90" width="170" height="30" as="geometry" />
        </mxCell>
        <mxCell id="NqyBXdRlUHz25hvmNqq1-53" value="+ allUsers: List&amp;lt;User&amp;gt;" style="text;html=1;align=center;verticalAlign=middle;resizable=0;points=[];autosize=1;strokeColor=none;fillColor=none;" vertex="1" parent="NqyBXdRlUHz25hvmNqq1-51">
          <mxGeometry y="30" width="140" height="30" as="geometry" />
        </mxCell>
        <mxCell id="NqyBXdRlUHz25hvmNqq1-54" value="+ updateUser: boolean" style="text;html=1;align=center;verticalAlign=middle;resizable=0;points=[];autosize=1;strokeColor=none;fillColor=none;" vertex="1" parent="NqyBXdRlUHz25hvmNqq1-51">
          <mxGeometry x="-5" y="60" width="150" height="30" as="geometry" />
        </mxCell>
        <mxCell id="NqyBXdRlUHz25hvmNqq1-55" value="" style="endArrow=none;html=1;rounded=0;" edge="1" parent="NqyBXdRlUHz25hvmNqq1-51">
          <mxGeometry width="50" height="50" relative="1" as="geometry">
            <mxPoint x="-5" y="154.5" as="sourcePoint" />
            <mxPoint x="335" y="154.5" as="targetPoint" />
            <Array as="points">
              <mxPoint x="75" y="154.5" />
            </Array>
          </mxGeometry>
        </mxCell>
        <mxCell id="NqyBXdRlUHz25hvmNqq1-56" value="+ getUser(): id" style="text;html=1;align=center;verticalAlign=middle;resizable=0;points=[];autosize=1;strokeColor=none;fillColor=none;" vertex="1" parent="NqyBXdRlUHz25hvmNqq1-51">
          <mxGeometry y="160" width="100" height="30" as="geometry" />
        </mxCell>
        <mxCell id="NqyBXdRlUHz25hvmNqq1-57" value="+ getAllUsers(): id" style="text;html=1;align=center;verticalAlign=middle;resizable=0;points=[];autosize=1;strokeColor=none;fillColor=none;" vertex="1" parent="NqyBXdRlUHz25hvmNqq1-51">
          <mxGeometry y="190" width="120" height="30" as="geometry" />
        </mxCell>
        <mxCell id="NqyBXdRlUHz25hvmNqq1-58" value="Account Dao" style="swimlane;whiteSpace=wrap;html=1;" vertex="1" parent="1">
          <mxGeometry x="820" y="200" width="350" height="210" as="geometry" />
        </mxCell>
        <mxCell id="NqyBXdRlUHz25hvmNqq1-59" value="+ getBalance: int" style="text;html=1;align=center;verticalAlign=middle;resizable=0;points=[];autosize=1;strokeColor=none;fillColor=none;" vertex="1" parent="NqyBXdRlUHz25hvmNqq1-58">
          <mxGeometry y="48" width="110" height="30" as="geometry" />
        </mxCell>
        <mxCell id="NqyBXdRlUHz25hvmNqq1-61" value="+ addToBalance: int, BigDecimal" style="text;html=1;align=center;verticalAlign=middle;resizable=0;points=[];autosize=1;strokeColor=none;fillColor=none;" vertex="1" parent="NqyBXdRlUHz25hvmNqq1-58">
          <mxGeometry y="78" width="200" height="30" as="geometry" />
        </mxCell>
        <mxCell id="NqyBXdRlUHz25hvmNqq1-62" value="+ subtractFromBalance: int, BigDecimal" style="text;html=1;align=center;verticalAlign=middle;resizable=0;points=[];autosize=1;strokeColor=none;fillColor=none;" vertex="1" parent="NqyBXdRlUHz25hvmNqq1-58">
          <mxGeometry y="108" width="230" height="30" as="geometry" />
        </mxCell>
        <mxCell id="4p8MADTaJvh8eoeR6fYh-2" value="+ createNewAccount&amp;nbsp;" style="text;html=1;align=center;verticalAlign=middle;resizable=0;points=[];autosize=1;strokeColor=#d6b656;fillColor=#fff2cc;" vertex="1" parent="NqyBXdRlUHz25hvmNqq1-58">
          <mxGeometry y="138" width="140" height="30" as="geometry" />
        </mxCell>
        <mxCell id="NqyBXdRlUHz25hvmNqq1-63" value="Transfer Dao" style="swimlane;whiteSpace=wrap;html=1;" vertex="1" parent="1">
          <mxGeometry x="700" y="630" width="460" height="230" as="geometry" />
        </mxCell>
        <mxCell id="NqyBXdRlUHz25hvmNqq1-64" value="+ sendTransfer: (int senderId, int recieverId, BigDecimal amount)&amp;nbsp;" style="text;html=1;align=center;verticalAlign=middle;resizable=0;points=[];autosize=1;strokeColor=none;fillColor=none;" vertex="1" parent="NqyBXdRlUHz25hvmNqq1-63">
          <mxGeometry y="38" width="370" height="30" as="geometry" />
        </mxCell>
        <mxCell id="NqyBXdRlUHz25hvmNqq1-65" value="+ getTransfersByUserId:&amp;nbsp; List&amp;lt;Transfer&amp;gt;&amp;nbsp; int userId" style="text;html=1;align=center;verticalAlign=middle;resizable=0;points=[];autosize=1;strokeColor=none;fillColor=none;" vertex="1" parent="NqyBXdRlUHz25hvmNqq1-63">
          <mxGeometry y="68" width="290" height="30" as="geometry" />
        </mxCell>
        <mxCell id="NqyBXdRlUHz25hvmNqq1-66" value="+ getTransferById: int" style="text;html=1;align=center;verticalAlign=middle;resizable=0;points=[];autosize=1;strokeColor=none;fillColor=none;" vertex="1" parent="NqyBXdRlUHz25hvmNqq1-63">
          <mxGeometry y="98" width="140" height="30" as="geometry" />
        </mxCell>
        <mxCell id="NqyBXdRlUHz25hvmNqq1-67" value="+ getPendingTransfers: List&amp;lt;Transfer&amp;gt; int transferId" style="text;html=1;align=center;verticalAlign=middle;resizable=0;points=[];autosize=1;strokeColor=none;fillColor=none;" vertex="1" parent="NqyBXdRlUHz25hvmNqq1-63">
          <mxGeometry x="-5" y="128" width="300" height="30" as="geometry" />
        </mxCell>
        <mxCell id="NqyBXdRlUHz25hvmNqq1-68" value="+ updateTransferStatus: boolean" style="text;html=1;align=center;verticalAlign=middle;resizable=0;points=[];autosize=1;strokeColor=none;fillColor=none;" vertex="1" parent="NqyBXdRlUHz25hvmNqq1-63">
          <mxGeometry x="-10" y="158" width="200" height="30" as="geometry" />
        </mxCell>
        <mxCell id="4p8MADTaJvh8eoeR6fYh-3" value="+ createNewTransfer" style="text;whiteSpace=wrap;html=1;fillColor=#fff2cc;strokeColor=#d6b656;" vertex="1" parent="NqyBXdRlUHz25hvmNqq1-63">
          <mxGeometry x="5" y="188" width="130" height="40" as="geometry" />
        </mxCell>
        <mxCell id="NqyBXdRlUHz25hvmNqq1-69" value="User &amp;lt;-------&amp;gt; UserController &amp;lt;-------&amp;gt; UserDao&lt;br/&gt;&lt;br/&gt;" style="text;html=1;align=center;verticalAlign=middle;resizable=0;points=[];autosize=1;strokeColor=none;fillColor=none;" vertex="1" parent="1">
          <mxGeometry x="435" y="130" width="270" height="40" as="geometry" />
        </mxCell>
        <mxCell id="NqyBXdRlUHz25hvmNqq1-70" value="User &amp;lt;-------&amp;gt; AccountController &amp;lt;-------&amp;gt; AccountDao&lt;br/&gt;&lt;br/&gt;" style="text;html=1;align=center;verticalAlign=middle;resizable=0;points=[];autosize=1;strokeColor=none;fillColor=none;" vertex="1" parent="1">
          <mxGeometry x="840" y="170" width="310" height="40" as="geometry" />
        </mxCell>
        <mxCell id="NqyBXdRlUHz25hvmNqq1-71" value="User &amp;lt;-------&amp;gt; TransferController &amp;lt;-------&amp;gt; TransferDao" style="text;html=1;align=center;verticalAlign=middle;resizable=0;points=[];autosize=1;strokeColor=none;fillColor=none;" vertex="1" parent="1">
          <mxGeometry x="770" y="590" width="310" height="30" as="geometry" />
        </mxCell>
        <mxCell id="NqyBXdRlUHz25hvmNqq1-72" value="User DTO (Data Transfer Object)" style="swimlane;whiteSpace=wrap;html=1;" vertex="1" parent="1">
          <mxGeometry x="20" y="170" width="320" height="275" as="geometry" />
        </mxCell>
        <mxCell id="NqyBXdRlUHz25hvmNqq1-73" value="+ private userName: String" style="text;html=1;align=center;verticalAlign=middle;resizable=0;points=[];autosize=1;strokeColor=none;fillColor=none;" vertex="1" parent="NqyBXdRlUHz25hvmNqq1-72">
          <mxGeometry y="30" width="170" height="30" as="geometry" />
        </mxCell>
        <mxCell id="NqyBXdRlUHz25hvmNqq1-74" value="+ private userPassword: String" style="text;html=1;align=center;verticalAlign=middle;resizable=0;points=[];autosize=1;strokeColor=none;fillColor=none;" vertex="1" parent="NqyBXdRlUHz25hvmNqq1-72">
          <mxGeometry y="50" width="190" height="30" as="geometry" />
        </mxCell>
        <mxCell id="NqyBXdRlUHz25hvmNqq1-75" value="+ private userId: int" style="text;html=1;align=center;verticalAlign=middle;resizable=0;points=[];autosize=1;strokeColor=none;fillColor=none;" vertex="1" parent="NqyBXdRlUHz25hvmNqq1-72">
          <mxGeometry y="70" width="130" height="30" as="geometry" />
        </mxCell>
        <mxCell id="4p8MADTaJvh8eoeR6fYh-1" value="- create user method in provided code will need edits" style="whiteSpace=wrap;html=1;aspect=fixed;" vertex="1" parent="1">
          <mxGeometry x="130" y="550" width="80" height="80" as="geometry" />
        </mxCell>
      </root>
    </mxGraphModel>
  </diagram>
  <diagram id="O_1c8adNm1K3i6DTEJ7Y" name="TEnmo - Tenmo Service">
    <mxGraphModel grid="1" page="1" gridSize="10" guides="1" tooltips="1" connect="1" arrows="1" fold="1" pageScale="1" pageWidth="850" pageHeight="1100" math="0" shadow="0">
      <root>
        <mxCell id="0" />
        <mxCell id="1" parent="0" />
        <mxCell id="w_GePmfsDTBB7edMDgex-1" value="TEnmo Service" style="swimlane;fontStyle=0;childLayout=stackLayout;horizontal=1;startSize=30;horizontalStack=0;resizeParent=1;resizeParentMax=0;resizeLast=0;collapsible=1;marginBottom=0;whiteSpace=wrap;html=1;strokeWidth=1;" vertex="1" parent="1">
          <mxGeometry x="70" y="60" width="700" height="450" as="geometry" />
        </mxCell>
        <mxCell id="w_GePmfsDTBB7edMDgex-2" value="private static final API_BASE_URL : string" style="text;strokeColor=#6c8ebf;fillColor=#dae8fc;align=left;verticalAlign=middle;spacingLeft=4;spacingRight=4;overflow=hidden;points=[[0,0.5],[1,0.5]];portConstraint=eastwest;rotatable=0;whiteSpace=wrap;html=1;" vertex="1" parent="w_GePmfsDTBB7edMDgex-1">
          <mxGeometry y="30" width="700" height="30" as="geometry" />
        </mxCell>
        <mxCell id="w_GePmfsDTBB7edMDgex-3" value="private final restTemplate : RestTemplate" style="text;strokeColor=#6c8ebf;fillColor=#dae8fc;align=left;verticalAlign=middle;spacingLeft=4;spacingRight=4;overflow=hidden;points=[[0,0.5],[1,0.5]];portConstraint=eastwest;rotatable=0;whiteSpace=wrap;html=1;" vertex="1" parent="w_GePmfsDTBB7edMDgex-1">
          <mxGeometry y="60" width="700" height="30" as="geometry" />
        </mxCell>
        <mxCell id="w_GePmfsDTBB7edMDgex-7" value="public getAccountBalance(int accountId) :Tenmo&lt;span style=&quot;&quot;&gt;&lt;span style=&quot;&quot;&gt;&amp;nbsp; &amp;nbsp;&amp;nbsp;&lt;/span&gt;&lt;span style=&quot;&quot;&gt;&lt;span style=&quot;&quot;&gt;&amp;nbsp;&amp;nbsp;&amp;nbsp;&amp;nbsp;&lt;/span&gt;&lt;/span&gt;&lt;/span&gt;" style="text;strokeColor=#d79b00;fillColor=#ffe6cc;align=left;verticalAlign=middle;spacingLeft=4;spacingRight=4;overflow=hidden;points=[[0,0.5],[1,0.5]];portConstraint=eastwest;rotatable=0;whiteSpace=wrap;html=1;strokeWidth=5;" vertex="1" parent="w_GePmfsDTBB7edMDgex-1">
          <mxGeometry y="90" width="700" height="30" as="geometry" />
        </mxCell>
        <mxCell id="w_GePmfsDTBB7edMDgex-8" value="public addSendTransfer(int senderAccountId, recipientAccountId ArrayList&amp;lt;String&amp;gt;&amp;nbsp;availableUsers, double transferAmount) : Tenmo&amp;nbsp;" style="text;strokeColor=#9673a6;fillColor=#e1d5e7;align=left;verticalAlign=middle;spacingLeft=4;spacingRight=4;overflow=hidden;points=[[0,0.5],[1,0.5]];portConstraint=eastwest;rotatable=0;whiteSpace=wrap;html=1;strokeWidth=1;" vertex="1" parent="w_GePmfsDTBB7edMDgex-1">
          <mxGeometry y="120" width="700" height="40" as="geometry" />
        </mxCell>
        <mxCell id="w_GePmfsDTBB7edMDgex-9" value="public addRequestToTransfer(int amountRequested,&amp;nbsp;ArrayList&amp;lt;String&amp;gt;&amp;nbsp;availableUsers) : Tenmo" style="text;strokeColor=#9673a6;fillColor=#e1d5e7;align=left;verticalAlign=middle;spacingLeft=4;spacingRight=4;overflow=hidden;points=[[0,0.5],[1,0.5]];portConstraint=eastwest;rotatable=0;whiteSpace=wrap;html=1;" vertex="1" parent="w_GePmfsDTBB7edMDgex-1">
          <mxGeometry y="160" width="700" height="30" as="geometry" />
        </mxCell>
        <mxCell id="q4hw5X45xY-fGBMsY54D-3" value="public getTransferHistory(String accountId) : Tenmo []&amp;nbsp;" style="text;strokeColor=#d79b00;fillColor=#ffe6cc;align=left;verticalAlign=middle;spacingLeft=4;spacingRight=4;overflow=hidden;points=[[0,0.5],[1,0.5]];portConstraint=eastwest;rotatable=0;whiteSpace=wrap;html=1;strokeWidth=4;" vertex="1" parent="w_GePmfsDTBB7edMDgex-1">
          <mxGeometry y="190" width="700" height="30" as="geometry" />
        </mxCell>
        <mxCell id="zk55B-IkOQI-dBXmbOYM-1" value="public getTransferById(String transferId) : Tenmo []&amp;nbsp;" style="text;strokeColor=#9673a6;fillColor=#e1d5e7;align=left;verticalAlign=middle;spacingLeft=4;spacingRight=4;overflow=hidden;points=[[0,0.5],[1,0.5]];portConstraint=eastwest;rotatable=0;whiteSpace=wrap;html=1;" vertex="1" parent="w_GePmfsDTBB7edMDgex-1">
          <mxGeometry y="220" width="700" height="30" as="geometry" />
        </mxCell>
        <mxCell id="w_GePmfsDTBB7edMDgex-10" value="public getPendingTransfers(int transferId) : Tenmo []&amp;nbsp;" style="text;strokeColor=#9673a6;fillColor=#e1d5e7;align=left;verticalAlign=middle;spacingLeft=4;spacingRight=4;overflow=hidden;points=[[0,0.5],[1,0.5]];portConstraint=eastwest;rotatable=0;whiteSpace=wrap;html=1;" vertex="1" parent="w_GePmfsDTBB7edMDgex-1">
          <mxGeometry y="250" width="700" height="30" as="geometry" />
        </mxCell>
        <mxCell id="w_GePmfsDTBB7edMDgex-11" value="public updateRequestApproval (int requestId, double senderAccountBalance, double recipientAccountBalance) : Tenmo&amp;nbsp;" style="text;strokeColor=#9673a6;fillColor=#e1d5e7;align=left;verticalAlign=middle;spacingLeft=4;spacingRight=4;overflow=hidden;points=[[0,0.5],[1,0.5]];portConstraint=eastwest;rotatable=0;whiteSpace=wrap;html=1;" vertex="1" parent="w_GePmfsDTBB7edMDgex-1">
          <mxGeometry y="280" width="700" height="50" as="geometry" />
        </mxCell>
        <mxCell id="w_GePmfsDTBB7edMDgex-12" value="public updateRequestDeny (int requestId) :&amp;nbsp; Tenmo" style="text;strokeColor=#9673a6;fillColor=#e1d5e7;align=left;verticalAlign=middle;spacingLeft=4;spacingRight=4;overflow=hidden;points=[[0,0.5],[1,0.5]];portConstraint=eastwest;rotatable=0;whiteSpace=wrap;html=1;" vertex="1" parent="w_GePmfsDTBB7edMDgex-1">
          <mxGeometry y="330" width="700" height="30" as="geometry" />
        </mxCell>
        <mxCell id="zk55B-IkOQI-dBXmbOYM-19" value="public updateBankAccountIncrease (double accountBalance) :&amp;nbsp; Tenmo" style="text;strokeColor=#d6b656;fillColor=#fff2cc;align=left;verticalAlign=middle;spacingLeft=4;spacingRight=4;overflow=hidden;points=[[0,0.5],[1,0.5]];portConstraint=eastwest;rotatable=0;whiteSpace=wrap;html=1;" vertex="1" parent="w_GePmfsDTBB7edMDgex-1">
          <mxGeometry y="360" width="700" height="30" as="geometry" />
        </mxCell>
        <mxCell id="zk55B-IkOQI-dBXmbOYM-20" value="public updateBankAccountDecrease (double accountBalance) :&amp;nbsp; Tenmo" style="text;strokeColor=#d6b656;fillColor=#fff2cc;align=left;verticalAlign=middle;spacingLeft=4;spacingRight=4;overflow=hidden;points=[[0,0.5],[1,0.5]];portConstraint=eastwest;rotatable=0;whiteSpace=wrap;html=1;" vertex="1" parent="w_GePmfsDTBB7edMDgex-1">
          <mxGeometry y="390" width="700" height="30" as="geometry" />
        </mxCell>
        <mxCell id="w_GePmfsDTBB7edMDgex-13" value="private makeTenmoEntity (Tenmo tenmo) : HttpEntity&amp;lt;Tenmo&amp;gt;" style="text;strokeColor=#82b366;fillColor=#d5e8d4;align=left;verticalAlign=middle;spacingLeft=4;spacingRight=4;overflow=hidden;points=[[0,0.5],[1,0.5]];portConstraint=eastwest;rotatable=0;whiteSpace=wrap;html=1;" vertex="1" parent="w_GePmfsDTBB7edMDgex-1">
          <mxGeometry y="420" width="700" height="30" as="geometry" />
        </mxCell>
        <mxCell id="DBU9gmyK1zi7gjaQTkSu-1" value="- updateBankAccountIncrease and Decrease will probably need to be combined&amp;nbsp;" style="whiteSpace=wrap;html=1;aspect=fixed;" vertex="1" parent="1">
          <mxGeometry x="90" y="590" width="260" height="260" as="geometry" />
        </mxCell>
      </root>
    </mxGraphModel>
  </diagram>
  <diagram id="UN_eCdh1Z3v9xJX-rx01" name="TEnmo - Authentication Service">
    <mxGraphModel grid="1" page="1" gridSize="10" guides="1" tooltips="1" connect="1" arrows="1" fold="1" pageScale="1" pageWidth="850" pageHeight="1100" math="0" shadow="0">
      <root>
        <mxCell id="0" />
        <mxCell id="1" parent="0" />
        <mxCell id="5K_Sv-5dvMoJUOKXBbt7-1" value="Authentication Service" style="swimlane;fontStyle=0;childLayout=stackLayout;horizontal=1;startSize=30;horizontalStack=0;resizeParent=1;resizeParentMax=0;resizeLast=0;collapsible=1;marginBottom=0;whiteSpace=wrap;html=1;" vertex="1" parent="1">
          <mxGeometry x="240" y="200" width="440" height="160" as="geometry" />
        </mxCell>
        <mxCell id="5K_Sv-5dvMoJUOKXBbt7-2" value="private static final API_BASE_URL : string" style="text;strokeColor=#6c8ebf;fillColor=#dae8fc;align=left;verticalAlign=middle;spacingLeft=4;spacingRight=4;overflow=hidden;points=[[0,0.5],[1,0.5]];portConstraint=eastwest;rotatable=0;whiteSpace=wrap;html=1;" vertex="1" parent="5K_Sv-5dvMoJUOKXBbt7-1">
          <mxGeometry y="30" width="440" height="30" as="geometry" />
        </mxCell>
        <mxCell id="5K_Sv-5dvMoJUOKXBbt7-3" value="private final restTemplate : RestTemplate" style="text;strokeColor=#6c8ebf;fillColor=#dae8fc;align=left;verticalAlign=middle;spacingLeft=4;spacingRight=4;overflow=hidden;points=[[0,0.5],[1,0.5]];portConstraint=eastwest;rotatable=0;whiteSpace=wrap;html=1;" vertex="1" parent="5K_Sv-5dvMoJUOKXBbt7-1">
          <mxGeometry y="60" width="440" height="30" as="geometry" />
        </mxCell>
        <mxCell id="5K_Sv-5dvMoJUOKXBbt7-4" value="public login(String username, String password) : String&amp;nbsp;&amp;nbsp;" style="text;strokeColor=#82b366;fillColor=#d5e8d4;align=left;verticalAlign=middle;spacingLeft=4;spacingRight=4;overflow=hidden;points=[[0,0.5],[1,0.5]];portConstraint=eastwest;rotatable=0;whiteSpace=wrap;html=1;" vertex="1" parent="5K_Sv-5dvMoJUOKXBbt7-1">
          <mxGeometry y="90" width="440" height="30" as="geometry" />
        </mxCell>
        <mxCell id="w03Le8_EOofC4SlinTOG-1" value="&amp;nbsp;public registerNewUser(String username, String password) : Tenmo" style="text;whiteSpace=wrap;html=1;fillColor=#d5e8d4;strokeColor=#82b366;" vertex="1" parent="5K_Sv-5dvMoJUOKXBbt7-1">
          <mxGeometry y="120" width="440" height="40" as="geometry" />
        </mxCell>
      </root>
    </mxGraphModel>
  </diagram>
</mxfile>
